<?xml version="1.0" standalone="no"?>
<!DOCTYPE svg PUBLIC "-//W3C//DTD SVG 1.1//EN" "http://www.w3.org/Graphics/SVG/1.1/DTD/svg11.dtd" >
<svg xmlns="http://www.w3.org/2000/svg" xmlns:xlink="http://www.w3.org/1999/xlink" version="1.1">
<metadata></metadata>
<defs>
<font id="courier_10_pitchitalic" horiz-adv-x="1232" >
<font-face units-per-em="2048" ascent="1638" descent="-410" />
<missing-glyph horiz-adv-x="500" />
<glyph horiz-adv-x="0" />
<glyph horiz-adv-x="682" />
<glyph unicode=" " />
<glyph unicode="!" d="M375 131q0 71 48.5 116.5t129.5 45.5t130.5 -45.5t49.5 -116.5t-49.5 -116.5t-130.5 -45.5q-79 0 -128.5 45.5t-49.5 116.5zM535 444q0 15 2 23l100 629q5 34 11 54t19 40.5t37 29.5t60 9q34 0 63 -22.5t29 -45.5q0 -8 -14 -65l-160 -623q-11 -42 -30 -61t-58 -19 q-59 0 -59 51z" />
<glyph unicode="&#x22;" d="M317 1124v13q0 49 45 49h134q47 0 47 -49v-13l-31 -370q-3 -35 -13 -48.5t-38 -13.5h-62q-28 0 -38 13.5t-13 48.5zM690 1124v13q0 49 47 49h133q45 0 45 -49v-13l-30 -370q-3 -35 -13 -48.5t-38 -13.5h-62q-28 0 -38 13.5t-13 48.5z" />
<glyph unicode="#" d="M215 444q0 68 66 68h133l10 238h-143q-66 0 -66 67q0 66 66 66h149l25 434q3 61 61 61q28 0 45 -16.5t17 -46.5v-4l-21 -428h145l25 434q3 61 61 61q29 0 46.5 -16.5t17.5 -46.5v-4l-25 -428h123q66 0 66 -66q0 -67 -66 -67h-127l-12 -238h139q66 0 66 -68q0 -67 -66 -67 h-147l-23 -432q-3 -64 -65 -64q-27 0 -43.5 18t-16.5 48v4l21 426h-146l-24 -432q-3 -64 -66 -64q-26 0 -41.5 17.5t-15.5 46.5v6l23 426h-125q-66 0 -66 67zM537 512h147l14 238h-149z" />
<glyph unicode="$" d="M117 168q0 9 4 29l31 139q8 34 34 58t56 24q31 0 50 -18.5t19 -49.5v-18q0 -46 77 -85.5t169 -39.5q97 0 161 61t64 148q0 75 -96 114l-215 82q-87 33 -133.5 95t-46.5 141q0 156 105.5 253t291.5 101l27 84q22 74 84 74q27 0 44 -12t17 -31q0 -20 -8 -41l-25 -78 q67 -17 129 -55q25 41 68 41q22 0 35.5 -14.5t13.5 -36.5v-11l-31 -153q-6 -29 -27.5 -49.5t-47.5 -20.5q-27 0 -43.5 11.5t-20.5 24t-7.5 33t-6.5 27.5q-13 32 -62 55t-116 23q-107 0 -181.5 -54.5t-74.5 -129.5q0 -44 31.5 -81.5t86.5 -57.5l201 -70q93 -32 142 -96 t49 -154q0 -91 -51 -171.5t-149 -134.5t-224 -61l-58 -227q-10 -41 -34.5 -63.5t-55.5 -22.5q-26 0 -41.5 12.5t-15.5 32.5q0 23 4 35l63 242q-85 15 -139 67q-33 -45 -76 -45q-30 0 -50.5 20.5t-20.5 53.5z" />
<glyph unicode="%" d="M207 993q0 116 83 193.5t210 77.5q128 0 209.5 -77t81.5 -194q0 -116 -81.5 -193t-209.5 -77t-210.5 77t-82.5 193zM217 496q0 17 12 32t31 23l670 266q15 6 28 6q25 0 39.5 -15t14.5 -40q0 -39 -39 -55l-672 -267q-15 -6 -27 -6q-24 0 -40.5 16t-16.5 40zM332 993 q0 -67 46 -109t122 -42t122 42t46 109t-46 109.5t-122 42.5t-122 -42.5t-46 -109.5zM440 268q0 116 83 192.5t210 76.5q128 0 209.5 -76.5t81.5 -192.5t-81.5 -193t-209.5 -77t-210.5 77t-82.5 193zM563 268q0 -67 47 -110t123 -43t122 43t46 110t-46 109.5t-122 42.5 t-123 -42.5t-47 -109.5z" />
<glyph unicode="&#x26;" d="M137 260q0 226 285 385q-53 112 -53 203q0 123 80.5 201.5t209.5 78.5q103 0 185 -59q6 0 11 0.5t7.5 1t3.5 0.5q56 0 56 -47q0 -18 -13 -35l-39 -49q-10 -14 -32 -14q-21 0 -79.5 37.5t-101.5 37.5q-65 0 -103 -39t-38 -104t43 -147l180 -359q30 45 52.5 97t32.5 82.5 t26 51.5t39 21h72q21 0 33 -13t12 -36q0 -43 -21 -73t-55 -31q-46 -119 -125 -226l37 -75h10q29 0 42 -9.5t13 -31.5q0 -58 -24 -83.5t-74 -25.5q-62 0 -80 35l-37 69q-143 -122 -293 -122q-116 0 -189 77t-73 201zM305 283q0 -66 37.5 -108t103.5 -42q87 0 187 90l-154 303 q-89 -53 -131.5 -111t-42.5 -132z" />
<glyph unicode="'" d="M500 1122v13q0 51 47 51h137q47 0 47 -51v-13l-33 -381q-3 -36 -12.5 -49.5t-38.5 -13.5h-63q-30 0 -40.5 13.5t-13.5 49.5z" />
<glyph unicode="(" d="M426 190q0 148 45.5 315t124.5 302q114 193 221.5 304.5t161.5 111.5q41 0 41 -41q0 -18 -23.5 -51t-71 -98.5t-85.5 -131.5q-226 -384 -226 -754q0 -111 20.5 -219t41 -178t20.5 -90q0 -24 -15.5 -40.5t-37.5 -16.5q-31 0 -68 44.5t-70.5 119t-56 188t-22.5 235.5z" />
<glyph unicode=")" d="M221 -356q0 18 22.5 51t70 98t85.5 131q226 384 226 754q0 111 -20 219t-40 178t-20 90q0 25 14.5 40.5t36.5 15.5q31 0 68 -44.5t70.5 -118.5t56 -187.5t22.5 -235.5q0 -148 -45.5 -315t-124.5 -302q-114 -194 -220.5 -304.5t-160.5 -110.5q-41 0 -41 41z" />
<glyph unicode="*" d="M211 836q0 9 6 30l27 76q11 35 26 35t25 -4l264 -115l-27 287v12q0 18 8.5 23.5t34.5 5.5h80q26 0 34.5 -5.5t8.5 -23.5v-12l-24 -287l264 113q15 6 25 6t14.5 -7t11.5 -28l25 -76q6 -24 6 -28q0 -19 -31 -25l-280 -63l188 -218q14 -18 14 -28q0 -13 -24 -29l-66 -47 q-26 -16 -30 -16q-16 0 -27 22l-148 248l-149 -248q-13 -22 -27 -22q-9 0 -30 16l-64 47q-27 18 -27 29q0 13 15 28l188 218l-278 63q-33 7 -33 23z" />
<glyph unicode="+" d="M100 629q0 30 23.5 51.5t56.5 21.5h361v377q0 35 20.5 57.5t54.5 22.5q33 0 53.5 -22t20.5 -58v-377h363q36 0 58 -20t22 -53q0 -32 -22.5 -52t-57.5 -20h-363v-375q0 -36 -20.5 -58t-53.5 -22q-31 0 -53 24t-22 56v375h-361q-35 0 -57.5 20t-22.5 52z" />
<glyph unicode="," d="M289 -262q0 4 16 41l219 479q11 24 26 33.5t42 9.5h201q10 0 17 -8t7 -19q0 -10 -4 -14l-375 -557q-22 -31 -47 -31q-12 0 -24 6l-62 31q-6 3 -11 12t-5 17z" />
<glyph unicode="-" d="M193 401v7l24 102q12 49 49 49h791q23 0 36 -11.5t13 -25.5v-6l-25 -102q-12 -49 -49 -49h-790q-23 0 -36 11t-13 25z" />
<glyph unicode="." d="M420 147q0 78 54 128.5t142 50.5t142.5 -50t54.5 -129t-54 -128.5t-143 -49.5q-88 0 -142 50t-54 128z" />
<glyph unicode="/" d="M233 -43q0 15 11 41l624 1345q24 49 42.5 69t47.5 20t50.5 -19.5t21.5 -48.5q0 -17 -10 -37l-629 -1354q-21 -46 -39.5 -66t-48.5 -20q-28 0 -49 20.5t-21 49.5z" />
<glyph unicode="0" d="M127 401q0 154 47 321t131 302q167 272 428 272q180 0 273.5 -110t93.5 -322q0 -152 -47.5 -317t-132.5 -305q-166 -273 -426 -273q-180 0 -273.5 110t-93.5 322zM291 408q0 -138 60.5 -220t156.5 -82q172 0 311 279q115 233 115 483q0 136 -61 215.5t-160 79.5 q-87 0 -162 -69t-143 -209q-56 -114 -86.5 -242.5t-30.5 -234.5z" />
<glyph unicode="1" d="M158 57q0 38 24 59t68 21h221l209 981l-188 -45q-20 -4 -31 -4q-32 0 -52 18t-20 46q0 25 17 43.5t49 25.5l323 80q24 6 45 6q14 0 23.5 -12.5t9.5 -32.5q0 -14 -2 -20l-231 -1086h215q61 0 61 -55q0 -39 -24 -60.5t-68 -21.5h-588q-61 0 -61 57z" />
<glyph unicode="2" d="M51 76q0 36 34.5 76t113.5 104l403 334q138 112 202 200t64 185q0 84 -51 135t-133 51q-61 0 -123 -30.5t-98 -79.5q-7 -9 -22 -31.5t-22.5 -31t-25 -17t-39.5 -8.5q-45 0 -45 55q0 75 57.5 139t147.5 99.5t188 35.5q149 0 238.5 -86.5t89.5 -226.5q0 -133 -86.5 -251 t-279.5 -275l-385 -316h458q13 53 38.5 81t58.5 28q27 0 45 -16t18 -40q0 -18 -10 -47l-25 -77q-9 -29 -35.5 -47.5t-60.5 -18.5h-612q-50 0 -76.5 20t-26.5 56z" />
<glyph unicode="3" d="M76 139q0 31 18 49.5t47 18.5q19 0 50.5 -14.5t62.5 -32.5t80 -32.5t100 -14.5q145 0 241.5 90t96.5 211q0 158 -174 188q-18 3 -40.5 5.5t-32.5 4.5t-20.5 6t-14 12.5t-3.5 22.5q0 21 4.5 35t10 22.5t19.5 14t22.5 7.5t30 5.5t32.5 5.5q121 26 186.5 96.5t65.5 170.5 q0 62 -44 106.5t-105 44.5q-57 0 -112.5 -17t-89.5 -37t-66.5 -37t-49.5 -17q-22 0 -36.5 15t-14.5 38q0 38 56 82t148.5 75t184.5 31q131 0 210 -76t79 -198q0 -247 -262 -332q88 -17 136 -83t48 -167q0 -126 -63.5 -233t-181.5 -172.5t-265 -65.5q-154 0 -254 52.5 t-100 119.5z" />
<glyph unicode="4" d="M141 383v12l6 45q6 33 27 60l606 772q12 15 19.5 20.5t21.5 5.5q13 0 21 -2l116 -16q8 -2 14.5 -11t6.5 -18q0 -18 -2 -28l-162 -760h41q16 0 38 17.5t38 17.5q39 0 39 -37q0 -27 -8 -39l-31 -60q-10 -24 -51 -24h-95l-41 -201h80q62 0 62 -55q0 -39 -23 -60.5t-67 -21.5 h-332q-59 0 -59 57q0 80 90 80h114l45 201h-448q-66 0 -66 45zM291 463h389l151 688z" />
<glyph unicode="5" d="M66 139q0 31 17 49.5t46 18.5q19 0 50.5 -14.5t62.5 -32.5t80.5 -32.5t101.5 -14.5q162 0 270.5 107.5t108.5 256.5q0 110 -55.5 169t-155.5 59q-49 0 -98.5 -15t-82 -32.5t-66.5 -32.5t-56 -15q-24 0 -34.5 13t-10.5 41q0 16 2 22l125 502q12 49 29.5 61.5t74.5 12.5 h518q62 0 62 -58q0 -38 -24 -59t-68 -21h-463l-86 -331q107 49 202 49q165 0 259 -94t94 -256q0 -144 -72 -264.5t-198.5 -190.5t-280.5 -70q-153 0 -252.5 52.5t-99.5 119.5z" />
<glyph unicode="6" d="M184 358q0 212 80 407.5t223 330.5q115 110 244.5 153t306.5 43q95 0 95 -55q0 -28 -12 -43.5t-36 -21t-49 -7t-64 -3t-67 -5.5q-385 -62 -512 -502q55 70 130 108t155 38q133 0 214 -91.5t81 -238.5q0 -130 -61 -245t-170.5 -185t-239.5 -70q-156 0 -237 98t-81 289z M348 315q0 -100 45 -154.5t129 -54.5q75 0 141 49.5t104 131.5t38 174q0 91 -48 144.5t-126 53.5q-108 0 -195.5 -99t-87.5 -245z" />
<glyph unicode="7" d="M281 1081q0 5 4 25l30 100q18 56 82 56h641q28 0 40 -7.5t12 -29.5q0 -42 -54 -144l-571 -1058q-18 -37 -39 -37h-102q-19 0 -26 4t-7 18q0 18 14 43l606 1073h-483q-9 -42 -33.5 -66t-58.5 -24q-23 0 -39 13.5t-16 33.5z" />
<glyph unicode="8" d="M164 285q0 119 71.5 217t198.5 147q-72 50 -104.5 106t-32.5 134q0 106 63.5 201.5t163.5 151.5t205 56q163 0 254.5 -84.5t91.5 -230.5q0 -215 -250 -334q79 -42 115.5 -99.5t36.5 -141.5q0 -113 -63 -215t-172.5 -165t-237.5 -63q-149 0 -244.5 88.5t-95.5 231.5z M324 305q0 -83 52.5 -133.5t137.5 -50.5q119 0 203 80.5t84 191.5q0 80 -50.5 126t-140.5 46q-117 0 -201.5 -79t-84.5 -181zM451 901q0 -83 52.5 -133.5t137.5 -50.5q119 0 203 80.5t84 191.5q0 80 -50.5 126t-140.5 46q-117 0 -201.5 -79t-84.5 -181z" />
<glyph unicode="9" d="M82 27q0 28 11.5 43.5t36 21.5t49 7.5t63.5 3.5t67 6q387 62 514 501q-55 -70 -130 -107.5t-156 -37.5q-133 0 -214 91.5t-81 238.5q0 130 61 244.5t170.5 184.5t239.5 70q156 0 236.5 -98t80.5 -289q0 -212 -80.5 -408t-222.5 -331q-115 -110 -244.5 -153.5 t-306.5 -43.5q-94 0 -94 56zM410 805q0 -91 48.5 -146t125.5 -55q108 0 195 99t87 245q0 100 -46 155.5t-130 55.5q-114 0 -197 -106.5t-83 -247.5z" />
<glyph unicode=":" d="M356 141q0 77 54.5 127.5t142.5 50.5q89 0 143 -49.5t54 -128.5t-54 -128.5t-143 -49.5q-88 0 -142.5 50.5t-54.5 127.5zM481 717q0 77 54.5 127.5t142.5 50.5q90 0 144.5 -49.5t54.5 -128.5q0 -78 -55 -128t-144 -50q-88 0 -142.5 50.5t-54.5 127.5z" />
<glyph unicode=";" d="M199 -262q0 9 14 41l221 479q11 24 26 33.5t42 9.5h198q10 0 18.5 -8.5t8.5 -18.5t-4 -14l-375 -557q-22 -31 -47 -31q-13 0 -25 6l-61 31q-6 3 -11 12t-5 17zM494 717q0 78 54 128t142 50q89 0 144 -50t55 -128t-55 -128t-144 -50q-88 0 -142 50t-54 128z" />
<glyph unicode="&#x3c;" d="M70 633q0 34 19.5 51t70.5 40q8 3 12 5l795 365q49 24 80 24t48 -17t17 -46t-19.5 -48.5t-62.5 -39.5l-706 -336l706 -336q42 -20 62 -40.5t20 -49.5t-17 -46.5t-48 -17.5q-21 0 -80 25l-795 371q-66 31 -81 45q-21 19 -21 51z" />
<glyph unicode="=" d="M104 463q0 74 64 74h895q63 0 63 -74t-63 -74h-895q-64 0 -64 74zM104 799q0 73 64 73h895q63 0 63 -73q0 -74 -63 -74h-895q-64 0 -64 74z" />
<glyph unicode="&#x3e;" d="M121 205q0 29 20.5 49.5t63.5 40.5l704 334l-704 338q-44 21 -64 40t-20 48t17 46t48 17q23 0 80 -24l795 -371q66 -31 81 -45q21 -19 21 -51q0 -19 -5 -32t-22.5 -25.5t-28.5 -18t-46 -21.5l-795 -364q-52 -25 -80 -25q-30 0 -47.5 17.5t-17.5 46.5z" />
<glyph unicode="?" d="M274 131q0 71 49 116.5t130 45.5t130.5 -45.5t49.5 -116.5t-49.5 -116.5t-130.5 -45.5q-79 0 -129 45.5t-50 116.5zM332 979q0 12 2 18l20 97q11 54 110.5 91.5t246.5 37.5q141 0 220 -74t79 -203q0 -138 -101.5 -231.5t-318.5 -167.5l-17 -76q-15 -74 -86 -74 q-67 0 -67 52q0 12 2 18l12 68q7 39 33 69.5t61 46.5l144 62q178 76 178 221q0 70 -45 109.5t-127 39.5q-83 0 -137 -20.5t-64 -48.5l-12 -33q-21 -61 -72 -61q-28 0 -44.5 15.5t-16.5 43.5z" />
<glyph unicode="@" d="M270 354q0 194 57.5 402.5t151.5 359.5q153 252 365 252q110 0 180 -69.5t70 -182.5q0 -50 -31 -213l-86 -428l12 -35q8 -19 8 -41q0 -30 -34 -55t-68 -25q-29 0 -64 50q-78 -37 -133 -37q-83 0 -137.5 59t-54.5 156q0 101 48 188t137 141t198 54q29 0 45 -2 q29 123 29 166q0 69 -38.5 112t-93.5 43q-167 0 -294 -288q-138 -317 -138 -648q0 -148 57 -224.5t162 -76.5q53 0 117 24.5t74 24.5q16 0 29.5 -14t13.5 -33q0 -52 -66.5 -85t-183.5 -33q-155 0 -243.5 118t-88.5 340zM633 575q0 -54 27 -86t71 -32q49 0 111 24l69 332h-53 q-95 0 -160 -74t-65 -164z" />
<glyph unicode="A" d="M-104 57q0 80 90 80h47l516 912h-168q-62 0 -62 55q0 40 24.5 61t68.5 21h352q47 0 66 -19.5t28 -76.5l166 -953h51q62 0 62 -55q0 -38 -24.5 -60t-68.5 -22h-339q-60 0 -60 57q0 80 90 80h133l-34 234h-517l-127 -234h129q62 0 62 -55q0 -39 -23 -60.5t-67 -21.5h-336 q-59 0 -59 57zM391 504h418l-100 583z" />
<glyph unicode="B" d="M-23 57q0 38 24.5 59t68.5 21h90l192 912h-98q-61 0 -61 55q0 39 24 60.5t68 21.5h413q84 0 143 -5.5t113.5 -22.5t87 -47t51.5 -79t19 -119q0 -106 -52 -182.5t-151 -114.5q88 -26 129 -82.5t41 -148.5q0 -167 -108 -272q-69 -67 -170.5 -90t-268.5 -23h-493 q-62 0 -62 57zM315 137h203q104 0 172 10.5t120 38t75.5 78t23.5 127.5q0 82 -60 119t-183 37h-265zM428 670h250q132 0 199 57t67 164q0 84 -48.5 121t-150.5 37h-237z" />
<glyph unicode="C" d="M78 438q0 143 51 286t141 253q200 244 502 244q133 0 279 -70q20 31 34.5 41t44.5 10q29 0 44.5 -12t15.5 -33q0 -6 -3.5 -39t-16 -109.5t-29.5 -158.5q-9 -44 -26.5 -63t-51.5 -19q-16 0 -27.5 2.5t-19.5 5.5t-13.5 11.5t-9 14.5t-6 21t-3 25t-2.5 33t-3 37 q-9 87 -61 127t-156 40q-114 0 -203 -48t-162 -150q-143 -198 -143 -447q0 -155 81.5 -244.5t213.5 -89.5q123 0 256 68q32 16 69 40.5t60 38t39 13.5q22 0 37.5 -15.5t15.5 -39.5q0 -30 -23.5 -58t-74.5 -63q-174 -121 -398 -121q-204 0 -328 127t-124 342z" />
<glyph unicode="D" d="M-20 53q0 84 90 84h57l195 912h-64q-61 0 -61 55q0 82 90 82h348q278 0 412.5 -106.5t134.5 -336.5q0 -145 -49 -285.5t-129 -236.5q-102 -121 -246 -171t-369 -50h-350q-59 0 -59 53zM283 137h170q256 0 404.5 165t148.5 433q0 173 -87.5 243.5t-285.5 70.5h-156z" />
<glyph unicode="E" d="M-23 57q0 38 24.5 59t68.5 21h106l186 912h-108q-61 0 -61 55q0 39 24 60.5t68 21.5h827q41 0 64.5 -18.5t23.5 -49.5q0 -19 -4 -35l-51 -213q-13 -57 -30 -75.5t-54 -18.5q-62 0 -62 55q0 2 9 54l36 164h-526l-72 -347h256l19 70q7 30 12.5 44.5t20 26t37.5 11.5 q53 0 53 -47q0 -13 -10 -68l-43 -219q-10 -52 -21.5 -69t-48.5 -17q-26 0 -40.5 10.5t-14.5 28.5q0 19 4 35l12 76h-260l-92 -447h514l45 187q12 51 29.5 72.5t48.5 21.5q63 0 63 -60q0 -21 -6 -51l-49 -221q-10 -48 -31.5 -67t-83.5 -19h-821q-62 0 -62 57z" />
<glyph unicode="F" d="M25 57q0 38 24 59t68 21h106l187 912h-109q-61 0 -61 55q0 39 24 60.5t68 21.5h827q41 0 64.5 -18.5t23.5 -49.5q0 -19 -4 -35l-51 -213q-13 -57 -30 -75.5t-54 -18.5q-61 0 -61 55q0 8 8 54l37 164h-527l-71 -347h256l18 70q7 30 12.5 44.5t20 26t37.5 11.5q55 0 54 -47 q0 -13 -9 -68l-45 -219q-10 -52 -21 -69t-49 -17q-26 0 -40.5 10.5t-14.5 28.5q0 19 4 35l12 76h-260l-92 -447h209q61 0 61 -55q0 -39 -23 -60.5t-67 -21.5h-471q-61 0 -61 57z" />
<glyph unicode="G" d="M78 432q0 145 50.5 287.5t141.5 255.5q199 246 502 246q133 0 279 -70q18 29 35 41t44 12q28 0 44 -14.5t16 -40.5q0 -13 -2 -21l-41 -208q-10 -56 -24 -77.5t-52 -21.5q-27 0 -43 6t-24 21.5t-11.5 29t-7.5 41.5t-8 46q-28 120 -215 120q-113 0 -200.5 -47.5 t-160.5 -148.5q-71 -97 -109 -210.5t-38 -225.5q0 -169 84 -259t242 -90q131 0 266 60l49 246h-207q-43 0 -58.5 8t-15.5 35q0 55 24 71.5t81 16.5h342q56 0 75 -8.5t19 -38.5q0 -52 -18 -68t-66 -16h-22l-60 -301q-7 -34 -21 -45.5t-69 -32.5q-169 -62 -354 -62 q-215 0 -341 124.5t-126 338.5z" />
<glyph unicode="H" d="M-23 57q0 38 24.5 59t68.5 21h57l195 912h-68q-61 0 -61 55q0 39 24 60.5t68 21.5h293q59 0 59 -58q0 -79 -90 -79h-70l-78 -359h473l76 359h-78q-61 0 -61 55q0 39 24 60.5t68 21.5h291q61 0 61 -58q0 -38 -24 -58.5t-68 -20.5h-57l-195 -912h68q61 0 61 -55 q0 -39 -24 -60.5t-68 -21.5h-293q-61 0 -61 57q0 38 24 59t68 21h70l90 422h-473l-88 -422h77q62 0 62 -55q0 -39 -24 -60.5t-68 -21.5h-291q-62 0 -62 57z" />
<glyph unicode="I" d="M92 57q0 80 90 80h254l197 912h-264q-62 0 -62 55q0 39 24 60.5t68 21.5h678q29 0 45.5 -15t16.5 -43q0 -38 -24 -58.5t-68 -20.5h-261l-194 -912h268q62 0 62 -55q0 -39 -23.5 -60.5t-67.5 -21.5h-677q-62 0 -62 57z" />
<glyph unicode="J" d="M55 111q0 13 11 67l57 262q7 32 19.5 45t45.5 13t47.5 -14t14.5 -44q0 -10 -6 -61.5t-6 -93.5q0 -100 49.5 -145.5t163.5 -45.5q76 0 128 19t87.5 63.5t56.5 102.5t41 151l131 619h-303q-62 0 -62 55q0 39 23.5 60.5t67.5 21.5h622q29 0 45.5 -15t16.5 -43q0 -79 -91 -79 h-163l-140 -654q-20 -92 -43.5 -157t-59.5 -119t-86 -85t-119.5 -48t-162.5 -17q-79 0 -153.5 15.5t-123.5 38t-78.5 46.5t-29.5 42z" />
<glyph unicode="K" d="M-4 57q0 80 90 80h102l191 912h-109q-59 0 -59 55q0 39 23 60.5t67 21.5h358q60 0 60 -58q0 -79 -90 -79h-94l-86 -414l481 414h-41q-60 0 -60 55q0 39 23.5 60.5t67.5 21.5h270q39 0 56.5 -13.5t17.5 -44.5q0 -38 -24.5 -58.5t-68.5 -20.5h-47l-444 -379 q49 -19 88 -59.5t74 -115t61.5 -151.5t65.5 -207h59q40 0 54 -11t14 -44q0 -43 -23 -62.5t-74 -19.5h-100q-30 0 -48 16t-30 52.5t-21.5 79.5t-30.5 113t-50 136q-62 142 -174 166l-139 -117l-62 -309h92q62 0 62 -55q0 -39 -24 -60.5t-68 -21.5h-351q-59 0 -59 57z" />
<glyph unicode="L" d="M-16 57q0 80 90 80h164l194 912h-172q-61 0 -61 55q0 39 24 60.5t68 21.5h532q60 0 60 -58q0 -79 -90 -79h-205l-197 -912h520l62 266q15 69 30 93t56 24q36 0 51.5 -12.5t15.5 -40.5q0 -9 -4 -33l-71 -330q-15 -71 -35.5 -87.5t-93.5 -16.5h-877q-61 0 -61 57z" />
<glyph unicode="M" d="M-74 57q0 80 90 80h58l219 912h-33q-37 0 -51 10.5t-14 40.5q0 40 23 63t61 23h163q79 0 88 -92l66 -645l330 622q37 69 64 92t79 23h164q31 0 43 -14t12 -46q0 -77 -65 -77h-58l-168 -912h58q61 0 61 -55q0 -39 -24 -60.5t-68 -21.5h-295q-59 0 -59 57q0 80 90 80h86 l172 897l-324 -608q-27 -50 -46 -64t-66 -14t-67 17t-26 69l-61 600l-209 -897h98q62 0 62 -55q0 -39 -24 -60.5t-68 -21.5h-299q-62 0 -62 57z" />
<glyph unicode="N" d="M-2 57q0 38 24 59t68 21h47l189 912h-84q-60 0 -60 55q0 39 23 60.5t67 21.5h162q56 0 74 -10.5t33 -55.5l305 -913l166 842h-119q-62 0 -62 55q0 38 24.5 60t68.5 22h311q61 0 61 -58q0 -38 -24 -58.5t-68 -20.5h-49l-203 -967q-7 -36 -11 -50.5t-14.5 -28t-26 -16.5 t-44.5 -3q-45 0 -62 15.5t-42 88.5l-303 895l-168 -846h129q61 0 61 -55q0 -39 -24 -60.5t-68 -21.5h-320q-61 0 -61 57z" />
<glyph unicode="O" d="M45 446q0 132 44 264.5t128 245.5q94 129 222.5 197t279.5 68q216 0 342.5 -128.5t126.5 -351.5q0 -273 -174 -510q-94 -127 -221 -193.5t-277 -66.5q-220 0 -345.5 126.5t-125.5 348.5zM219 449q0 -163 82 -255t227 -92q198 0 346 209q142 197 142 434q0 162 -83 253.5 t-226 91.5q-201 0 -349 -207q-139 -194 -139 -434z" />
<glyph unicode="P" d="M10 57q0 38 24 59t68 21h121l195 912h-131q-60 0 -60 55q0 39 23 60.5t67 21.5h447q121 0 190.5 -10t122.5 -48q50 -35 77.5 -94.5t27.5 -132.5q0 -221 -132 -341t-386 -120h-222l-63 -303h217q61 0 61 -55q0 -39 -24 -60.5t-68 -21.5h-493q-62 0 -62 57zM469 567h178 q183 0 273 73.5t90 233.5q0 92 -50.5 133.5t-156.5 41.5h-232z" />
<glyph unicode="Q" d="M45 446q0 132 44 264.5t128 245.5q94 128 222.5 196.5t277.5 68.5q218 0 344.5 -128.5t126.5 -351.5q0 -270 -174 -510q-92 -126 -220.5 -194t-273.5 -68q-42 0 -114 11l-115 -101q140 39 217 39q54 0 140 -22.5t116 -22.5q32 0 76 18.5t57 18.5q18 0 31.5 -15t13.5 -36 q0 -45 -59 -80t-138 -35q-55 0 -156.5 31.5t-160.5 31.5q-58 0 -110 -16.5t-87.5 -33.5t-52.5 -17q-19 0 -35 17.5t-16 41.5q0 36 45 72l152 127q-279 114 -279 448zM219 449q0 -163 82 -255t227 -92q198 0 346 209q142 197 142 434q0 162 -83 253.5t-226 91.5 q-201 0 -349 -207q-139 -194 -139 -434z" />
<glyph unicode="R" d="M-16 57q0 80 90 80h92l192 912h-98q-61 0 -61 55q0 39 23 60.5t67 21.5h416q106 0 177.5 -11t126.5 -40t81 -81.5t26 -131.5q0 -152 -89.5 -259.5t-240.5 -132.5q10 -9 19 -19t17 -22.5t13.5 -21t13.5 -24t11.5 -22.5t11.5 -25.5t11 -24.5l102 -234h66q59 0 59 -55 q0 -39 -23 -60.5t-67 -21.5h-107q-24 0 -40.5 17.5t-34.5 56.5l-144 321q-31 70 -59 92.5t-98 22.5h-138l-80 -373h103q61 0 61 -55q0 -39 -24 -60.5t-68 -21.5h-348q-59 0 -59 57zM426 635h195q163 0 246 63.5t83 184.5q0 87 -50.5 126.5t-156.5 39.5h-229z" />
<glyph unicode="S" d="M94 18q0 25 4 45l43 246q15 92 70 92q31 0 48.5 -6.5t24.5 -21t9 -29t4 -41.5t6 -47q15 -74 83.5 -115t182.5 -41q147 0 236.5 72t89.5 176q0 82 -48 116.5t-155 49.5q-8 1 -42 5.5t-42.5 6t-37 6t-38.5 7.5t-33 8.5t-35 11.5t-29.5 14.5t-31 18.5t-26.5 22 q-92 83 -92 215q0 168 135.5 280t355.5 112q123 0 244 -56q9 33 26 45.5t50 12.5q30 0 46.5 -14.5t16.5 -39.5q0 -6 -4 -34l-29 -193q-8 -59 -22 -78.5t-57 -19.5q-11 0 -19 0.5t-14.5 3.5t-10.5 4.5t-8 8t-6 9t-4 13t-3 15t-3.5 19t-3.5 21.5q-24 149 -244 149 q-127 0 -208 -68t-81 -169q0 -26 3.5 -46.5t14 -36.5t19 -27t30 -20.5t34 -15t43.5 -11.5t47.5 -8.5t56.5 -8.5q98 -15 162.5 -35t113.5 -54.5t71 -87.5t22 -130q0 -175 -127.5 -286.5t-339.5 -111.5q-215 0 -342 70q-20 -47 -38 -64.5t-54 -17.5q-26 0 -45 17t-19 42z" />
<glyph unicode="T" d="M145 715q0 4 5 24l86 373q11 44 32 59t74 15h817q42 0 60 -11.5t18 -41.5q0 -5 -4 -29l-68 -371q-12 -69 -75 -69q-34 0 -49 12.5t-15 40.5q0 14 2 22l51 305h-276l-195 -907h185q61 0 61 -55q0 -39 -23 -60.5t-67 -21.5h-531q-61 0 -61 57q0 38 24 59t68 21h191l192 907 h-282l-78 -309q-18 -69 -76 -69q-66 0 -66 49z" />
<glyph unicode="U" d="M170 309q0 67 18 166l115 574h-49q-61 0 -61 57q0 80 92 80h295q59 0 59 -56q0 -39 -23 -60t-67 -21h-90l-121 -598q-16 -79 -16 -134q0 -104 57 -158.5t166 -54.5q148 0 225 85t115 274l116 586h-100q-61 0 -61 57q0 80 90 80h295q59 0 59 -56q0 -35 -21.5 -58 t-52.5 -23h-61l-135 -652q-88 -428 -490 -428q-170 0 -262 88.5t-92 251.5z" />
<glyph unicode="V" horiz-adv-x="1243" d="M137 1104q0 82 90 82h320q61 0 61 -58q0 -79 -90 -79h-135l152 -883l507 883h-139q-61 0 -61 55q0 39 24 60.5t68 21.5h330q61 0 61 -58q0 -36 -22 -57.5t-58 -21.5h-45l-569 -981q-31 -53 -53 -68.5t-84 -15.5q-49 0 -67.5 17t-27.5 67l-170 981h-39q-25 0 -39 14.5 t-14 40.5z" />
<glyph unicode="W" d="M125 1104q0 40 24 61t68 21h320q59 0 59 -58q0 -79 -90 -79h-156l-67 -836l276 580q29 60 49 84t47 24h45q30 0 40.5 -14t13.5 -53l57 -623l264 838h-160q-61 0 -61 55q0 39 24 60.5t68 21.5h326q59 0 59 -58q0 -34 -20 -56.5t-41 -22.5h-51l-340 -975q-1 -4 -6 -18.5 t-6 -17.5t-6 -14t-8.5 -13.5t-10 -9t-14 -8t-18.5 -3.5t-24 -2q-40 0 -56 17t-21 61l-64 669l-313 -661q-26 -56 -44.5 -71t-70.5 -15q-42 0 -57 13t-15 46v19l56 983h-31q-17 0 -31 15t-14 40z" />
<glyph unicode="X" d="M6 59q0 78 74 78h33l430 477l-207 435h-41q-47 0 -47 51q0 47 22 66.5t72 19.5h246q61 0 61 -58q0 -79 -90 -79h-57l160 -340l296 340h-51q-61 0 -61 55q0 39 23 60.5t67 21.5h250q61 0 61 -58q0 -34 -21.5 -56.5t-51.5 -22.5h-35l-416 -455l238 -457h43q22 0 35.5 -14.5 t13.5 -40.5q0 -39 -23 -60.5t-67 -21.5h-281q-59 0 -59 57q0 80 90 80h80l-181 357l-315 -357h78q59 0 59 -55q0 -39 -23 -60.5t-67 -21.5h-278q-60 0 -60 59z" />
<glyph unicode="Y" d="M176 57q0 38 24 59t68 21h193l69 328l-194 584h-68q-47 0 -47 51q0 47 22 66.5t72 19.5h295q29 0 45.5 -15t16.5 -43q0 -38 -24 -58.5t-68 -20.5h-84l147 -439l338 439h-55q-60 0 -60 55q0 39 23 60.5t67 21.5h254q62 0 62 -58q0 -34 -22 -56.5t-52 -22.5h-51l-463 -586 l-70 -326h187q61 0 61 -55q0 -39 -23 -60.5t-67 -21.5h-534q-62 0 -62 57z" />
<glyph unicode="Z" d="M117 70q0 13 3.5 26t7.5 21.5t14.5 23.5t16 21.5t22.5 25.5t24 27l727 834h-418l-59 -236q-12 -52 -31.5 -72t-58.5 -20q-28 0 -44 12.5t-16 34.5q0 1 10 43l72 299q13 54 33 65t82 11h540q49 0 75 -19t26 -53q0 -19 -11 -41t-22.5 -36.5t-38.5 -45.5l-747 -854h450 l68 262q12 52 31 72.5t57 20.5q27 0 43 -14t16 -36q0 -10 -8 -43l-78 -323q-13 -54 -33 -65t-84 -11h-569q-100 0 -100 70z" />
<glyph unicode="[" d="M338 -313q0 8 4 28l305 1395q16 76 92 76h256q25 0 38.5 -14t13.5 -39q0 -33 -26.5 -51.5t-78.5 -18.5h-149l-287 -1313h178q25 0 39 -14t14 -39q0 -70 -106 -70h-166q-68 0 -97.5 11.5t-29.5 48.5z" />
<glyph unicode="\" d="M233 1364q0 28 20 47t48 19q22 0 43.5 -13.5t28.5 -32.5l645 -1386q10 -23 10 -41q0 -29 -20.5 -49.5t-49.5 -20.5q-20 0 -38 12.5t-27 32.5l-651 1395q-9 18 -9 37z" />
<glyph unicode="]" d="M170 -322q0 33 26.5 52.5t77.5 19.5h150l289 1313h-181q-51 0 -51 51q0 72 105 72h168q67 0 96 -12.5t29 -49.5q0 -3 -5 -28l-303 -1395q-15 -74 -94 -74h-256q-51 0 -51 51z" />
<glyph unicode="^" d="M260 971q0 19 12 37l279 352q18 24 65 24t68 -24l277 -352q12 -18 12 -37q0 -22 -15.5 -36.5t-35.5 -14.5q-17 0 -27 10l-279 278l-278 -278q-10 -10 -27 -10q-20 0 -35.5 14.5t-15.5 36.5z" />
<glyph unicode="_" d="M-45 -487q0 19 12.5 30t32.5 11h1233q47 0 47 -41v-76q0 -20 -14 -34.5t-33 -14.5h-1233q-20 0 -32.5 13.5t-12.5 35.5v76z" />
<glyph unicode="`" d="M395 1233q0 6 4 18l25 64q15 37 43 37q6 0 14 -4l471 -238l-20 -55l-508 139q-12 3 -20.5 14.5t-8.5 24.5z" />
<glyph unicode="a" d="M111 248q0 148 144.5 249t375.5 101q106 0 225 -35q16 65 16 105q0 145 -165 145q-65 0 -131 -21t-115.5 -42t-73.5 -21q-29 0 -47 16t-18 41q0 40 53 77t147 61t203 24q149 0 227 -64t78 -175q0 -42 -8 -78l-107 -494h97q59 0 59 -57q0 -80 -86 -80h-125q-54 0 -73 12 t-19 56q0 26 16 98q-166 -184 -376 -184q-134 0 -215.5 73.5t-81.5 192.5zM272 262q0 -63 43.5 -99t124.5 -36q131 0 245 79t134 183l10 55q-109 33 -192 33q-169 0 -267 -62t-98 -153z" />
<glyph unicode="b" d="M-18 55q0 82 88 82h57l217 1034h-63q-60 0 -60 58q0 80 90 80h158q25 0 36 -7t11 -24q0 -12 -2 -18l-104 -480q164 144 354 144q174 0 279.5 -106.5t105.5 -285.5q0 -154 -74 -282.5t-201 -202.5t-276 -74q-223 0 -326 154l-12 -59q-7 -36 -28.5 -52t-61.5 -16h-129 q-59 0 -59 55zM332 360q0 -114 74 -182.5t196 -68.5q163 0 272 121t109 307q0 115 -69 183t-179 68q-176 0 -289.5 -120t-113.5 -308z" />
<glyph unicode="c" d="M131 399q0 104 46 204t124.5 176t190.5 122.5t235 46.5q191 0 297 -121l12 54q12 51 68 51q70 0 70 -49q0 -8 -3 -17l-51 -241q-9 -41 -29 -60.5t-57 -19.5q-35 0 -49.5 18.5t-24.5 61.5t-22 67q-30 55 -89 86t-138 31q-167 0 -289.5 -125t-122.5 -289 q0 -125 76.5 -201.5t204.5 -76.5q134 0 264 92q10 8 32 24.5t32 23t25.5 16t28 13t25.5 3.5q55 0 55 -58q0 -49 -98 -120q-183 -136 -379 -136q-202 0 -318 113.5t-116 310.5z" />
<glyph unicode="d" d="M80 375q0 159 75 291.5t202.5 208t279.5 75.5q111 0 190.5 -36.5t135.5 -116.5l81 374h-131q-61 0 -61 58q0 80 90 80h207q29 0 45 -14.5t16 -39.5q0 -10 -2 -16l-237 -1102h71q62 0 62 -57q0 -80 -90 -80h-148q-47 0 -47 31q0 12 2 18l29 101q-156 -173 -383 -173 q-175 0 -281 107.5t-106 290.5zM248 383q0 -129 68.5 -199.5t191.5 -70.5q168 0 281.5 125.5t113.5 326.5q0 114 -73.5 182t-194.5 68q-162 0 -274.5 -125t-112.5 -307z" />
<glyph unicode="e" d="M131 391q0 111 46 213.5t123.5 178t185.5 120.5t227 45q191 0 303 -111t112 -300q0 -41 -7 -65t-25.5 -35t-38.5 -14t-58 -3h-706v-37q0 -130 76 -203.5t213 -73.5q74 0 145 21.5t116 47.5t90.5 47.5t74.5 21.5q27 0 42 -13.5t15 -37.5q0 -49 -123 -117 q-185 -101 -371 -101q-203 0 -321.5 114t-118.5 302zM309 551h666v10q0 125 -70 190.5t-203 65.5q-136 0 -239 -69.5t-154 -196.5z" />
<glyph unicode="f" d="M150 55q0 82 88 82h172l131 619h-170q-60 0 -60 57q0 80 90 80h166l15 63q15 63 27.5 103.5t33.5 85.5t49.5 71.5t70 49.5t99.5 33t135 10q146 0 208.5 -18.5t62.5 -69.5q0 -36 -25 -60t-65 -24q-25 0 -95 15t-114 15q-60 0 -100 -12.5t-65.5 -40t-39.5 -61t-27 -86.5 l-18 -74h342q61 0 61 -57q0 -80 -90 -80h-342l-131 -619h330q61 0 61 -57q0 -38 -24 -59t-68 -21h-649q-59 0 -59 55z" />
<glyph unicode="g" d="M127 410q0 113 41.5 213.5t111.5 171t165 112t198 41.5q100 0 176 -38t117 -109l10 67q9 56 49 56h170q60 0 60 -58q0 -80 -90 -80h-62l-174 -817q-40 -190 -156.5 -279t-330.5 -89q-121 0 -173.5 18.5t-52.5 69.5q0 34 28.5 58t66.5 24q20 0 78.5 -9.5t97.5 -9.5 q84 0 141 23t96.5 77t64 129.5t44.5 194.5q-126 -135 -314 -135q-154 0 -258 100.5t-104 268.5zM293 414q0 -112 63.5 -176t173.5 -64q67 0 130.5 31.5t111.5 85t77.5 131.5t29.5 166q0 99 -66 162t-172 63q-146 0 -247 -113.5t-101 -285.5z" />
<glyph unicode="h" d="M35 55q0 82 90 82h55l219 1034h-61q-62 0 -62 58q0 38 23.5 59t67.5 21h157q25 0 36 -7t11 -24q0 -12 -2 -18l-100 -457q160 145 332 145q118 0 188 -67.5t70 -175.5q0 -39 -8 -72l-107 -496h62q61 0 61 -57q0 -80 -90 -80h-266q-60 0 -60 55q0 82 90 82h56l94 445 q14 61 14 86q0 66 -40 100.5t-117 34.5q-113 0 -212.5 -76t-123.5 -190l-84 -400h63q60 0 60 -57q0 -38 -23.5 -59t-67.5 -21h-266q-59 0 -59 55z" />
<glyph unicode="i" d="M117 55q0 82 88 82h301l137 649h-201q-61 0 -61 58q0 80 90 80h297q24 0 34.5 -6t10.5 -23q0 -10 -2 -18l-158 -740h318q61 0 61 -57q0 -38 -24 -59t-68 -21h-764q-59 0 -59 55zM700 1178q0 111 35.5 152.5t106.5 41.5q40 0 55.5 -14t15.5 -49q0 -110 -34.5 -152.5 t-104.5 -42.5q-41 0 -57.5 15t-16.5 49z" />
<glyph unicode="j" d="M6 -311q0 34 28.5 58t67.5 24q20 0 79 -9.5t98 -9.5q46 0 83 6t67 21t52 32t41.5 47.5t32.5 58t26.5 74.5t23 85t22.5 100l129 610h-449q-61 0 -61 58q0 38 24 59t68 21h543q25 0 35 -6t10 -21q0 -12 -2 -20l-197 -908q-40 -186 -162.5 -277t-331.5 -91q-121 0 -174 18.5 t-53 69.5zM733 1178q0 111 35 152.5t106 41.5q41 0 56.5 -14.5t15.5 -48.5q0 -110 -35 -152.5t-106 -42.5q-40 0 -56 14.5t-16 49.5z" />
<glyph unicode="k" d="M57 55q0 82 90 82h58l217 1034h-62q-61 0 -61 58q0 38 24 59t68 21h156q49 0 49 -33q0 -10 -2 -16l-160 -717l352 256q-32 5 -45.5 16.5t-13.5 36.5q0 32 23 52t61 20h303q35 0 48.5 -12t13.5 -44q0 -20 -5.5 -33t-20.5 -20t-25.5 -10t-35.5 -6.5t-36 -5.5 q-39 -7 -83.5 -29.5t-65 -36t-79.5 -55.5l-186 -131l283 -404h92q61 0 61 -57q0 -80 -90 -80h-235q-38 0 -60 18t-22 48t24.5 50t67.5 21l-230 326l-129 -88l-61 -293q-7 -37 -31.5 -59.5t-54.5 -22.5h-137q-60 0 -60 55z" />
<glyph unicode="l" d="M119 55q0 82 88 82h280l220 1034h-234q-61 0 -61 58q0 80 90 80h329q26 0 37 -6.5t11 -24.5q0 -12 -2 -18l-242 -1123h305q61 0 61 -57q0 -38 -24 -59t-68 -21h-731q-59 0 -59 55z" />
<glyph unicode="m" d="M-70 55q0 82 90 82h56l139 649h-63q-62 0 -62 58q0 38 24 59t68 21h127q56 0 56 -37q0 -2 -1.5 -5t-1.5 -5l-10 -58q102 129 226 129q68 0 110 -37t49 -104q91 141 236 141q91 0 147 -55t56 -143q0 -38 -9 -78l-114 -535h45q61 0 61 -57q0 -80 -90 -80h-131q-21 0 -35 14 t-14 35q0 10 2 14l123 580q6 24 6 57q0 52 -21.5 76.5t-70.5 24.5q-65 0 -116.5 -52.5t-72.5 -148.5l-98 -463h45q62 0 62 -57q0 -38 -23.5 -59t-67.5 -21h-129q-21 0 -35 14t-14 35q0 10 2 14l119 558q10 46 10 86q0 45 -26.5 70.5t-71.5 25.5q-64 0 -115.5 -50t-72.5 -145 l-101 -471h64q59 0 59 -57q0 -80 -90 -80h-266q-60 0 -60 55z" />
<glyph unicode="n" d="M35 55q0 82 90 82h55l139 649h-63q-61 0 -61 58q0 38 24 59t68 21h155q50 0 50 -29q0 -9 -3 -18l-20 -74q160 145 332 145q118 0 188 -67.5t70 -175.5q0 -39 -8 -72l-107 -496h62q61 0 61 -57q0 -80 -90 -80h-266q-60 0 -60 55q0 82 90 82h56l94 445q14 61 14 86 q0 66 -40 100.5t-117 34.5q-113 0 -212.5 -76t-123.5 -190l-84 -400h63q60 0 60 -57q0 -38 -23.5 -59t-67.5 -21h-266q-59 0 -59 55z" />
<glyph unicode="o" d="M98 387q0 153 76 282t210.5 205t297.5 76q207 0 330 -112.5t123 -298.5q0 -153 -75 -282t-210 -205.5t-299 -76.5q-206 0 -329.5 112.5t-123.5 299.5zM264 391q0 -133 79.5 -209t217.5 -76q174 0 290 124t116 305q0 129 -79.5 204.5t-215.5 75.5q-173 0 -290.5 -124.5 t-117.5 -299.5z" />
<glyph unicode="p" d="M-113 -342q0 82 90 82h66l223 1046h-71q-62 0 -62 58q0 80 90 80h168q49 0 49 -29q0 -2 -4 -18l-20 -74q162 143 352 143q174 0 280.5 -106t106.5 -285q0 -154 -74 -282t-200.5 -201.5t-276.5 -73.5q-222 0 -325 154l-89 -412h222q61 0 61 -59q0 -78 -92 -78h-434 q-60 0 -60 55zM340 383q0 -114 73 -182t195 -68q162 0 271.5 121t109.5 301q0 121 -69.5 189.5t-190.5 68.5q-162 0 -275.5 -120.5t-113.5 -309.5z" />
<glyph unicode="q" d="M72 385q0 151 72.5 280.5t201 207t281.5 77.5q222 0 325 -153l19 71q7 29 17 42.5t32 13.5h170q61 0 61 -58q0 -38 -24 -59t-68 -21h-61l-221 -1046h61q61 0 61 -59q0 -78 -90 -78h-372q-60 0 -60 55q0 82 90 82h162l84 397q-141 -141 -356 -141q-174 0 -279.5 106 t-105.5 283zM240 391q0 -123 70 -192.5t190 -69.5q166 0 281.5 125t115.5 307q0 114 -73.5 184t-196.5 70q-164 0 -275.5 -122t-111.5 -302z" />
<glyph unicode="r" d="M86 55q0 82 88 82h148l137 649h-152q-59 0 -59 58q0 80 90 80h246q26 0 36.5 -6t10.5 -23q0 -12 -2 -18l-39 -166q237 237 457 237q84 0 131 -34t47 -89q0 -42 -31.5 -73t-73.5 -31q-21 0 -67.5 31.5t-89.5 31.5q-83 0 -179.5 -57t-226.5 -176l-90 -414h346q59 0 59 -57 q0 -80 -90 -80h-637q-59 0 -59 55z" />
<glyph unicode="s" d="M123 35q0 13 6 37l49 192q9 35 24 51.5t40 16.5q31 0 44.5 -19t21 -54t18.5 -52q30 -49 104.5 -79t175.5 -30q124 0 195 51t71 134q0 26 -6 44t-21.5 29.5t-32 18t-49 10t-60 5t-77.5 4t-89 5.5q-283 24 -283 238q0 144 109 228.5t307 84.5q82 0 171 -23.5t101 -23.5 q20 0 49 19.5t49 19.5q26 0 41 -14.5t15 -40.5q0 -13 -2 -21l-35 -170q-15 -75 -68 -75q-28 0 -46.5 19.5t-41 55t-45.5 56.5q-79 71 -209 71q-111 0 -175 -41.5t-64 -103.5q0 -28 7 -48.5t25.5 -34t36 -21.5t53.5 -12.5t61.5 -6.5t77 -5t83.5 -5q140 -11 208 -70t68 -172 q0 -146 -111.5 -236t-312.5 -90q-161 0 -309 52q-46 -28 -71 -40t-46 -12q-27 0 -42 15.5t-15 42.5z" />
<glyph unicode="t" d="M158 784q0 84 108 84h140l53 240q21 102 90 102q29 0 50.5 -19.5t21.5 -43.5q0 -7 -9 -51l-49 -228h381q42 0 60 -12.5t18 -46.5q0 -82 -109 -82h-381l-83 -410q-11 -53 -11 -69q0 -60 35.5 -93.5t101.5 -33.5q81 0 161.5 25t138.5 50t83 25q33 0 53.5 -16t20.5 -41 q0 -39 -29 -62.5t-100 -50.5q-178 -69 -344 -69q-137 0 -207.5 59t-70.5 174q0 45 12 104l84 408h-141q-42 0 -60 11.5t-18 45.5z" />
<glyph unicode="u" d="M172 844q0 80 90 80h156q26 0 36.5 -6t10.5 -23q0 -12 -2 -18l-115 -533q-14 -72 -14 -90q0 -135 160 -135q120 0 221 77t125 193l86 397h-119q-62 0 -62 58q0 38 24.5 59t68.5 21h209q26 0 36.5 -6t10.5 -23q0 -12 -2 -18l-158 -740h63q60 0 60 -57q0 -80 -90 -80h-158 q-49 0 -49 31q0 2 4 18l20 72q-162 -146 -346 -146q-113 0 -186.5 65t-73.5 161q0 40 10 92l107 493h-62q-61 0 -61 58z" />
<glyph unicode="v" d="M111 844q0 38 24 59t68 21h264q59 0 59 -56q0 -82 -88 -82h-57l131 -647l403 647h-94q-61 0 -61 58q0 80 90 80h321q60 0 60 -56q0 -82 -90 -82h-56l-446 -686q-48 -75 -74.5 -100t-70.5 -25q-61 0 -85.5 33.5t-43.5 122.5l-136 655h-57q-61 0 -61 58z" />
<glyph unicode="w" d="M47 844q0 80 90 80h293q59 0 59 -56q0 -82 -90 -82h-102l27 -636l231 481q25 55 88 55q73 0 76 -57l31 -471l303 628h-113q-61 0 -61 58q0 38 24 59t68 21h272q60 0 60 -56q0 -36 -20 -59t-50 -23h-27l-377 -723q-30 -56 -48 -72t-60 -16q-44 0 -61.5 21t-18.5 76 l-16 477l-238 -496q-23 -46 -42.5 -63t-55.5 -17q-51 0 -65.5 21.5t-20.5 95.5l-58 696h-36q-62 0 -62 58z" />
<glyph unicode="x" d="M20 55q0 82 89 82h51l411 348l-237 301h-60q-61 0 -61 58q0 38 24 59t68 21h273q59 0 59 -56q0 -82 -88 -82h-57l172 -225l262 225h-66q-61 0 -61 58q0 38 24 59t68 21h280q60 0 60 -56q0 -82 -90 -82h-47l-365 -311l258 -338h37q61 0 61 -57q0 -38 -24 -59t-68 -21h-280 q-60 0 -60 55q0 82 88 82h97l-203 260l-301 -260h67q62 0 62 -57q0 -38 -24 -59t-68 -21h-291q-60 0 -60 55z" />
<glyph unicode="y" d="M-80 -342q0 82 88 82h207l246 336l-193 710h-57q-61 0 -61 58q0 80 90 80h266q59 0 59 -56q0 -82 -90 -82h-55l151 -567l379 567h-71q-60 0 -60 58q0 80 90 80h269q59 0 59 -56q0 -82 -90 -82h-23l-733 -1046h82q59 0 59 -59q0 -78 -90 -78h-462q-60 0 -60 55z" />
<glyph unicode="z" d="M129 76q0 51 64 106l720 604h-471l-28 -114q-11 -41 -29.5 -59.5t-52.5 -18.5q-60 0 -60 51q0 7 4 31l31 145q11 54 35 78.5t74 24.5h590q45 0 75.5 -24.5t30.5 -59.5q0 -59 -76 -123l-698 -578h479l29 113q11 42 29.5 61t52.5 19q59 0 59 -53q0 -7 -4 -31l-31 -146 q-11 -54 -34.5 -78t-73.5 -24h-584q-131 0 -131 76z" />
<glyph unicode="{" d="M293 408q0 33 14.5 50t46.5 25q16 4 43 10t41 9t35 11t31.5 17.5t24 26t19.5 38.5t10.5 54.5t4.5 73.5v63q0 86 7 145.5t27 111.5t55.5 82.5t92 47.5t136.5 17q34 0 54.5 -21.5t20.5 -58.5q0 -22 -5.5 -36t-19.5 -21.5t-23 -10.5t-32.5 -6t-31.5 -4q-71 -13 -92 -55.5 t-21 -138.5v-95q0 -153 -36 -228t-146 -107q109 -33 145.5 -109.5t36.5 -228.5v-95q0 -95 17 -133.5t83 -54.5q12 -3 33.5 -6t35 -5.5t28 -10t21.5 -22.5t7 -38q0 -80 -86 -80q-95 0 -156.5 24.5t-94 79t-44.5 123.5t-12 175v63q0 42 -4.5 74.5t-11 55.5t-21 39.5 t-26.5 26.5t-37 18t-43 12t-53 10q-41 7 -57.5 26t-16.5 56z" />
<glyph unicode="|" d="M532 -483v2048q2 21 25.5 35t58.5 14t58.5 -14t25.5 -35v-2048q-2 -21 -26 -36.5t-58 -15.5t-58 15.5t-26 36.5z" />
<glyph unicode="}" d="M293 -297q0 18 5 31.5t12 21t20.5 12.5t22.5 6.5t27.5 4t27.5 4.5q71 13 90.5 55t19.5 139v93q0 154 36.5 230t145.5 108q-110 33 -146 108.5t-36 226.5v97q0 95 -17 133.5t-83 54.5q-12 3 -33.5 6t-35 5.5t-28 10t-21.5 22.5t-7 38q0 78 88 78q77 0 131 -17t88 -47 t53 -81.5t26 -110.5t7 -144v-65q0 -69 9.5 -111.5t34 -67.5t55.5 -36t85 -19q48 -8 67 -24t19 -57q0 -63 -61 -78q-16 -4 -43 -9.5t-41 -9t-34.5 -11t-31.5 -16.5t-24.5 -25.5t-19.5 -38.5t-10.5 -54.5t-4.5 -73.5v-65q0 -109 -12 -177.5t-45 -122.5t-96.5 -78t-163.5 -24 q-33 0 -54.5 21t-21.5 57z" />
<glyph unicode="~" d="M133 586q0 54 86.5 108t192.5 54q69 0 207.5 -43t205.5 -43q50 0 96 18t79 36.5t51 18.5q49 0 49 -61q0 -54 -87.5 -108t-191.5 -54q-69 0 -207 43t-206 43q-50 0 -96.5 -18.5t-79.5 -37t-50 -18.5q-49 0 -49 62z" />
<glyph unicode="&#xa0;" />
<glyph unicode="&#xa1;" d="M393 35q0 6 15 67l161 623q11 43 29 61.5t57 18.5q60 0 60 -53q0 -15 -2 -23l-101 -627q-5 -34 -11 -54t-19 -40.5t-37 -29.5t-60 -9q-34 0 -63 21.5t-29 44.5zM516 1067q0 71 49.5 116.5t130.5 45.5q79 0 128.5 -45.5t49.5 -116.5t-48.5 -116.5t-129.5 -45.5 t-130.5 45.5t-49.5 116.5z" />
<glyph unicode="&#xa2;" d="M172 522q0 174 122 312t333 190l41 188q6 31 32 53.5t56 22.5q28 0 45.5 -13.5t17.5 -33.5q0 -9 -4 -29l-47 -192q79 -15 158 -55q42 20 65 20q27 0 41.5 -14.5t14.5 -38.5q0 -8 -3 -17l-38 -170q-7 -33 -26 -51t-46 -18q-25 0 -41.5 14t-22.5 29.5t-13 43t-11 38.5 q-35 90 -162 90q-137 0 -246.5 -104t-109.5 -234q0 -109 63 -172.5t176 -63.5q72 0 140 20.5t112.5 41t59.5 20.5q25 0 42 -13.5t17 -33.5q0 -60 -89.5 -100.5t-283.5 -71.5l-35 -137q-9 -34 -32.5 -55t-53.5 -21q-29 0 -47 13.5t-18 35.5q0 7 4 27l43 143q-132 52 -193 131 t-61 205z" />
<glyph unicode="&#xa3;" d="M88 27q0 29 28 44t73 31t69 39q46 45 79.5 154t45.5 270h-102q-31 0 -31 23q0 8 2 12l14 66q9 39 41 39h76q-4 58 -4 81q0 245 112 379.5t304 134.5q105 0 185.5 -30.5t80.5 -71.5v-8l-19 -94q-7 -35 -28 -55.5t-49 -20.5q-45 0 -45 43v43q0 43 -30 62.5t-93 19.5 q-131 0 -193.5 -92t-62.5 -281q0 -32 4 -110h342q13 0 20.5 -9.5t7.5 -23.5v-8l-12 -66q-5 -21 -12.5 -27t-28.5 -6h-317q-12 -214 -129 -397h28q36 0 119 -19.5t127 -19.5q46 0 84.5 14.5t61 29.5t28.5 15q9 0 18.5 -6.5t12.5 -15.5l14 -49v-4q0 -14 -17 -35t-47.5 -43 t-81.5 -37.5t-110 -15.5q-62 0 -165 23.5t-142 23.5q-49 0 -94.5 -16t-77.5 -32t-47 -16q-14 0 -26.5 18.5t-12.5 43.5z" />
<glyph unicode="&#xa4;" d="M123 459l190 188q-80 109 -80 238q0 126 80 235l-190 191l72 71l190 -190q104 82 238 82q130 0 237 -82l189 190l71 -71l-190 -191q80 -109 80 -235q0 -130 -80 -238l190 -188l-71 -72l-189 191q-107 -82 -237 -82q-134 0 -238 82l-190 -191zM336 885q0 -119 83.5 -203 t203.5 -84q119 0 203.5 84.5t84.5 202.5q0 120 -84 204.5t-204 84.5q-119 0 -203 -85t-84 -204z" />
<glyph unicode="&#xa5;" d="M88 545q0 22 25 37.5t65 15.5h311l-59 195h-242q-61 0 -61 45q0 24 24.5 39.5t65.5 15.5h180l-69 231h-66q-47 0 -47 54q0 45 22 64.5t70 19.5h287q61 0 61 -58q0 -37 -24.5 -58.5t-67.5 -21.5h-96l151 -518l359 518h-68q-61 0 -61 58q0 37 24.5 58.5t67.5 21.5h244 q61 0 61 -58q0 -34 -23 -57t-51 -23h-49l-168 -231h197q29 0 45 -12.5t16 -34.5q0 -53 -88 -53h-245l-144 -195h379q60 0 60 -45q0 -55 -89 -55h-426l-71 -361h196q62 0 62 -57q0 -37 -24.5 -58.5t-67.5 -21.5h-535q-59 0 -59 57q0 37 24 58.5t66 21.5h203l71 361h-374 q-29 0 -45.5 13t-16.5 34z" />
<glyph unicode="&#xa6;" d="M555 -352v760h121v-760h-121zM555 674v758h121v-758h-121z" />
<glyph unicode="&#xa7;" d="M104 -188q0 14 2 22l41 211q6 34 28.5 55t51.5 21q28 0 44 -16t16 -42q0 -10 -2 -16l-25 -127h232q174 0 174 115q0 89 -109 178l-264 213q-105 82 -105 207q0 90 47 149.5t150 104.5v8q0 129 89.5 211t215.5 82h369q45 0 45 -33q0 -2 -1 -6.5t-1 -7.5l-41 -215 q-6 -32 -29.5 -54t-52.5 -22q-28 0 -43.5 15.5t-15.5 41.5q0 11 2 17l24 127h-229q-176 0 -176 -115q0 -88 110 -178l258 -209q52 -42 79.5 -97.5t27.5 -113.5q0 -79 -46.5 -141t-142.5 -117q-9 -135 -93 -214t-210 -79h-368q-30 0 -41 4.5t-11 20.5zM332 672 q0 -34 20 -61.5t64 -65.5l254 -209q31 -27 127 -139q80 44 80 102q0 34 -20 61.5t-64 65.5l-254 209q-37 28 -117 137q-44 -12 -67 -38t-23 -62z" />
<glyph unicode="&#xa8;" d="M360 1192q0 48 36 83.5t85 35.5q50 0 85.5 -35t35.5 -84q0 -54 -34 -88.5t-87 -34.5q-51 0 -86 36t-35 87zM870 1192q0 48 36 83.5t85 35.5t84 -34.5t35 -84.5q0 -54 -33.5 -88.5t-85.5 -34.5q-51 0 -86 36t-35 87z" />
<glyph unicode="&#xa9;" d="M25 686q0 246 172 418q174 174 419 174q116 0 225.5 -44.5t192.5 -127.5q82 -82 128 -192.5t46 -227.5q0 -118 -45 -226t-131 -194q-171 -174 -416 -174q-176 0 -325 98q-127 85 -196.5 214.5t-69.5 281.5zM123 686q0 -96 39 -187.5t108 -160.5q145 -145 346 -145 q97 0 188.5 38t160.5 107q145 148 145 348q0 98 -38 189.5t-107 160.5q-147 144 -349 144q-97 0 -187.5 -38t-160.5 -108q-69 -71 -107 -162t-38 -186zM268 674q0 164 99.5 272.5t248.5 108.5q70 0 152 -31q14 23 53 23t49.5 -29.5t10.5 -116.5v-67q0 -36 -14 -52t-48 -16 q-8 0 -15 1t-12 2.5t-10 5.5t-8 6.5t-6 9.5t-4.5 10t-4.5 13t-3.5 13.5t-3.5 16.5t-4 18q-8 33 -45.5 56.5t-88.5 23.5q-95 0 -150.5 -69t-55.5 -193q0 -115 59 -183.5t151 -68.5q48 0 95 21.5t78 43t43 21.5q28 0 43.5 -15.5t15.5 -41.5q0 -46 -86.5 -99t-194.5 -53 q-146 0 -245 104.5t-99 264.5z" />
<glyph unicode="&#xaa;" d="M223 662q0 120 114.5 200t299.5 80q82 0 180 -29q14 52 14 84q0 57 -34 87t-99 30q-51 0 -104 -17t-93 -33.5t-59 -16.5q-23 0 -38 13t-15 32q0 49 96.5 90t223.5 41q122 0 184.5 -51.5t62.5 -143.5q0 -26 -6 -61l-86 -394h78q47 0 47 -45q0 -63 -69 -63h-101 q-44 0 -57.5 9t-13.5 44q0 28 12 80q-134 -149 -301 -149q-108 0 -172 58.5t-64 154.5zM352 674q0 -50 34.5 -78.5t98.5 -28.5q106 0 196 63t105 146l11 43q-83 25 -154 25q-135 0 -213 -48.5t-78 -121.5z" />
<glyph unicode="&#xab;" d="M291 459q0 39 22 71l187 275q21 31 53 31q24 0 40.5 -16t16.5 -38q0 -21 -10 -41l-162 -270l82 -287q4 -20 4 -28q0 -26 -17 -43t-42 -17q-19 0 -34 12t-21 31l-115 301q-4 16 -4 19zM621 459q0 39 22 71l186 275q21 31 54 31q25 0 42 -16t17 -38q0 -21 -10 -41 l-164 -270l82 -287q4 -20 4 -28q0 -26 -17 -43t-42 -17q-19 0 -34.5 12t-21.5 31l-114 301q-4 16 -4 19z" />
<glyph unicode="&#xac;" d="M100 838q0 31 22 51t56 20h897q58 0 58 -39v-440q0 -35 -21 -57.5t-55 -22.5q-31 0 -53.5 23.5t-22.5 56.5v334h-803q-35 0 -56.5 20.5t-21.5 53.5z" />
<glyph unicode="&#xad;" d="M193 401v7l24 102q12 49 49 49h791q23 0 36 -11.5t13 -25.5v-6l-25 -102q-12 -49 -49 -49h-790q-23 0 -36 11t-13 25z" />
<glyph unicode="&#xae;" d="M25 686q0 246 172 418q174 174 419 174q116 0 225.5 -44.5t192.5 -127.5q82 -82 128 -192.5t46 -227.5q0 -118 -45 -226t-131 -194q-171 -174 -416 -174q-176 0 -325 98q-127 85 -196.5 214.5t-69.5 281.5zM123 686q0 -96 39 -187.5t108 -160.5q145 -145 346 -145 q97 0 188.5 38t160.5 107q145 148 145 348q0 98 -38 189.5t-107 160.5q-147 144 -349 144q-97 0 -187.5 -38t-160.5 -108q-69 -71 -107 -162t-38 -186zM319 416q0 32 18.5 43.5t63.5 11.5h15v455h-15q-45 0 -63.5 10.5t-18.5 42.5q0 26 15 40.5t41 14.5h190q144 0 215.5 -49 t71.5 -154q0 -60 -33.5 -106t-91.5 -66q13 -12 25 -30l104 -158h8q70 0 70 -55q0 -26 -14.5 -41t-40.5 -15h-60q-24 0 -39 12t-32 40l-105 157q-30 45 -45 57.5t-47 12.5h-19v-168h19q76 0 76 -55q0 -30 -17.5 -43t-54.5 -13h-180q-26 0 -41 15t-15 41zM532 743h58 q133 0 133 93q0 47 -32 68.5t-99 21.5h-60v-183z" />
<glyph unicode="&#xaf;" d="M387 1159v2l12 56q6 32 33 32h621q12 0 22 -9.5t10 -20.5v-2l-12 -56q-6 -31 -33 -31h-620q-13 0 -23 9.5t-10 19.5z" />
<glyph unicode="&#xb0;" d="M295 1038q0 134 93 228t228 94t228.5 -94t93.5 -228q0 -135 -93.5 -228t-228.5 -93t-228 93t-93 228zM446 1038q0 -74 49 -124t121 -50t121 51t49 123t-49 123t-121 51t-121 -50t-49 -124z" />
<glyph unicode="&#xb1;" d="M215 166q0 30 23.5 51t56.5 21h641q36 0 58 -19.5t22 -52.5q0 -32 -22.5 -53t-57.5 -21h-641q-35 0 -57.5 21t-22.5 53zM215 815q0 31 24 52.5t56 21.5h246v299q0 35 20.5 57.5t54.5 22.5q33 0 53.5 -22t20.5 -58v-299h246q36 0 58 -20.5t22 -53.5q0 -32 -22.5 -53 t-57.5 -21h-246v-299q0 -35 -20 -56t-54 -21q-31 0 -53 22.5t-22 54.5v299h-246q-35 0 -57.5 21t-22.5 53z" />
<glyph unicode="&#xb2;" d="M299 582q0 16 4 31t17 31t22.5 26.5t35 30t39 29t50 34.5t53.5 37q112 78 158.5 128t46.5 115q0 57 -34 92t-91 35q-41 0 -83.5 -17.5t-75.5 -35.5t-52 -18q-27 0 -45 15t-18 36q0 50 88.5 96.5t199.5 46.5q120 0 194.5 -69.5t74.5 -175.5q0 -49 -20 -94t-44 -77.5 t-88 -81t-106.5 -76.5t-145.5 -93q-20 -13 -30 -19h327l6 35q4 32 24.5 52t47.5 20q29 0 49.5 -23t20.5 -57q0 -15 -2 -21l-13 -67q-4 -29 -27 -41t-65 -12h-440q-37 0 -57.5 24.5t-20.5 63.5z" />
<glyph unicode="&#xb3;" d="M289 590q0 25 20 45t47 20q17 0 52.5 -18.5t86 -36.5t105.5 -18q87 0 135.5 37.5t48.5 99.5q0 47 -37 79t-100 36q-11 1 -30.5 2t-28 1.5t-22 3t-19.5 6t-13 10t-9.5 16.5t-2.5 24q0 30 16.5 42.5t59.5 18.5q86 11 109 23q43 22 43 84q0 50 -36 79.5t-98 29.5 q-41 0 -84.5 -21t-77.5 -42t-53 -21q-26 0 -42.5 15.5t-16.5 39.5q0 47 92 99t203 52q115 0 188.5 -62t73.5 -147q0 -111 -111 -176q156 -75 156 -204q0 -107 -96 -178.5t-256 -71.5q-132 0 -217.5 42t-85.5 91z" />
<glyph unicode="&#xb4;" d="M496 1110l471 238q8 4 14 4q13 0 25 -9.5t18 -25.5l25 -64q4 -12 4 -18q0 -13 -8.5 -24.5t-20.5 -14.5l-508 -139z" />
<glyph unicode="&#xb5;" d="M68 -352q0 30 12 86l217 1052h-80q-61 0 -61 58q0 80 90 80h174q49 0 49 -31q0 -10 -2 -16l-117 -533q-14 -72 -14 -92q0 -133 160 -133q123 0 223 78t123 192l94 465q8 42 24 56t64 14q68 0 68 -54q0 -12 -2 -18l-154 -715h63q60 0 60 -57q0 -80 -90 -80h-158 q-49 0 -49 31q0 2 4 18l20 72q-156 -144 -337 -144q-106 0 -168 62l-60 -334q-11 -64 -27.5 -89.5t-52.5 -25.5q-39 0 -56 13.5t-17 44.5z" />
<glyph unicode="&#xb6;" d="M203 -102q0 42 26 60.5t84 18.5h183l114 545q-7 0 -21.5 -1t-21.5 -1q-162 0 -253 81.5t-91 223.5q0 215 159.5 326t475.5 111h338q34 0 47.5 -10.5t13.5 -39.5q0 -86 -92 -86h-73l-238 -1149h109q61 0 61 -51q0 -46 -24.5 -65t-75.5 -19h-162q-47 0 -64.5 9.5 t-17.5 46.5q0 49 55 79l238 1149h-117l-242 -1149q29 -19 29 -38q0 -61 -28 -79t-91 -18h-250q-40 0 -55.5 11t-15.5 45z" />
<glyph unicode="&#xb7;" d="M420 647q0 78 54 128t142 50q89 0 143 -49.5t54 -128.5t-54 -128.5t-143 -49.5q-88 0 -142 50t-54 128z" />
<glyph unicode="&#xb8;" d="M299 -348q0 43 45 43q14 0 46 -13.5t78.5 -27.5t96.5 -14q46 0 71.5 23t25.5 65q0 39 -27 60.5t-78 21.5q-17 0 -90 -15l68 205h69l-35 -113q58 7 72 7q79 0 128.5 -47t49.5 -123q0 -84 -60 -132.5t-169 -48.5q-108 0 -199.5 34.5t-91.5 74.5z" />
<glyph unicode="&#xb9;" d="M338 547q0 29 15.5 41t49.5 12h164v571l-137 -26q-8 -2 -24 -2q-26 0 -41 13t-15 36q0 21 12 32t39 17l246 51q10 2 27 2q39 0 39 -39v-655h168q34 0 48.5 -12t14.5 -41t-14.5 -41t-48.5 -12h-480q-34 0 -48.5 12t-14.5 41z" />
<glyph unicode="&#xba;" d="M203 770q0 188 135.5 319.5t331.5 131.5q165 0 262.5 -90t97.5 -240q0 -189 -135.5 -320t-333.5 -131q-163 0 -260.5 90.5t-97.5 239.5zM336 774q0 -106 62.5 -167.5t172.5 -61.5q138 0 232 100t94 242q0 104 -65 164.5t-173 60.5q-137 0 -230 -98.5t-93 -239.5z" />
<glyph unicode="&#xbb;" d="M266 156q0 21 10 41l164 268l-82 289q-4 20 -4 26q0 26 16.5 43t41.5 17q19 0 35 -11.5t22 -29.5l113 -301l2.5 -7.5t2.5 -8t1 -5.5q0 -33 -25 -69l-184 -277q-21 -31 -55 -31q-24 0 -41 17t-17 39zM596 156q0 17 12 41l162 268l-82 289q-4 20 -4 26q0 26 17 43t42 17 q19 0 34.5 -11t21.5 -30l114 -301q5 -20 5 -21q0 -36 -23 -69l-186 -277q-21 -31 -54 -31q-24 0 -41.5 17t-17.5 39z" />
<glyph unicode="&#xbc;" d="M123 371q0 34 37 53l856 434q16 8 35 8q23 0 38 -15.5t15 -37.5q0 -36 -37 -55l-858 -434q-15 -9 -33 -9q-23 0 -38 17t-15 39zM133 729q0 35 27.5 46t93.5 11h68v480l-76 -4h-6q-37 0 -59.5 16.5t-22.5 40.5q0 57 80 63l143 11h12q34 0 49 -18t15 -56v-533h57 q68 0 94.5 -10t26.5 -47q0 -26 -19 -41.5t-53 -15.5h-358q-34 0 -53 15.5t-19 41.5zM463 39q0 24 1.5 37.5t10 35t25.5 42.5l282 350q27 35 49 35q13 0 33 -4l58 -17q19 -4 25.5 -19t6.5 -44v-375h76q31 0 40 -11t9 -44q0 -35 -8.5 -47.5t-40.5 -12.5h-76v-104 q0 -30 -16 -40.5t-53 -10.5q-30 0 -43 11t-13 40v104h-303q-35 0 -49 17.5t-14 56.5zM582 80h258v336z" />
<glyph unicode="&#xbd;" d="M123 371q0 34 37 53l856 434q16 8 35 8q23 0 38 -15.5t15 -37.5q0 -36 -37 -55l-858 -434q-15 -9 -33 -9q-23 0 -38 17t-15 39zM133 729q0 35 27.5 46t93.5 11h68v480l-76 -4h-6q-37 0 -59.5 16.5t-22.5 40.5q0 57 80 63l143 11h12q34 0 49 -18t15 -56v-533h57 q68 0 94.5 -10t26.5 -47q0 -26 -19 -41.5t-53 -15.5h-358q-34 0 -53 15.5t-19 41.5zM584 -100q0 12 3.5 24t7 21t14 21t17 19t22.5 20.5t25 20.5t30.5 23.5t31.5 24.5q105 79 150 128t45 103t-30 85.5t-81 31.5q-43 0 -101.5 -32t-78.5 -32q-25 0 -39 16t-14 42 q0 38 80.5 81.5t175.5 43.5q98 0 162.5 -65.5t64.5 -160.5q0 -101 -80.5 -185.5t-257.5 -188.5h275q73 0 73 -62q0 -28 -19 -44.5t-50 -16.5h-355q-33 0 -52 22.5t-19 59.5z" />
<glyph unicode="&#xbe;" d="M123 371q0 34 37 53l856 434q16 8 35 8q23 0 38 -15.5t15 -37.5q0 -36 -37 -55l-858 -434q-15 -9 -33 -9q-23 0 -38 17t-15 39zM135 750q0 26 20 43.5t48 17.5q21 0 81.5 -22.5t100.5 -22.5q60 0 99.5 34.5t39.5 82.5q0 44 -33 75t-79 31h-13q-34 0 -47.5 11.5 t-13.5 39.5q0 27 14 38t51 16q101 9 101 90q0 40 -32 69t-75 29q-42 0 -94.5 -24.5t-69.5 -24.5q-23 0 -39 16.5t-16 38.5q0 34 71 69.5t163 35.5q100 0 165.5 -55.5t65.5 -131.5q0 -103 -106 -155q133 -59 133 -181q0 -96 -78.5 -159.5t-206.5 -63.5q-103 0 -176.5 32.5 t-73.5 70.5zM463 39q0 24 1.5 37.5t10 35t25.5 42.5l280 350q27 35 51 35q11 0 31 -4l60 -17q19 -4 25.5 -19t6.5 -44v-375h76q31 0 40 -11t9 -44q0 -35 -8.5 -47.5t-40.5 -12.5h-76v-104q0 -30 -16 -40.5t-53 -10.5q-30 0 -44 11.5t-14 39.5v104h-303q-34 0 -47.5 17.5 t-13.5 56.5zM580 80h258v336z" />
<glyph unicode="&#xbf;" d="M231 242q0 138 101.5 231.5t318.5 167.5l17 76q15 74 86 74q67 0 67 -52q0 -12 -2 -18l-12 -68q-7 -39 -33 -69.5t-61 -46.5l-144 -62q-178 -76 -178 -219q0 -70 45 -111t127 -41q83 0 138 21t65 49l10 33q21 61 74 61q28 0 43.5 -15.5t15.5 -41.5q0 -13 -2 -21l-20 -96 q-11 -54 -110.5 -91.5t-246.5 -37.5q-141 0 -220 74t-79 203zM608 1057q0 71 49.5 116.5t130.5 45.5q79 0 129 -45.5t50 -116.5t-49 -116.5t-130 -45.5t-130.5 45.5t-49.5 116.5z" />
<glyph unicode="&#xc0;" d="M-104 57q0 80 90 80h47l516 912h-168q-62 0 -62 55q0 40 24.5 61t68.5 21h352q47 0 66 -19.5t28 -76.5l166 -953h51q62 0 62 -55q0 -38 -24.5 -60t-68.5 -22h-339q-60 0 -60 57q0 80 90 80h133l-34 234h-517l-127 -234h129q62 0 62 -55q0 -39 -23 -60.5t-67 -21.5h-336 q-59 0 -59 57zM369 1503q0 7 4 19l24 63q15 37 43 37q7 0 15 -4l471 -238l-21 -55l-508 139q-12 3 -20 14t-8 25zM391 504h418l-100 583z" />
<glyph unicode="&#xc1;" d="M-104 57q0 80 90 80h47l516 912h-168q-62 0 -62 55q0 40 24.5 61t68.5 21h352q47 0 66 -19.5t28 -76.5l166 -953h51q62 0 62 -55q0 -38 -24.5 -60t-68.5 -22h-339q-60 0 -60 57q0 80 90 80h133l-34 234h-517l-127 -234h129q62 0 62 -55q0 -39 -23 -60.5t-67 -21.5h-336 q-59 0 -59 57zM391 504h418l-100 583zM469 1380l471 238q8 4 14 4q13 0 25 -9.5t18 -25.5l25 -63q4 -12 4 -19q0 -13 -8.5 -24.5t-20.5 -14.5l-508 -139z" />
<glyph unicode="&#xc2;" d="M-104 57q0 80 90 80h47l516 912h-168q-62 0 -62 55q0 40 24.5 61t68.5 21h352q47 0 66 -19.5t28 -76.5l166 -953h51q62 0 62 -55q0 -38 -24.5 -60t-68.5 -22h-339q-60 0 -60 57q0 80 90 80h133l-34 234h-517l-127 -234h129q62 0 62 -55q0 -39 -23 -60.5t-67 -21.5h-336 q-59 0 -59 57zM356 1352q0 16 13 26l270 217q24 21 72 21q45 0 63 -21l187 -227q8 -12 8 -20q0 -14 -12 -25.5t-27 -11.5q-12 0 -23 8l-209 162l-286 -162q-6 -4 -19 -4q-14 0 -25.5 10.5t-11.5 26.5zM391 504h418l-100 583z" />
<glyph unicode="&#xc3;" d="M-104 57q0 80 90 80h47l516 912h-168q-62 0 -62 55q0 40 24.5 61t68.5 21h352q47 0 66 -19.5t28 -76.5l166 -953h51q62 0 62 -55q0 -38 -24.5 -60t-68.5 -22h-339q-60 0 -60 57q0 80 90 80h133l-34 234h-517l-127 -234h129q62 0 62 -55q0 -39 -23 -60.5t-67 -21.5h-336 q-59 0 -59 57zM346 1409q0 46 65 100t158 54q61 0 127 -17l109 -28q63 -17 90 -17q35 0 60.5 18t43.5 36t35 18q35 0 35 -37q0 -46 -63.5 -101t-157.5 -55q-61 0 -127 17l-109 30q-52 15 -90 15q-35 0 -61 -17.5t-44.5 -35t-35.5 -17.5q-35 0 -35 37zM391 504h418l-100 583z " />
<glyph unicode="&#xc4;" d="M-104 57q0 80 90 80h47l516 912h-168q-62 0 -62 55q0 40 24.5 61t68.5 21h352q47 0 66 -19.5t28 -76.5l166 -953h51q62 0 62 -55q0 -38 -24.5 -60t-68.5 -22h-339q-60 0 -60 57q0 80 90 80h133l-34 234h-517l-127 -234h129q62 0 62 -55q0 -39 -23 -60.5t-67 -21.5h-336 q-59 0 -59 57zM334 1462q0 48 36 83.5t85 35.5q50 0 85 -35t35 -84q0 -54 -33.5 -88.5t-86.5 -34.5q-51 0 -86 36t-35 87zM391 504h418l-100 583zM844 1462q0 48 36 83.5t85 35.5t83.5 -34.5t34.5 -84.5q0 -54 -33 -88.5t-85 -34.5q-51 0 -86 36t-35 87z" />
<glyph unicode="&#xc5;" d="M-104 57q0 80 90 80h47l516 912h-168q-62 0 -62 55q0 40 24.5 61t68.5 21h352q47 0 66 -19.5t28 -76.5l166 -953h51q62 0 62 -55q0 -38 -24.5 -60t-68.5 -22h-339q-60 0 -60 57q0 80 90 80h133l-34 234h-517l-127 -234h129q62 0 62 -55q0 -39 -23 -60.5t-67 -21.5h-336 q-59 0 -59 57zM391 504h418l-100 583zM414 1505q0 105 73.5 178.5t178.5 73.5q106 0 180 -73t74 -179t-74 -180t-180 -74t-179 74t-73 180zM530 1503q0 -57 39.5 -95t96.5 -38q56 0 95.5 38.5t39.5 94.5q0 55 -39.5 95t-95.5 40q-57 0 -96.5 -39.5t-39.5 -95.5z" />
<glyph unicode="&#xc6;" d="M-186 57q0 80 90 80h51l496 922h-84q-62 0 -62 55q0 72 86 72h766q41 0 64.5 -18.5t23.5 -49.5q0 -19 -4 -35l-51 -213q-14 -57 -29.5 -75.5t-52.5 -18.5q-61 0 -61 55q0 27 6 54l37 174h-324l-70 -354h138l18 67q7 31 12.5 45.5t20 25.5t37.5 11q53 0 53 -47 q0 -13 -10 -68l-43 -219q-10 -52 -21.5 -69t-48.5 -17q-26 0 -40.5 10.5t-14.5 28.5q0 19 4 35l12 76h-145l-90 -447h319l43 187q12 50 30 72t50 22q61 0 61 -60q0 -21 -6 -51l-47 -221q-10 -48 -31.5 -67t-83.5 -19h-553q-59 0 -59 57q0 80 90 80h47l51 252h-251l-127 -252 h61q33 0 47 -12t14 -41q0 -38 -24.5 -61t-67.5 -23h-268q-59 0 -59 57zM291 494h219l117 565h-54z" />
<glyph unicode="&#xc7;" d="M78 438q0 143 51 286t141 253q200 244 502 244q133 0 279 -70q20 31 34.5 41t44.5 10q29 0 44.5 -12t15.5 -33q0 -6 -3.5 -39t-16 -109.5t-29.5 -158.5q-9 -44 -26.5 -63t-51.5 -19q-16 0 -27.5 2.5t-19.5 5.5t-13.5 11.5t-9 14.5t-6 21t-3 25t-2.5 33t-3 37 q-9 87 -61 127t-156 40q-114 0 -203 -48t-162 -150q-143 -198 -143 -447q0 -155 81.5 -244.5t213.5 -89.5q123 0 256 68q32 16 69 40.5t60 38t39 13.5q22 0 37.5 -15.5t15.5 -39.5q0 -30 -23.5 -58t-74.5 -63q-174 -121 -398 -121q-204 0 -328 127t-124 342zM270 -348 q0 43 45 43q14 0 46 -13.5t79 -27.5t97 -14q46 0 71 22.5t25 65.5q0 39 -27 60.5t-78 21.5q-17 0 -90 -15l68 205h69l-34 -113q58 7 71 7q79 0 129 -47t50 -123q0 -84 -60.5 -132.5t-169.5 -48.5q-108 0 -199.5 34.5t-91.5 74.5z" />
<glyph unicode="&#xc8;" d="M-23 57q0 38 24.5 59t68.5 21h106l186 912h-108q-61 0 -61 55q0 39 24 60.5t68 21.5h827q41 0 64.5 -18.5t23.5 -49.5q0 -19 -4 -35l-51 -213q-13 -57 -30 -75.5t-54 -18.5q-62 0 -62 55q0 2 9 54l36 164h-526l-72 -347h256l19 70q7 30 12.5 44.5t20 26t37.5 11.5 q53 0 53 -47q0 -13 -10 -68l-43 -219q-10 -52 -21.5 -69t-48.5 -17q-26 0 -40.5 10.5t-14.5 28.5q0 19 4 35l12 76h-260l-92 -447h514l45 187q12 51 29.5 72.5t48.5 21.5q63 0 63 -60q0 -21 -6 -51l-49 -221q-10 -48 -31.5 -67t-83.5 -19h-821q-62 0 -62 57zM440 1503 q0 7 4 19l25 63q15 37 43 37q6 0 14 -4l471 -238l-20 -55l-508 139q-12 3 -20.5 14.5t-8.5 24.5z" />
<glyph unicode="&#xc9;" d="M-23 57q0 38 24.5 59t68.5 21h106l186 912h-108q-61 0 -61 55q0 39 24 60.5t68 21.5h827q41 0 64.5 -18.5t23.5 -49.5q0 -19 -4 -35l-51 -213q-13 -57 -30 -75.5t-54 -18.5q-62 0 -62 55q0 2 9 54l36 164h-526l-72 -347h256l19 70q7 30 12.5 44.5t20 26t37.5 11.5 q53 0 53 -47q0 -13 -10 -68l-43 -219q-10 -52 -21.5 -69t-48.5 -17q-26 0 -40.5 10.5t-14.5 28.5q0 19 4 35l12 76h-260l-92 -447h514l45 187q12 51 29.5 72.5t48.5 21.5q63 0 63 -60q0 -21 -6 -51l-49 -221q-10 -48 -31.5 -67t-83.5 -19h-821q-62 0 -62 57zM541 1380 l471 238q8 4 14 4q13 0 25 -9.5t18 -25.5l25 -63q4 -12 4 -19q0 -13 -8.5 -24.5t-20.5 -14.5l-508 -139z" />
<glyph unicode="&#xca;" d="M-23 57q0 38 24.5 59t68.5 21h106l186 912h-108q-61 0 -61 55q0 39 24 60.5t68 21.5h827q41 0 64.5 -18.5t23.5 -49.5q0 -19 -4 -35l-51 -213q-13 -57 -30 -75.5t-54 -18.5q-62 0 -62 55q0 2 9 54l36 164h-526l-72 -347h256l19 70q7 30 12.5 44.5t20 26t37.5 11.5 q53 0 53 -47q0 -13 -10 -68l-43 -219q-10 -52 -21.5 -69t-48.5 -17q-26 0 -40.5 10.5t-14.5 28.5q0 19 4 35l12 76h-260l-92 -447h514l45 187q12 51 29.5 72.5t48.5 21.5q63 0 63 -60q0 -21 -6 -51l-49 -221q-10 -48 -31.5 -67t-83.5 -19h-821q-62 0 -62 57zM428 1352 q0 17 12 26l271 217q24 21 71 21q46 0 64 -21l186 -227q8 -12 8 -20q0 -14 -12 -25.5t-27 -11.5q-11 0 -22 8l-209 162l-287 -162q-6 -4 -18 -4q-14 0 -25.5 10.5t-11.5 26.5z" />
<glyph unicode="&#xcb;" d="M-23 57q0 38 24.5 59t68.5 21h106l186 912h-108q-61 0 -61 55q0 39 24 60.5t68 21.5h827q41 0 64.5 -18.5t23.5 -49.5q0 -19 -4 -35l-51 -213q-13 -57 -30 -75.5t-54 -18.5q-62 0 -62 55q0 2 9 54l36 164h-526l-72 -347h256l19 70q7 30 12.5 44.5t20 26t37.5 11.5 q53 0 53 -47q0 -13 -10 -68l-43 -219q-10 -52 -21.5 -69t-48.5 -17q-26 0 -40.5 10.5t-14.5 28.5q0 19 4 35l12 76h-260l-92 -447h514l45 187q12 51 29.5 72.5t48.5 21.5q63 0 63 -60q0 -21 -6 -51l-49 -221q-10 -48 -31.5 -67t-83.5 -19h-821q-62 0 -62 57zM406 1462 q0 48 35.5 83.5t84.5 35.5q50 0 85.5 -35t35.5 -84q0 -54 -34 -88.5t-87 -34.5q-51 0 -85.5 36t-34.5 87zM915 1462q0 48 36 83.5t85 35.5q50 0 84.5 -34.5t34.5 -84.5q0 -54 -33.5 -88.5t-85.5 -34.5q-51 0 -86 36t-35 87z" />
<glyph unicode="&#xcc;" d="M92 57q0 80 90 80h254l197 912h-264q-62 0 -62 55q0 39 24 60.5t68 21.5h678q29 0 45.5 -15t16.5 -43q0 -38 -24 -58.5t-68 -20.5h-261l-194 -912h268q62 0 62 -55q0 -39 -23.5 -60.5t-67.5 -21.5h-677q-62 0 -62 57zM440 1503q0 7 4 19l25 63q15 37 43 37q6 0 14 -4 l471 -238l-20 -55l-508 139q-12 3 -20.5 14.5t-8.5 24.5z" />
<glyph unicode="&#xcd;" d="M92 57q0 80 90 80h254l197 912h-264q-62 0 -62 55q0 39 24 60.5t68 21.5h678q29 0 45.5 -15t16.5 -43q0 -38 -24 -58.5t-68 -20.5h-261l-194 -912h268q62 0 62 -55q0 -39 -23.5 -60.5t-67.5 -21.5h-677q-62 0 -62 57zM541 1380l471 238q8 4 14 4q13 0 25 -9.5t18 -25.5 l25 -63q4 -12 4 -19q0 -13 -8.5 -24.5t-20.5 -14.5l-508 -139z" />
<glyph unicode="&#xce;" d="M92 57q0 80 90 80h254l197 912h-264q-62 0 -62 55q0 39 24 60.5t68 21.5h678q29 0 45.5 -15t16.5 -43q0 -38 -24 -58.5t-68 -20.5h-261l-194 -912h268q62 0 62 -55q0 -39 -23.5 -60.5t-67.5 -21.5h-677q-62 0 -62 57zM428 1352q0 17 12 26l271 217q24 21 71 21 q46 0 64 -21l186 -227q8 -12 8 -20q0 -14 -12 -25.5t-27 -11.5q-11 0 -22 8l-209 162l-287 -162q-6 -4 -18 -4q-14 0 -25.5 10.5t-11.5 26.5z" />
<glyph unicode="&#xcf;" d="M92 57q0 80 90 80h254l197 912h-264q-62 0 -62 55q0 39 24 60.5t68 21.5h678q29 0 45.5 -15t16.5 -43q0 -38 -24 -58.5t-68 -20.5h-261l-194 -912h268q62 0 62 -55q0 -39 -23.5 -60.5t-67.5 -21.5h-677q-62 0 -62 57zM406 1462q0 48 35.5 83.5t84.5 35.5q50 0 85.5 -35 t35.5 -84q0 -54 -34 -88.5t-87 -34.5q-51 0 -85.5 36t-34.5 87zM915 1462q0 48 36 83.5t85 35.5q50 0 84.5 -34.5t34.5 -84.5q0 -54 -33.5 -88.5t-85.5 -34.5q-51 0 -86 36t-35 87z" />
<glyph unicode="&#xd0;" d="M-20 53q0 84 90 84h57l90 426h-96q-60 0 -60 53q0 34 24.5 54t66.5 20h94l76 359h-64q-61 0 -61 55q0 82 90 82h348q278 0 412.5 -106.5t134.5 -336.5q0 -145 -49 -285.5t-129 -236.5q-102 -121 -246 -171t-369 -50h-350q-59 0 -59 53zM283 137h170q256 0 404.5 165 t148.5 433q0 173 -87.5 243.5t-285.5 70.5h-156l-78 -359h285q61 0 61 -55q0 -33 -25 -52.5t-67 -19.5h-282z" />
<glyph unicode="&#xd1;" d="M-2 57q0 38 24 59t68 21h47l189 912h-84q-60 0 -60 55q0 39 23 60.5t67 21.5h162q56 0 74 -10.5t33 -55.5l305 -913l166 842h-119q-62 0 -62 55q0 38 24.5 60t68.5 22h311q61 0 61 -58q0 -38 -24 -58.5t-68 -20.5h-49l-203 -967q-7 -36 -11 -50.5t-14.5 -28t-26 -16.5 t-44.5 -3q-45 0 -62 15.5t-42 88.5l-303 895l-168 -846h129q61 0 61 -55q0 -39 -24 -60.5t-68 -21.5h-320q-61 0 -61 57zM430 1409q0 46 65 100t158 54q61 0 127 -17l109 -28q63 -17 90 -17q35 0 60.5 18t43.5 36t35 18q35 0 35 -37q0 -46 -63.5 -101t-157.5 -55 q-61 0 -127 17l-109 30q-52 15 -90 15q-35 0 -61 -17.5t-44.5 -35t-35.5 -17.5q-35 0 -35 37z" />
<glyph unicode="&#xd2;" d="M45 446q0 132 44 264.5t128 245.5q94 129 222.5 197t279.5 68q216 0 342.5 -128.5t126.5 -351.5q0 -273 -174 -510q-94 -127 -221 -193.5t-277 -66.5q-220 0 -345.5 126.5t-125.5 348.5zM219 449q0 -163 82 -255t227 -92q198 0 346 209q142 197 142 434q0 162 -83 253.5 t-226 91.5q-201 0 -349 -207q-139 -194 -139 -434zM440 1503q0 7 4 19l25 63q15 37 43 37q6 0 14 -4l471 -238l-20 -55l-508 139q-12 3 -20.5 14.5t-8.5 24.5z" />
<glyph unicode="&#xd3;" d="M45 446q0 132 44 264.5t128 245.5q94 129 222.5 197t279.5 68q216 0 342.5 -128.5t126.5 -351.5q0 -273 -174 -510q-94 -127 -221 -193.5t-277 -66.5q-220 0 -345.5 126.5t-125.5 348.5zM219 449q0 -163 82 -255t227 -92q198 0 346 209q142 197 142 434q0 162 -83 253.5 t-226 91.5q-201 0 -349 -207q-139 -194 -139 -434zM541 1380l471 238q8 4 14 4q13 0 25 -9.5t18 -25.5l25 -63q4 -12 4 -19q0 -13 -8.5 -24.5t-20.5 -14.5l-508 -139z" />
<glyph unicode="&#xd4;" d="M45 446q0 132 44 264.5t128 245.5q94 129 222.5 197t279.5 68q216 0 342.5 -128.5t126.5 -351.5q0 -273 -174 -510q-94 -127 -221 -193.5t-277 -66.5q-220 0 -345.5 126.5t-125.5 348.5zM219 449q0 -163 82 -255t227 -92q198 0 346 209q142 197 142 434q0 162 -83 253.5 t-226 91.5q-201 0 -349 -207q-139 -194 -139 -434zM428 1352q0 17 12 26l271 217q24 21 71 21q46 0 64 -21l186 -227q8 -12 8 -20q0 -14 -12 -25.5t-27 -11.5q-11 0 -22 8l-209 162l-287 -162q-6 -4 -18 -4q-14 0 -25.5 10.5t-11.5 26.5z" />
<glyph unicode="&#xd5;" d="M45 446q0 132 44 264.5t128 245.5q94 129 222.5 197t279.5 68q216 0 342.5 -128.5t126.5 -351.5q0 -273 -174 -510q-94 -127 -221 -193.5t-277 -66.5q-220 0 -345.5 126.5t-125.5 348.5zM219 449q0 -163 82 -255t227 -92q198 0 346 209q142 197 142 434q0 162 -83 253.5 t-226 91.5q-201 0 -349 -207q-139 -194 -139 -434zM418 1409q0 46 65 100t158 54q61 0 127 -17l109 -28q63 -17 90 -17q35 0 60.5 18t43.5 36t35 18q35 0 35 -37q0 -46 -63.5 -101t-157.5 -55q-61 0 -127 17l-109 30q-52 15 -90 15q-35 0 -61 -17.5t-44.5 -35t-35.5 -17.5 q-35 0 -35 37z" />
<glyph unicode="&#xd6;" d="M45 446q0 132 44 264.5t128 245.5q94 129 222.5 197t279.5 68q216 0 342.5 -128.5t126.5 -351.5q0 -273 -174 -510q-94 -127 -221 -193.5t-277 -66.5q-220 0 -345.5 126.5t-125.5 348.5zM219 449q0 -163 82 -255t227 -92q198 0 346 209q142 197 142 434q0 162 -83 253.5 t-226 91.5q-201 0 -349 -207q-139 -194 -139 -434zM406 1462q0 48 35.5 83.5t84.5 35.5q50 0 85.5 -35t35.5 -84q0 -54 -34 -88.5t-87 -34.5q-51 0 -85.5 36t-34.5 87zM915 1462q0 48 36 83.5t85 35.5q50 0 84.5 -34.5t34.5 -84.5q0 -54 -33.5 -88.5t-85.5 -34.5 q-51 0 -86 36t-35 87z" />
<glyph unicode="&#xd7;" d="M217 975q0 28 22.5 50t51.5 22q30 0 57 -27l266 -266l256 256q26 26 56 26q31 0 52 -21t21 -52q0 -30 -26 -56l-256 -256l264 -266q27 -27 27 -55q0 -31 -20.5 -52.5t-51.5 -21.5q-34 0 -59 25l-265 264l-256 -254q-27 -27 -57 -27q-31 0 -50.5 19.5t-19.5 50.5 q0 34 25 59l254 256l-264 266q-27 27 -27 60z" />
<glyph unicode="&#xd8;" d="M-51 -4q0 32 31 63l124 125q-59 105 -59 258q0 280 172 514q94 128 221 195.5t273 67.5q205 0 327 -107l105 102q37 37 59 37t37.5 -15.5t15.5 -37.5q0 -33 -30 -63l-111 -109q74 -115 74 -281q0 -274 -174 -514q-94 -128 -221 -195t-275 -67q-215 0 -342 121l-115 -110 q-37 -37 -57 -37q-22 0 -38.5 15.5t-16.5 37.5zM223 436q0 -65 15 -119l686 680q-83 86 -217 86q-127 0 -238 -83t-178.5 -232.5t-67.5 -331.5zM295 211q87 -100 235 -100q202 0 344 198q66 92 102 204t36 216q0 91 -25 170z" />
<glyph unicode="&#xd9;" d="M170 309q0 67 18 166l115 574h-49q-61 0 -61 57q0 80 92 80h295q59 0 59 -56q0 -39 -23 -60t-67 -21h-90l-121 -598q-16 -79 -16 -134q0 -104 57 -158.5t166 -54.5q148 0 225 85t115 274l116 586h-100q-61 0 -61 57q0 80 90 80h295q59 0 59 -56q0 -35 -21.5 -58 t-52.5 -23h-61l-135 -652q-88 -428 -490 -428q-170 0 -262 88.5t-92 251.5zM449 1503q0 7 4 19l24 63q15 37 43 37q7 0 15 -4l471 -238l-21 -55l-508 139q-12 3 -20 14t-8 25z" />
<glyph unicode="&#xda;" d="M170 309q0 67 18 166l115 574h-49q-61 0 -61 57q0 80 92 80h295q59 0 59 -56q0 -39 -23 -60t-67 -21h-90l-121 -598q-16 -79 -16 -134q0 -104 57 -158.5t166 -54.5q148 0 225 85t115 274l116 586h-100q-61 0 -61 57q0 80 90 80h295q59 0 59 -56q0 -35 -21.5 -58 t-52.5 -23h-61l-135 -652q-88 -428 -490 -428q-170 0 -262 88.5t-92 251.5zM549 1380l471 238q8 4 14 4q13 0 25 -9.5t18 -25.5l25 -63q4 -12 4 -19q0 -13 -8.5 -24.5t-20.5 -14.5l-508 -139z" />
<glyph unicode="&#xdb;" d="M170 309q0 67 18 166l115 574h-49q-61 0 -61 57q0 80 92 80h295q59 0 59 -56q0 -39 -23 -60t-67 -21h-90l-121 -598q-16 -79 -16 -134q0 -104 57 -158.5t166 -54.5q148 0 225 85t115 274l116 586h-100q-61 0 -61 57q0 80 90 80h295q59 0 59 -56q0 -35 -21.5 -58 t-52.5 -23h-61l-135 -652q-88 -428 -490 -428q-170 0 -262 88.5t-92 251.5zM436 1352q0 16 13 26l270 217q24 21 72 21q45 0 63 -21l186 -227q9 -14 9 -20q0 -14 -12 -25.5t-27 -11.5q-12 0 -23 8l-209 162l-286 -162q-6 -4 -19 -4q-14 0 -25.5 10.5t-11.5 26.5z" />
<glyph unicode="&#xdc;" d="M170 309q0 67 18 166l115 574h-49q-61 0 -61 57q0 80 92 80h295q59 0 59 -56q0 -39 -23 -60t-67 -21h-90l-121 -598q-16 -79 -16 -134q0 -104 57 -158.5t166 -54.5q148 0 225 85t115 274l116 586h-100q-61 0 -61 57q0 80 90 80h295q59 0 59 -56q0 -35 -21.5 -58 t-52.5 -23h-61l-135 -652q-88 -428 -490 -428q-170 0 -262 88.5t-92 251.5zM414 1462q0 48 36 83.5t85 35.5q50 0 85 -35t35 -84q0 -54 -33.5 -88.5t-86.5 -34.5q-51 0 -86 36t-35 87zM924 1462q0 48 35.5 83.5t84.5 35.5q50 0 84.5 -34.5t34.5 -84.5q0 -54 -33.5 -88.5 t-85.5 -34.5q-51 0 -85.5 36t-34.5 87z" />
<glyph unicode="&#xdd;" d="M176 57q0 38 24 59t68 21h193l69 328l-194 584h-68q-47 0 -47 51q0 47 22 66.5t72 19.5h295q29 0 45.5 -15t16.5 -43q0 -38 -24 -58.5t-68 -20.5h-84l147 -439l338 439h-55q-60 0 -60 55q0 39 23 60.5t67 21.5h254q62 0 62 -58q0 -34 -22 -56.5t-52 -22.5h-51l-463 -586 l-70 -326h187q61 0 61 -55q0 -39 -23 -60.5t-67 -21.5h-534q-62 0 -62 57zM541 1380l471 238q8 4 14 4q13 0 25 -9.5t18 -25.5l25 -63q4 -12 4 -19q0 -13 -8.5 -24.5t-20.5 -14.5l-508 -139z" />
<glyph unicode="&#xde;" d="M10 55q0 40 24 61t68 21h121l195 912h-131q-60 0 -60 55q0 39 23 60.5t67 21.5h383q62 0 62 -58q0 -38 -24 -58.5t-68 -20.5h-97l-26 -121h92q86 0 147 -6t115.5 -23.5t87.5 -48t51.5 -79.5t18.5 -118q0 -190 -130 -291.5t-388 -101.5h-135l-27 -123h217q61 0 61 -57 q0 -38 -24 -59t-68 -21h-493q-62 0 -62 55zM430 375h94q182 0 271.5 66t89.5 206q0 83 -51 119.5t-156 36.5h-158z" />
<glyph unicode="&#xdf;" d="M-39 55q0 82 88 82h125l174 819q26 121 69 195t125 115t208 41q164 0 264 -74.5t100 -192.5q0 -102 -71.5 -178.5t-190.5 -93.5q252 -38 252 -317q0 -211 -131.5 -343.5t-343.5 -132.5q-93 0 -132.5 15.5t-39.5 54.5q0 31 21 49.5t59 18.5q8 0 43 -2t63 -2 q132 0 213.5 96.5t81.5 245.5q0 93 -43 152.5t-117 74.5q-20 4 -47.5 5.5t-45 2t-34.5 5t-25 17.5t-8 35q0 30 16 44.5t36 16.5t56.5 4.5t59.5 8.5q75 19 119.5 73t44.5 126q0 76 -52.5 119t-149.5 43q-107 0 -164.5 -51t-81.5 -160l-191 -899q-7 -36 -28.5 -52t-61.5 -16 h-201q-59 0 -59 55z" />
<glyph unicode="&#xe0;" d="M111 248q0 148 144.5 249t375.5 101q106 0 225 -35q16 65 16 105q0 145 -165 145q-65 0 -131 -21t-115.5 -42t-73.5 -21q-29 0 -47 16t-18 41q0 40 53 77t147 61t203 24q149 0 227 -64t78 -175q0 -42 -8 -78l-107 -494h97q59 0 59 -57q0 -80 -86 -80h-125q-54 0 -73 12 t-19 56q0 26 16 98q-166 -184 -376 -184q-134 0 -215.5 73.5t-81.5 192.5zM272 262q0 -63 43.5 -99t124.5 -36q131 0 245 79t134 183l10 55q-109 33 -192 33q-169 0 -267 -62t-98 -153zM414 1233q0 6 4 18l24 64q15 37 43 37q7 0 15 -4l471 -238l-21 -55l-508 139 q-12 3 -20 14t-8 25z" />
<glyph unicode="&#xe1;" d="M111 248q0 148 144.5 249t375.5 101q106 0 225 -35q16 65 16 105q0 145 -165 145q-65 0 -131 -21t-115.5 -42t-73.5 -21q-29 0 -47 16t-18 41q0 40 53 77t147 61t203 24q149 0 227 -64t78 -175q0 -42 -8 -78l-107 -494h97q59 0 59 -57q0 -80 -86 -80h-125q-54 0 -73 12 t-19 56q0 26 16 98q-166 -184 -376 -184q-134 0 -215.5 73.5t-81.5 192.5zM272 262q0 -63 43.5 -99t124.5 -36q131 0 245 79t134 183l10 55q-109 33 -192 33q-169 0 -267 -62t-98 -153zM514 1110l471 238q8 4 14 4q13 0 25 -9.5t18 -25.5l25 -64q4 -12 4 -18 q0 -13 -8.5 -24.5t-20.5 -14.5l-507 -139z" />
<glyph unicode="&#xe2;" d="M111 248q0 148 144.5 249t375.5 101q106 0 225 -35q16 65 16 105q0 145 -165 145q-65 0 -131 -21t-115.5 -42t-73.5 -21q-29 0 -47 16t-18 41q0 40 53 77t147 61t203 24q149 0 227 -64t78 -175q0 -42 -8 -78l-107 -494h97q59 0 59 -57q0 -80 -86 -80h-125q-54 0 -73 12 t-19 56q0 26 16 98q-166 -184 -376 -184q-134 0 -215.5 73.5t-81.5 192.5zM272 262q0 -63 43.5 -99t124.5 -36q131 0 245 79t134 183l10 55q-109 33 -192 33q-169 0 -267 -62t-98 -153zM401 1081q0 17 13 27l270 217q24 21 72 21q45 0 63 -21l187 -227q8 -12 8 -21 q0 -14 -12 -25.5t-27 -11.5q-11 0 -23 9l-209 161l-286 -161q-8 -5 -19 -5q-14 0 -25.5 10.5t-11.5 26.5z" />
<glyph unicode="&#xe3;" d="M111 248q0 148 144.5 249t375.5 101q106 0 225 -35q16 65 16 105q0 145 -165 145q-65 0 -131 -21t-115.5 -42t-73.5 -21q-29 0 -47 16t-18 41q0 40 53 77t147 61t203 24q149 0 227 -64t78 -175q0 -42 -8 -78l-107 -494h97q59 0 59 -57q0 -80 -86 -80h-125q-54 0 -73 12 t-19 56q0 26 16 98q-166 -184 -376 -184q-134 0 -215.5 73.5t-81.5 192.5zM272 262q0 -63 43.5 -99t124.5 -36q131 0 245 79t134 183l10 55q-109 33 -192 33q-169 0 -267 -62t-98 -153zM391 1139q0 46 65 99.5t158 53.5q65 0 127 -16l109 -29q59 -16 90 -16q35 0 60.5 18 t43.5 36t35 18q35 0 35 -37q0 -46 -63.5 -101t-157.5 -55q-65 0 -127 16l-109 31q-49 14 -90 14q-35 0 -61 -17.5t-44.5 -34.5t-35.5 -17q-35 0 -35 37z" />
<glyph unicode="&#xe4;" d="M111 248q0 148 144.5 249t375.5 101q106 0 225 -35q16 65 16 105q0 145 -165 145q-65 0 -131 -21t-115.5 -42t-73.5 -21q-29 0 -47 16t-18 41q0 40 53 77t147 61t203 24q149 0 227 -64t78 -175q0 -42 -8 -78l-107 -494h97q59 0 59 -57q0 -80 -86 -80h-125q-54 0 -73 12 t-19 56q0 26 16 98q-166 -184 -376 -184q-134 0 -215.5 73.5t-81.5 192.5zM272 262q0 -63 43.5 -99t124.5 -36q131 0 245 79t134 183l10 55q-109 33 -192 33q-169 0 -267 -62t-98 -153zM379 1192q0 48 36 83.5t85 35.5q50 0 85.5 -35t35.5 -84q0 -54 -34 -88.5t-87 -34.5 q-51 0 -86 36t-35 87zM889 1192q0 48 36 83.5t85 35.5t83.5 -34.5t34.5 -84.5q0 -54 -33 -88.5t-85 -34.5q-51 0 -86 36t-35 87z" />
<glyph unicode="&#xe5;" d="M111 248q0 148 144.5 249t375.5 101q106 0 225 -35q16 65 16 105q0 145 -165 145q-65 0 -131 -21t-115.5 -42t-73.5 -21q-29 0 -47 16t-18 41q0 40 53 77t147 61t203 24q149 0 227 -64t78 -175q0 -42 -8 -78l-107 -494h97q59 0 59 -57q0 -80 -86 -80h-125q-54 0 -73 12 t-19 56q0 26 16 98q-166 -184 -376 -184q-134 0 -215.5 73.5t-81.5 192.5zM272 262q0 -63 43.5 -99t124.5 -36q131 0 245 79t134 183l10 55q-109 33 -192 33q-169 0 -267 -62t-98 -153zM498 1268q0 105 73.5 178.5t178.5 73.5q106 0 178.5 -73t72.5 -179t-73 -180t-178 -74 q-106 0 -179 74t-73 180zM614 1268q0 -57 39.5 -96t96.5 -39q56 0 95.5 39t39.5 96t-39.5 96t-95.5 39q-57 0 -96.5 -39.5t-39.5 -95.5z" />
<glyph unicode="&#xe6;" d="M-25 209q0 143 119 238.5t318 95.5h141l12 59q15 77 15 113q0 55 -29.5 80.5t-91.5 25.5q-40 0 -78.5 -15t-62 -33t-48.5 -33t-43 -15q-53 0 -53 51q0 57 95.5 114.5t209.5 57.5q82 0 132 -30t81 -99q66 67 129.5 98t141.5 31q126 0 193 -72t67 -208q0 -79 -17 -144.5 t-30 -83.5q-9 -12 -29.5 -17.5t-37 -6t-58.5 -0.5h-375l-10 -37q-17 -66 -17 -103q0 -80 44 -123.5t126 -43.5q48 0 93.5 21.5t72.5 47t57 47t52 21.5q55 0 55 -60q0 -37 -48 -85.5t-132.5 -86t-171.5 -37.5q-94 0 -153 36t-105 122q-171 -158 -326 -158q-105 0 -171.5 65 t-66.5 167zM127 231q0 -59 35 -95t94 -36q71 0 160 70q14 11 25 22.5t18.5 19.5t14 21t9.5 18.5t7.5 21.5t5 19.5t4 23t4.5 22.5l16 78h-41q-179 0 -265.5 -44.5t-86.5 -140.5zM702 543h351q18 71 18 121q0 74 -37 115.5t-98 41.5q-76 0 -141.5 -73.5t-92.5 -204.5z" />
<glyph unicode="&#xe7;" d="M131 399q0 104 46 204t124.5 176t190.5 122.5t235 46.5q191 0 297 -121l12 54q12 51 68 51q70 0 70 -49q0 -8 -3 -17l-51 -241q-9 -41 -29 -60.5t-57 -19.5q-35 0 -49.5 18.5t-24.5 61.5t-22 67q-30 55 -89 86t-138 31q-167 0 -289.5 -125t-122.5 -289 q0 -125 76.5 -201.5t204.5 -76.5q134 0 264 92q10 8 32 24.5t32 23t25.5 16t28 13t25.5 3.5q55 0 55 -58q0 -49 -98 -120q-183 -136 -379 -136q-202 0 -318 113.5t-116 310.5zM299 -348q0 43 45 43q14 0 46 -13.5t78.5 -27.5t96.5 -14q46 0 71.5 23t25.5 65q0 39 -27 60.5 t-78 21.5q-17 0 -90 -15l68 205h69l-35 -113q58 7 72 7q79 0 128.5 -47t49.5 -123q0 -84 -60 -132.5t-169 -48.5q-108 0 -199.5 34.5t-91.5 74.5z" />
<glyph unicode="&#xe8;" d="M131 391q0 111 46 213.5t123.5 178t185.5 120.5t227 45q191 0 303 -111t112 -300q0 -41 -7 -65t-25.5 -35t-38.5 -14t-58 -3h-706v-37q0 -130 76 -203.5t213 -73.5q74 0 145 21.5t116 47.5t90.5 47.5t74.5 21.5q27 0 42 -13.5t15 -37.5q0 -49 -123 -117 q-185 -101 -371 -101q-203 0 -321.5 114t-118.5 302zM309 551h666v10q0 125 -70 190.5t-203 65.5q-136 0 -239 -69.5t-154 -196.5zM395 1233q0 6 4 18l25 64q15 37 43 37q6 0 14 -4l471 -238l-20 -55l-508 139q-12 3 -20.5 14.5t-8.5 24.5z" />
<glyph unicode="&#xe9;" d="M131 391q0 111 46 213.5t123.5 178t185.5 120.5t227 45q191 0 303 -111t112 -300q0 -41 -7 -65t-25.5 -35t-38.5 -14t-58 -3h-706v-37q0 -130 76 -203.5t213 -73.5q74 0 145 21.5t116 47.5t90.5 47.5t74.5 21.5q27 0 42 -13.5t15 -37.5q0 -49 -123 -117 q-185 -101 -371 -101q-203 0 -321.5 114t-118.5 302zM309 551h666v10q0 125 -70 190.5t-203 65.5q-136 0 -239 -69.5t-154 -196.5zM496 1110l471 238q8 4 14 4q13 0 25 -9.5t18 -25.5l25 -64q4 -12 4 -18q0 -13 -8.5 -24.5t-20.5 -14.5l-508 -139z" />
<glyph unicode="&#xea;" d="M131 391q0 111 46 213.5t123.5 178t185.5 120.5t227 45q191 0 303 -111t112 -300q0 -41 -7 -65t-25.5 -35t-38.5 -14t-58 -3h-706v-37q0 -130 76 -203.5t213 -73.5q74 0 145 21.5t116 47.5t90.5 47.5t74.5 21.5q27 0 42 -13.5t15 -37.5q0 -49 -123 -117 q-185 -101 -371 -101q-203 0 -321.5 114t-118.5 302zM309 551h666v10q0 125 -70 190.5t-203 65.5q-136 0 -239 -69.5t-154 -196.5zM383 1081q0 18 12 27l271 217q24 21 71 21q46 0 64 -21l186 -227q8 -12 8 -21q0 -14 -12 -25.5t-27 -11.5q-10 0 -22 9l-209 161l-287 -161 q-8 -5 -18 -5q-14 0 -25.5 10.5t-11.5 26.5z" />
<glyph unicode="&#xeb;" d="M131 391q0 111 46 213.5t123.5 178t185.5 120.5t227 45q191 0 303 -111t112 -300q0 -41 -7 -65t-25.5 -35t-38.5 -14t-58 -3h-706v-37q0 -130 76 -203.5t213 -73.5q74 0 145 21.5t116 47.5t90.5 47.5t74.5 21.5q27 0 42 -13.5t15 -37.5q0 -49 -123 -117 q-185 -101 -371 -101q-203 0 -321.5 114t-118.5 302zM309 551h666v10q0 125 -70 190.5t-203 65.5q-136 0 -239 -69.5t-154 -196.5zM360 1192q0 48 36 83.5t85 35.5q50 0 85.5 -35t35.5 -84q0 -54 -34 -88.5t-87 -34.5q-51 0 -86 36t-35 87zM870 1192q0 48 36 83.5t85 35.5 t84 -34.5t35 -84.5q0 -54 -33.5 -88.5t-85.5 -34.5q-51 0 -86 36t-35 87z" />
<glyph unicode="&#xec;" d="M117 55q0 82 88 82h301l137 649h-201q-61 0 -61 58q0 80 90 80h297q24 0 34.5 -6t10.5 -23q0 -10 -2 -18l-158 -740h318q61 0 61 -57q0 -38 -24 -59t-68 -21h-764q-59 0 -59 55zM395 1233q0 6 4 18l25 64q15 37 43 37q6 0 14 -4l471 -238l-20 -55l-508 139 q-12 3 -20.5 14.5t-8.5 24.5z" />
<glyph unicode="&#xed;" d="M117 55q0 82 88 82h301l137 649h-201q-61 0 -61 58q0 80 90 80h297q24 0 34.5 -6t10.5 -23q0 -10 -2 -18l-158 -740h318q61 0 61 -57q0 -38 -24 -59t-68 -21h-764q-59 0 -59 55zM496 1110l471 238q8 4 14 4q13 0 25 -9.5t18 -25.5l25 -64q4 -12 4 -18q0 -13 -8.5 -24.5 t-20.5 -14.5l-508 -139z" />
<glyph unicode="&#xee;" d="M117 55q0 82 88 82h301l137 649h-201q-61 0 -61 58q0 80 90 80h297q24 0 34.5 -6t10.5 -23q0 -10 -2 -18l-158 -740h318q61 0 61 -57q0 -38 -24 -59t-68 -21h-764q-59 0 -59 55zM383 1081q0 18 12 27l271 217q24 21 71 21q46 0 64 -21l186 -227q8 -12 8 -21 q0 -14 -12 -25.5t-27 -11.5q-10 0 -22 9l-209 161l-287 -161q-8 -5 -18 -5q-14 0 -25.5 10.5t-11.5 26.5z" />
<glyph unicode="&#xef;" d="M117 55q0 82 88 82h301l137 649h-201q-61 0 -61 58q0 80 90 80h297q24 0 34.5 -6t10.5 -23q0 -10 -2 -18l-158 -740h318q61 0 61 -57q0 -38 -24 -59t-68 -21h-764q-59 0 -59 55zM360 1192q0 48 36 83.5t85 35.5q50 0 85.5 -35t35.5 -84q0 -54 -34 -88.5t-87 -34.5 q-51 0 -86 36t-35 87zM870 1192q0 48 36 83.5t85 35.5t84 -34.5t35 -84.5q0 -54 -33.5 -88.5t-85.5 -34.5q-51 0 -86 36t-35 87z" />
<glyph unicode="&#xf0;" d="M96 387q0 145 78 272t207.5 201t275.5 74q51 0 123 -21q-73 107 -129 160l-202 -88q-20 -8 -29 -8q-15 0 -31 15t-16 30q0 35 43 53l164 70q-31 29 -70.5 59t-56.5 45t-17 29q0 9 18.5 15.5t45.5 6.5q47 0 89 -22.5t118 -77.5l198 84q24 8 29 8q16 0 31.5 -14t15.5 -33 q0 -34 -41 -51l-149 -61q169 -154 255.5 -308.5t86.5 -296.5q0 -112 -44.5 -213.5t-121 -176t-185 -119t-231.5 -44.5q-207 0 -331 114.5t-124 297.5zM262 393q0 -131 80 -209t219 -78q115 0 209.5 58.5t145.5 152t51 199.5q0 128 -81 206.5t-218 78.5q-113 0 -207.5 -58 t-146.5 -151.5t-52 -198.5z" />
<glyph unicode="&#xf1;" d="M35 55q0 82 90 82h55l139 649h-63q-61 0 -61 58q0 38 24 59t68 21h155q50 0 50 -29q0 -9 -3 -18l-20 -74q160 145 332 145q118 0 188 -67.5t70 -175.5q0 -39 -8 -72l-107 -496h62q61 0 61 -57q0 -80 -90 -80h-266q-60 0 -60 55q0 82 90 82h56l94 445q14 61 14 86 q0 66 -40 100.5t-117 34.5q-113 0 -212.5 -76t-123.5 -190l-84 -400h63q60 0 60 -57q0 -38 -23.5 -59t-67.5 -21h-266q-59 0 -59 55zM389 1139q0 46 65 99.5t158 53.5q65 0 127 -16l109 -29q59 -16 90 -16q35 0 60.5 18t43.5 36t35 18q35 0 35 -37q0 -46 -63.5 -101 t-157.5 -55q-65 0 -127 16l-109 31q-49 14 -90 14q-35 0 -61 -17.5t-44.5 -34.5t-35.5 -17q-35 0 -35 37z" />
<glyph unicode="&#xf2;" d="M98 387q0 153 76 282t210.5 205t297.5 76q207 0 330 -112.5t123 -298.5q0 -153 -75 -282t-210 -205.5t-299 -76.5q-206 0 -329.5 112.5t-123.5 299.5zM264 391q0 -133 79.5 -209t217.5 -76q174 0 290 124t116 305q0 129 -79.5 204.5t-215.5 75.5q-173 0 -290.5 -124.5 t-117.5 -299.5zM395 1233q0 6 4 18l25 64q15 37 43 37q6 0 14 -4l471 -238l-20 -55l-508 139q-12 3 -20.5 14.5t-8.5 24.5z" />
<glyph unicode="&#xf3;" d="M98 387q0 153 76 282t210.5 205t297.5 76q207 0 330 -112.5t123 -298.5q0 -153 -75 -282t-210 -205.5t-299 -76.5q-206 0 -329.5 112.5t-123.5 299.5zM264 391q0 -133 79.5 -209t217.5 -76q174 0 290 124t116 305q0 129 -79.5 204.5t-215.5 75.5q-173 0 -290.5 -124.5 t-117.5 -299.5zM496 1110l471 238q8 4 14 4q13 0 25 -9.5t18 -25.5l25 -64q4 -12 4 -18q0 -13 -8.5 -24.5t-20.5 -14.5l-508 -139z" />
<glyph unicode="&#xf4;" d="M98 387q0 153 76 282t210.5 205t297.5 76q207 0 330 -112.5t123 -298.5q0 -153 -75 -282t-210 -205.5t-299 -76.5q-206 0 -329.5 112.5t-123.5 299.5zM264 391q0 -133 79.5 -209t217.5 -76q174 0 290 124t116 305q0 129 -79.5 204.5t-215.5 75.5q-173 0 -290.5 -124.5 t-117.5 -299.5zM383 1081q0 18 12 27l271 217q24 21 71 21q46 0 64 -21l186 -227q8 -12 8 -21q0 -14 -12 -25.5t-27 -11.5q-10 0 -22 9l-209 161l-287 -161q-8 -5 -18 -5q-14 0 -25.5 10.5t-11.5 26.5z" />
<glyph unicode="&#xf5;" d="M98 387q0 153 76 282t210.5 205t297.5 76q207 0 330 -112.5t123 -298.5q0 -153 -75 -282t-210 -205.5t-299 -76.5q-206 0 -329.5 112.5t-123.5 299.5zM264 391q0 -133 79.5 -209t217.5 -76q174 0 290 124t116 305q0 129 -79.5 204.5t-215.5 75.5q-173 0 -290.5 -124.5 t-117.5 -299.5zM373 1139q0 46 65 99.5t158 53.5q65 0 127 -16l108 -29q59 -16 91 -16q35 0 60.5 18t43.5 36t35 18q35 0 35 -37q0 -46 -64 -101t-158 -55q-64 0 -126 16l-109 31q-49 14 -90 14q-35 0 -61 -17.5t-44.5 -34.5t-35.5 -17q-35 0 -35 37z" />
<glyph unicode="&#xf6;" d="M98 387q0 153 76 282t210.5 205t297.5 76q207 0 330 -112.5t123 -298.5q0 -153 -75 -282t-210 -205.5t-299 -76.5q-206 0 -329.5 112.5t-123.5 299.5zM264 391q0 -133 79.5 -209t217.5 -76q174 0 290 124t116 305q0 129 -79.5 204.5t-215.5 75.5q-173 0 -290.5 -124.5 t-117.5 -299.5zM360 1192q0 48 36 83.5t85 35.5q50 0 85.5 -35t35.5 -84q0 -54 -34 -88.5t-87 -34.5q-51 0 -86 36t-35 87zM870 1192q0 48 36 83.5t85 35.5t84 -34.5t35 -84.5q0 -54 -33.5 -88.5t-85.5 -34.5q-51 0 -86 36t-35 87z" />
<glyph unicode="&#xf7;" d="M104 631q0 35 16.5 54.5t47.5 19.5h895q63 0 63 -74t-63 -74h-895q-64 0 -64 74zM506 315q0 47 32.5 80t77.5 33q46 0 78.5 -33.5t32.5 -79.5q0 -45 -32 -77.5t-79 -32.5q-46 0 -78 32t-32 78zM506 944q0 47 32.5 80t77.5 33q44 0 77.5 -33.5t33.5 -79.5q0 -45 -33 -79 t-78 -34t-77.5 33.5t-32.5 79.5z" />
<glyph unicode="&#xf8;" d="M23 -8q0 26 26 49l121 106q-72 104 -72 236q0 155 75.5 284.5t210.5 205t302 75.5q171 0 299 -90l98 88q33 29 52 29q20 0 34.5 -13t14.5 -28q0 -10 -8 -25.5t-19 -25.5l-106 -90q84 -111 84 -250q0 -156 -75.5 -286t-209.5 -206t-297 -76q-208 0 -320 103l-110 -98 q-32 -29 -53 -29q-20 0 -33.5 12.5t-13.5 28.5zM264 389q0 -65 29 -137l573 504q-56 59 -196 59q-172 0 -289 -124t-117 -302zM350 176q73 -70 211 -70q173 0 290.5 125t117.5 306q0 85 -37 149z" />
<glyph unicode="&#xf9;" d="M172 844q0 80 90 80h156q26 0 36.5 -6t10.5 -23q0 -12 -2 -18l-115 -533q-14 -72 -14 -90q0 -135 160 -135q120 0 221 77t125 193l86 397h-119q-62 0 -62 58q0 38 24.5 59t68.5 21h209q26 0 36.5 -6t10.5 -23q0 -12 -2 -18l-158 -740h63q60 0 60 -57q0 -80 -90 -80h-158 q-49 0 -49 31q0 2 4 18l20 72q-162 -146 -346 -146q-113 0 -186.5 65t-73.5 161q0 40 10 92l107 493h-62q-61 0 -61 58zM377 1233q0 6 4 18l25 64q15 37 43 37q6 0 14 -4l471 -238l-21 -55l-507 139q-12 3 -20.5 14.5t-8.5 24.5z" />
<glyph unicode="&#xfa;" d="M172 844q0 80 90 80h156q26 0 36.5 -6t10.5 -23q0 -12 -2 -18l-115 -533q-14 -72 -14 -90q0 -135 160 -135q120 0 221 77t125 193l86 397h-119q-62 0 -62 58q0 38 24.5 59t68.5 21h209q26 0 36.5 -6t10.5 -23q0 -12 -2 -18l-158 -740h63q60 0 60 -57q0 -80 -90 -80h-158 q-49 0 -49 31q0 2 4 18l20 72q-162 -146 -346 -146q-113 0 -186.5 65t-73.5 161q0 40 10 92l107 493h-62q-61 0 -61 58zM477 1110l471 238q8 4 15 4q13 0 25 -9.5t18 -25.5l24 -64q4 -12 4 -18q0 -14 -8 -25t-20 -14l-508 -139z" />
<glyph unicode="&#xfb;" d="M172 844q0 80 90 80h156q26 0 36.5 -6t10.5 -23q0 -12 -2 -18l-115 -533q-14 -72 -14 -90q0 -135 160 -135q120 0 221 77t125 193l86 397h-119q-62 0 -62 58q0 38 24.5 59t68.5 21h209q26 0 36.5 -6t10.5 -23q0 -12 -2 -18l-158 -740h63q60 0 60 -57q0 -80 -90 -80h-158 q-49 0 -49 31q0 2 4 18l20 72q-162 -146 -346 -146q-113 0 -186.5 65t-73.5 161q0 40 10 92l107 493h-62q-61 0 -61 58zM365 1081q0 18 12 27l270 217q24 21 72 21q45 0 63 -21l187 -227q8 -12 8 -21q0 -14 -12 -25.5t-27 -11.5q-11 0 -23 9l-208 161l-287 -161 q-8 -5 -19 -5q-14 0 -25 10t-11 27z" />
<glyph unicode="&#xfc;" d="M172 844q0 80 90 80h156q26 0 36.5 -6t10.5 -23q0 -12 -2 -18l-115 -533q-14 -72 -14 -90q0 -135 160 -135q120 0 221 77t125 193l86 397h-119q-62 0 -62 58q0 38 24.5 59t68.5 21h209q26 0 36.5 -6t10.5 -23q0 -12 -2 -18l-158 -740h63q60 0 60 -57q0 -80 -90 -80h-158 q-49 0 -49 31q0 2 4 18l20 72q-162 -146 -346 -146q-113 0 -186.5 65t-73.5 161q0 40 10 92l107 493h-62q-61 0 -61 58zM342 1192q0 48 36 83.5t85 35.5q50 0 85.5 -35t35.5 -84q0 -54 -34 -88.5t-87 -34.5q-51 0 -86 36t-35 87zM852 1192q0 48 36 83.5t85 35.5t84 -34.5 t35 -84.5q0 -54 -33.5 -88.5t-85.5 -34.5q-51 0 -86 36t-35 87z" />
<glyph unicode="&#xfd;" d="M-80 -342q0 82 88 82h207l246 336l-193 710h-57q-61 0 -61 58q0 80 90 80h266q59 0 59 -56q0 -82 -90 -82h-55l151 -567l379 567h-71q-60 0 -60 58q0 80 90 80h269q59 0 59 -56q0 -82 -90 -82h-23l-733 -1046h82q59 0 59 -59q0 -78 -90 -78h-462q-60 0 -60 55zM496 1110 l471 238q8 4 14 4q13 0 25 -9.5t18 -25.5l25 -64q4 -12 4 -18q0 -13 -8.5 -24.5t-20.5 -14.5l-508 -139z" />
<glyph unicode="&#xfe;" d="M-113 -342q0 82 90 82h66l303 1431h-72q-61 0 -61 58q0 80 90 80h168q25 0 36 -7t11 -24q0 -12 -2 -18l-100 -457q162 143 352 143q174 0 280.5 -106t106.5 -285q0 -154 -74 -282t-200.5 -201.5t-276.5 -73.5q-222 0 -325 154l-89 -412h222q61 0 61 -57q0 -38 -24 -59 t-68 -21h-434q-60 0 -60 55zM340 383q0 -114 73 -182t195 -68q161 0 270 121t109 301q0 122 -68.5 190t-189.5 68q-162 0 -275.5 -120.5t-113.5 -309.5z" />
<glyph unicode="&#xff;" d="M-80 -342q0 82 88 82h207l246 336l-193 710h-57q-61 0 -61 58q0 80 90 80h266q59 0 59 -56q0 -82 -90 -82h-55l151 -567l379 567h-71q-60 0 -60 58q0 80 90 80h269q59 0 59 -56q0 -82 -90 -82h-23l-733 -1046h82q59 0 59 -59q0 -78 -90 -78h-462q-60 0 -60 55zM360 1192 q0 48 36 83.5t85 35.5q50 0 85.5 -35t35.5 -84q0 -54 -34 -88.5t-87 -34.5q-51 0 -86 36t-35 87zM870 1192q0 48 36 83.5t85 35.5t84 -34.5t35 -84.5q0 -54 -33.5 -88.5t-85.5 -34.5q-51 0 -86 36t-35 87z" />
<glyph unicode="&#x152;" d="M6 453q0 121 35.5 249t97.5 226q161 258 535 258h514q41 0 64.5 -18.5t23.5 -49.5q0 -19 -4 -35l-51 -213q-13 -57 -30 -75.5t-54 -18.5q-62 0 -62 55q0 8 8 54l37 164h-327l-66 -344h137l17 67q10 45 23.5 63.5t47.5 18.5q54 0 54 -47q0 -7 -11 -68l-43 -219 q-10 -52 -21 -69t-48 -17q-26 0 -41 11t-15 28q0 27 2 35l15 76h-146l-90 -445h320l43 185q12 50 30 72t50 22q61 0 61 -60q0 -21 -6 -51l-47 -221q-10 -48 -32.5 -67t-84.5 -19h-504q-198 0 -315 121.5t-117 331.5zM172 428q0 -134 69 -211.5t175 -77.5h51l178 910h-51 q-189 0 -295 -158q-53 -79 -90 -211t-37 -252z" />
<glyph unicode="&#x153;" d="M16 285q0 131 36.5 254t96 212.5t140.5 143t166 53.5q144 0 207 -135q150 135 301 135q124 0 190 -72.5t66 -207.5q0 -80 -16 -145.5t-29 -82.5q-9 -12 -29.5 -17.5t-37 -6t-58.5 -0.5h-377l-10 -37q-17 -66 -17 -103q0 -80 44.5 -125t125.5 -45q48 0 93.5 22t72.5 48 t57 48t52 22q55 0 55 -60q0 -27 -29.5 -63.5t-76.5 -69t-113 -55.5t-131 -23q-177 0 -271 158q-115 -158 -254 -158q-112 0 -183 83t-71 227zM174 293q0 -87 34 -137t85 -50q61 0 120 76.5t97.5 209t38.5 278.5q0 73 -27.5 112t-77.5 39q-49 0 -101 -49t-91 -137 q-36 -81 -57 -176t-21 -166zM698 543h351q18 71 18 121q0 74 -37 115.5t-98 41.5q-77 0 -143 -74.5t-91 -203.5z" />
<glyph unicode="&#x178;" d="M176 57q0 38 24 59t68 21h193l69 328l-194 584h-68q-47 0 -47 51q0 47 22 66.5t72 19.5h295q29 0 45.5 -15t16.5 -43q0 -38 -24 -58.5t-68 -20.5h-84l147 -439l338 439h-55q-60 0 -60 55q0 39 23 60.5t67 21.5h254q62 0 62 -58q0 -34 -22 -56.5t-52 -22.5h-51l-463 -586 l-70 -326h187q61 0 61 -55q0 -39 -23 -60.5t-67 -21.5h-534q-62 0 -62 57zM406 1462q0 48 35.5 83.5t84.5 35.5q50 0 85.5 -35t35.5 -84q0 -54 -34 -88.5t-87 -34.5q-51 0 -85.5 36t-34.5 87zM915 1462q0 48 36 83.5t85 35.5q50 0 84.5 -34.5t34.5 -84.5q0 -54 -33.5 -88.5 t-85.5 -34.5q-51 0 -86 36t-35 87z" />
<glyph unicode="&#x2c6;" d="M383 1081q0 18 12 27l271 217q24 21 71 21q46 0 64 -21l186 -227q8 -12 8 -21q0 -14 -12 -25.5t-27 -11.5q-10 0 -22 9l-209 161l-287 -161q-8 -5 -18 -5q-14 0 -25.5 10.5t-11.5 26.5z" />
<glyph unicode="&#x2dc;" d="M373 1139q0 46 65 99.5t158 53.5q65 0 127 -16l108 -29q59 -16 91 -16q35 0 60.5 18t43.5 36t35 18q35 0 35 -37q0 -46 -64 -101t-158 -55q-64 0 -126 16l-109 31q-49 14 -90 14q-35 0 -61 -17.5t-44.5 -34.5t-35.5 -17q-35 0 -35 37z" />
<glyph unicode="&#x2000;" horiz-adv-x="878" />
<glyph unicode="&#x2001;" horiz-adv-x="1757" />
<glyph unicode="&#x2002;" horiz-adv-x="878" />
<glyph unicode="&#x2003;" horiz-adv-x="1757" />
<glyph unicode="&#x2004;" horiz-adv-x="585" />
<glyph unicode="&#x2005;" horiz-adv-x="439" />
<glyph unicode="&#x2006;" horiz-adv-x="292" />
<glyph unicode="&#x2007;" horiz-adv-x="292" />
<glyph unicode="&#x2008;" horiz-adv-x="219" />
<glyph unicode="&#x2009;" horiz-adv-x="351" />
<glyph unicode="&#x200a;" horiz-adv-x="97" />
<glyph unicode="&#x2010;" d="M193 401v7l24 102q12 49 49 49h791q23 0 36 -11.5t13 -25.5v-6l-25 -102q-12 -49 -49 -49h-790q-23 0 -36 11t-13 25z" />
<glyph unicode="&#x2011;" d="M193 401v7l24 102q12 49 49 49h791q23 0 36 -11.5t13 -25.5v-6l-25 -102q-12 -49 -49 -49h-790q-23 0 -36 11t-13 25z" />
<glyph unicode="&#x2012;" d="M193 401v7l24 102q12 49 49 49h791q23 0 36 -11.5t13 -25.5v-6l-25 -102q-12 -49 -49 -49h-790q-23 0 -36 11t-13 25z" />
<glyph unicode="&#x2013;" d="M-47 422v4l6 78q3 41 43 41h1233q22 0 35.5 -10.5t13.5 -26.5v-4l-6 -78q-1 -21 -15.5 -34t-33.5 -13h-1233q-19 0 -31 12t-12 31z" />
<glyph unicode="&#x2014;" d="M-49 422v4l6 78q3 41 43 41h1233q22 0 35.5 -10.5t13.5 -26.5v-4l-6 -78q-1 -21 -15.5 -34t-33.5 -13h-1233q-19 0 -31 12t-12 31z" />
<glyph unicode="&#x2018;" d="M449 717q0 4 4 12l313 467q18 27 41 27q6 0 18 -4l54 -27q14 -7 14 -25q0 -6 -14 -34l-185 -404q-9 -19 -21.5 -26t-35.5 -7h-168q-20 0 -20 21z" />
<glyph unicode="&#x2019;" d="M467 713q0 11 12 35l187 403q9 20 21 27.5t34 7.5h168q9 0 15.5 -6t6.5 -15q0 -6 -4 -14l-315 -467q-18 -27 -41 -27q-4 0 -19 5l-51 28q-14 7 -14 23z" />
<glyph unicode="&#x201a;" d="M338 -233q0 10 12 34l187 404q9 20 21 27.5t34 7.5h168q9 0 15.5 -6t6.5 -15q0 -4 -4 -12l-315 -469q-19 -25 -41 -25q-13 0 -19 4l-51 27q-14 7 -14 23z" />
<glyph unicode="&#x201c;" d="M233 717q0 2 5 12l315 467q18 27 41 27q6 0 18 -4l54 -27q12 -6 12 -25q0 -10 -12 -34l-187 -404q-9 -20 -20.5 -26.5t-34.5 -6.5h-168q-9 0 -16 6t-7 15zM688 717q0 4 4 12l314 467q18 27 41 27q6 0 18 -4l53 -27q15 -8 15 -25q0 -4 -15 -34l-184 -404q-9 -19 -21.5 -26 t-35.5 -7h-168q-9 0 -15 6t-6 15z" />
<glyph unicode="&#x201d;" d="M262 713q0 7 14 35l185 403q9 20 22 27.5t35 7.5h166q9 0 16 -6t7 -15q0 -4 -5 -14l-313 -467q-18 -27 -43 -27q-3 0 -18 5l-52 28q-14 7 -14 23zM715 713q0 7 14 35l184 403q16 35 58 35h168q20 0 20 -21q0 -6 -4 -14l-313 -467q-18 -27 -41 -27q-4 0 -19 5l-53 28 q-14 7 -14 23z" />
<glyph unicode="&#x201e;" d="M113 -229q0 6 14 34l184 402q9 20 21.5 27.5t34.5 7.5h168q9 0 15.5 -6t6.5 -15q0 -4 -4 -12l-315 -469q-19 -25 -41 -25q-13 0 -19 4l-51 27q-14 7 -14 25zM565 -229q0 4 15 34l184 402q9 20 22 27.5t35 7.5h168q9 0 15 -6t6 -15q0 -4 -4 -12l-314 -469q-19 -25 -41 -25 q-12 0 -18 4l-53 27q-15 8 -15 25z" />
<glyph unicode="&#x2022;" d="M457 684q0 67 46.5 114.5t112.5 47.5t113 -48t47 -114t-47 -113t-113 -47t-112.5 46.5t-46.5 113.5z" />
<glyph unicode="&#x2026;" d="M55 123q0 61 44 105t106 44q61 0 104 -43.5t43 -105.5t-43 -105t-104 -43q-62 0 -106 43.5t-44 104.5zM469 123q0 62 43 105.5t104 43.5t104.5 -43.5t43.5 -105.5q0 -61 -43 -104.5t-105 -43.5q-61 0 -104 43t-43 105zM879 123q0 61 43.5 105t105.5 44q61 0 104.5 -43.5 t43.5 -105.5q0 -61 -43 -104.5t-105 -43.5t-105.5 43.5t-43.5 104.5z" />
<glyph unicode="&#x202f;" horiz-adv-x="351" />
<glyph unicode="&#x2039;" d="M467 459q0 39 22 71l185 275q21 31 55 31q24 0 40.5 -16t16.5 -38q0 -21 -10 -41l-162 -270l80 -287q4 -20 4 -28q0 -26 -16 -43t-41 -17q-19 0 -35 12t-22 31l-113 301q-4 16 -4 19z" />
<glyph unicode="&#x203a;" d="M463 156q0 21 10 41l162 268l-82 289q-4 20 -4 26q0 26 17 43t42 17q19 0 35.5 -11.5t22.5 -29.5l112 -301q4 -16 4 -21q0 -37 -22 -69l-187 -277q-21 -31 -53 -31q-24 0 -40.5 17t-16.5 39z" />
<glyph unicode="&#x205f;" horiz-adv-x="439" />
<glyph unicode="&#x2122;" d="M117 1053v10l4 145q0 25 14 39.5t39 14.5h338q50 0 53 -54l6 -145v-27q0 -23 -14.5 -37t-36.5 -14q-30 0 -40.5 16.5t-12.5 57.5l-4 92h-66v-350h37q38 0 54 -12t16 -44q0 -24 -14 -39.5t-37 -15.5h-220q-23 0 -37 15t-14 40q0 32 16.5 44t55.5 12h35v350h-66l-2 -92 q-2 -41 -13.5 -57.5t-41.5 -16.5q-27 0 -38 16t-11 52zM602 745q0 27 12 40t39 16l11 352q-43 8 -43 53q0 25 13.5 39.5t35.5 14.5h63q56 0 68 -48l59 -219l62 219q12 48 65 48h66q22 0 35.5 -14.5t13.5 -39.5q0 -44 -45 -53l10 -352q53 -6 53 -56q0 -24 -14.5 -39.5 t-36.5 -15.5h-108q-66 0 -66 55q0 56 66 56h8v282l-51 -188q-8 -27 -21 -38t-37 -11q-25 0 -38 11.5t-21 37.5l-51 188v-282h8q35 0 51 -13.5t16 -42.5q0 -55 -63 -55h-109q-24 0 -37.5 14.5t-13.5 40.5z" />
<glyph unicode="&#x25fc;" horiz-adv-x="921" d="M0 0v922h922v-922h-922z" />
<glyph unicode="&#xfb01;" d="M-45 55q0 82 90 82h119l139 649h-149q-60 0 -60 58q0 80 90 80h148l6 32q21 93 46 154.5t65 108.5t97.5 68.5t137.5 21.5q213 0 213 -88q0 -36 -25.5 -60t-64.5 -24q-23 0 -70 11t-71 11q-133 0 -174 -192l-9 -43h154q61 0 61 -58q0 -80 -90 -80h-155l-138 -649h170 q62 0 62 -57q0 -38 -24 -59t-68 -21h-441q-59 0 -59 55zM612 55q0 82 88 82h111l137 649h-129q-61 0 -61 58q0 38 24 59t68 21h223q24 0 34.5 -6t10.5 -23q0 -10 -2 -18l-158 -740h138q61 0 61 -57q0 -38 -24 -59t-68 -21h-393q-60 0 -60 55zM1006 1178q0 111 35 152.5 t106 41.5q41 0 56.5 -14.5t15.5 -48.5q0 -110 -34.5 -152.5t-105.5 -42.5q-41 0 -57 15t-16 49z" />
<glyph unicode="&#xfb02;" d="M-45 55q0 82 90 82h119l139 649h-149q-60 0 -60 58q0 80 90 80h148l6 32q28 120 57 186t92 111q50 35 110 45.5t159 10.5h69h332q24 0 34.5 -6t10.5 -23q0 -12 -2 -20l-239 -1123h135q61 0 61 -57q0 -80 -90 -80h-395q-60 0 -60 55q0 82 88 82h113l219 1034h-143 q-5 0 -34.5 -10t-57.5 -10q-20 0 -63.5 7t-67.5 7q-134 0 -174 -198l-9 -43h185q61 0 61 -58q0 -80 -90 -80h-186l-138 -649h170q62 0 62 -57q0 -38 -24 -59t-68 -21h-441q-59 0 -59 55z" />
</font>
</defs>
</svg>
