<?xml version="1.0" encoding="UTF-8" standalone="no"?>
<!-- Created with Inkscape (http://www.inkscape.org/) -->

<svg
   xmlns:dc="http://purl.org/dc/elements/1.1/"
   xmlns:cc="http://creativecommons.org/ns#"
   xmlns:rdf="http://www.w3.org/1999/02/22-rdf-syntax-ns#"
   xmlns:svg="http://www.w3.org/2000/svg"
   xmlns="http://www.w3.org/2000/svg"
   xmlns:sodipodi="http://sodipodi.sourceforge.net/DTD/sodipodi-0.dtd"
   xmlns:inkscape="http://www.inkscape.org/namespaces/inkscape"
   id="svg8"
   version="1.1"
   viewBox="0 0 210 297"
   height="297mm"
   width="210mm"
   inkscape:version="0.92.3 (2405546, 2018-03-11)"
   sodipodi:docname="pi-debut-fd.svg"
   inkscape:export-filename="/home/sioban/donnees/Formations/house_of_code/projet_percu-corpo/images/jeanne-pat/couleurs/6.png"
   inkscape:export-xdpi="101.99255"
   inkscape:export-ydpi="101.99255"
   enable-background="new">
  <sodipodi:namedview
     inkscape:window-maximized="1"
     inkscape:window-y="27"
     inkscape:window-x="0"
     inkscape:window-height="674"
     inkscape:window-width="1366"
     showgrid="false"
     inkscape:current-layer="layer2"
     inkscape:document-units="mm"
     inkscape:cy="564.87799"
     inkscape:cx="278.2898"
     inkscape:zoom="0.35"
     inkscape:pageshadow="2"
     inkscape:pageopacity="0.0"
     borderopacity="1.0"
     bordercolor="#666666"
     pagecolor="#ffffff"
     id="base"
     inkscape:snap-others="false"
     inkscape:object-nodes="false"
     inkscape:snap-nodes="false"
     showguides="false"
     inkscape:guide-bbox="true"
     inkscape:pagecheckerboard="true">
    <sodipodi:guide
       inkscape:locked="false"
       orientation="0,1"
       position="0,148.5"
       id="guide816" />
    <sodipodi:guide
       inkscape:locked="false"
       orientation="1,0"
       position="105.0,0"
       id="guide818" />
    <sodipodi:guide
       id="guide1690"
       position="0.0,0"
       orientation="1,0"
       inkscape:locked="false" />
    <sodipodi:guide
       id="guide1692"
       position="52.5,0"
       orientation="1,0"
       inkscape:locked="false" />
    <sodipodi:guide
       id="guide1694"
       position="105.0,0"
       orientation="1,0"
       inkscape:locked="false" />
    <sodipodi:guide
       id="guide1696"
       position="157.5,0"
       orientation="1,0"
       inkscape:locked="false" />
    <sodipodi:guide
       inkscape:locked="false"
       orientation="0,1"
       position="0,267.299999237"
       id="guide1966" />
    <sodipodi:guide
       inkscape:locked="false"
       orientation="0,1"
       position="0,29.7000007629"
       id="guide1968" />
    <sodipodi:guide
       id="guide1994"
       position="0,237.599998474"
       orientation="0,1"
       inkscape:locked="false" />
    <sodipodi:guide
       id="guide1996"
       position="0,59.4000015259"
       orientation="0,1"
       inkscape:locked="false" />
    <sodipodi:guide
       inkscape:locked="false"
       orientation="0,1"
       position="0,207.900001526"
       id="guide2026" />
    <sodipodi:guide
       inkscape:locked="false"
       orientation="0,1"
       position="0,89.0999984741"
       id="guide2028" />
    <sodipodi:guide
       id="guide2062"
       position="0,178.199996948"
       orientation="0,1"
       inkscape:locked="false" />
    <sodipodi:guide
       id="guide2064"
       position="0,118.800003052"
       orientation="0,1"
       inkscape:locked="false" />
    <sodipodi:guide
       position="78.619046,260.4256"
       orientation="1,0"
       id="guide1723"
       inkscape:locked="false" />
    <sodipodi:guide
       position="131.34672,254.18899"
       orientation="1,0"
       id="guide1048"
       inkscape:locked="false" />
    <sodipodi:guide
       position="183.88143,246.42251"
       orientation="1,0"
       id="guide1057"
       inkscape:locked="false" />
    <sodipodi:guide
       position="26.459683,253.90606"
       orientation="1,0"
       id="guide1059"
       inkscape:locked="false" />
    <sodipodi:guide
       position="148.06732,14.699825"
       orientation="0,1"
       id="guide974"
       inkscape:locked="false" />
  </sodipodi:namedview>
  <defs
     id="defs2" />
  <metadata
     id="metadata5">
    <rdf:RDF>
      <cc:Work
         rdf:about="">
        <dc:format>image/svg+xml</dc:format>
        <dc:type
           rdf:resource="http://purl.org/dc/dcmitype/StillImage" />
        <dc:title></dc:title>
      </cc:Work>
    </rdf:RDF>
  </metadata>
  <g
     inkscape:groupmode="layer"
     id="layer2"
     inkscape:label="background"
     style="display:inline">
    <rect
       style="opacity:1;fill:#ffffff;fill-opacity:1;fill-rule:nonzero;stroke:none;stroke-width:1.19759309;stroke-linecap:square;stroke-linejoin:miter;stroke-miterlimit:4;stroke-dasharray:none;stroke-opacity:1;paint-order:fill markers stroke"
       id="rect1062"
       width="199.20232"
       height="330.32291"
       x="5.1846046"
       y="-18.841972" />
  </g>
  <g
     inkscape:label="position-neutre"
     inkscape:groupmode="layer"
     id="layer1"
     style="display:none">
    <path
       style="display:inline;fill:#ffffff;fill-opacity:1;stroke:#0d0701;stroke-width:1.36500001;stroke-linecap:square;stroke-linejoin:miter;stroke-miterlimit:4;stroke-dasharray:none;stroke-opacity:1"
       d="m 109.50275,30.19185 c -0.73379,1.353082 0.59213,5.450899 1.46467,7.110638 2.46795,4.694544 15.8237,-6.961765 21.73374,-6.401933 4.72928,0.447982 7.47711,-0.186444 14.17419,41.081247 4.84441,29.851458 10.62209,13.985121 10.62209,13.985121 12.32758,-25.778481 14.75782,-26.189482 16.24205,-30.245411 1.48425,-4.055929 0.36378,-6.739556 -1.4451,-8.780631 -4.77543,-5.388473 -4.18332,-9.923169 0.28349,-4.535714 1.60595,1.936939 1.7009,3.685267 3.21282,3.496279 1.51191,-0.188989 2.21924,-13.52133 3.16417,-13.9938 0.94496,-0.47247 2.26787,0.377976 1.79541,2.645832 -0.47248,2.267858 -1.55778,5.631079 -1.17979,6.387032 0.37797,0.755952 2.17336,1.700892 2.83483,-0.566965 0.66146,-2.267858 2.74034,-9.685641 3.77979,-9.307663 1.03944,0.377976 1.7009,0.377976 1.22842,2.267856 -0.47248,1.889882 -4.25037,9.116039 -2.92934,9.638394 4.18917,1.656443 3.75784,-10.069028 6.33113,-10.48884 1.22844,0.09449 1.70091,2.456846 0.85045,3.96875 -0.85045,1.511904 -5.0082,9.071429 -3.87425,9.165922 2.46212,0.707494 3.15191,-4.76466 4.86783,-4.732232 1.57294,0.02973 0.97917,1.31614 0.32934,2.464376 -6.98269,12.389138 -9.19078,10.891874 -10.86685,12.095236 -5.22523,6.933088 -15.59161,27.308781 -20.03285,34.584822 -3.90797,6.402375 -4.38078,9.990994 -7.55958,11.528274 -3.1788,1.53728 -5.00821,2.45684 -7.37057,-0.66146 -8.24489,-11.737878 -8.95346,-39.061282 -17.72028,-44.681099 -1.32293,-1.039435 -2.77915,44.904209 -0.63575,55.628979 1.78482,8.9306 10.61191,27.17213 13.15882,37.43308 1.73964,7.00855 4.55212,26.50005 3.02383,47.625 -1.31323,18.1523 -15.61812,78.05054 -3.4018,86.17857 3.77979,1.88988 13.89071,6.52009 14.83564,7.37054 0.94495,0.85045 1.22845,3.49628 0.66148,4.34673 -5.13636,2.92529 -12.54916,2.47806 -14.36319,1.88987 -5.38619,-1.79539 -13.47196,-5.23074 -15.92882,-8.34905 -2.45684,-3.1183 5.099,-4.5879 3.04628,-9.82622 -3.10535,-7.92454 -5.54836,-34.21387 -6.77233,-39.27711 -5.49014,-22.71136 -5.63959,-89.37547 -18.20541,-89.52965 -11.35816,3.08604 -19.51479,79.0441 -18.02691,89.52965 0.73183,5.15741 -3.66696,31.35257 -6.77229,39.27711 -2.05271,5.23832 5.5031,6.70792 3.04625,9.82622 -2.45684,3.11831 -10.54256,6.55366 -15.928719,8.34905 -1.81402,0.58819 -9.226775,1.03542 -14.363097,-1.88987 -0.566965,-0.85045 -0.283479,-3.49628 0.661459,-4.34673 0.944941,-0.85045 11.055805,-5.48066 14.835566,-7.37054 12.216261,-8.12803 -1.981036,-66.53995 -3.401785,-86.17857 -1.420749,-19.63863 1.284184,-40.61645 3.023809,-47.625 2.546911,-10.26095 11.373937,-28.50248 13.158757,-37.43308 2.14338,-10.72477 0.68716,-56.668414 -0.63575,-55.628979 -8.76677,5.619817 -9.475341,32.943221 -17.720181,44.681099 -2.36235,3.1183 -4.191754,2.19874 -7.370535,0.66146 -3.17878,-1.53728 -3.65158,-5.125899 -7.559524,-11.528274 -4.441219,-7.276041 -14.807548,-27.651734 -20.032738,-34.584822 -1.676056,-1.203362 -3.88415,0.293902 -10.866815,-12.095236 -0.649829,-1.148236 -1.243603,-2.434646 0.329338,-2.464376 1.715932,-0.03243 2.405723,5.439726 4.867834,4.732232 1.133929,-0.09449 -3.023809,-7.654018 -3.874256,-9.165922 -0.850446,-1.511904 -0.377976,-3.874261 0.850447,-3.96875 2.573282,0.419812 2.141967,12.145283 6.331101,10.48884 1.321033,-0.522355 -2.456845,-7.748512 -2.929316,-9.638394 -0.47247,-1.88988 0.188989,-1.88988 1.228423,-2.267856 1.039435,-0.377978 3.118304,7.039805 3.779762,9.307663 0.661459,2.267857 2.456846,1.322917 2.834822,0.566965 0.377976,-0.755953 -0.707316,-4.119174 -1.179786,-6.387032 -0.47247,-2.267856 0.850447,-3.118302 1.795387,-2.645832 0.944941,0.47247 1.652256,13.804811 3.164161,13.9938 1.511904,0.188988 1.606864,-1.55934 3.212797,-3.496279 4.466786,-5.387455 5.058901,-0.852759 0.283482,4.535714 -1.808859,2.041075 -2.929315,4.724702 -1.445091,8.780631 1.484225,4.055929 3.914456,4.46693 16.241967,30.245411 0,0 5.77764,15.866337 10.622023,-13.985121 6.697043,-41.267691 9.444868,-40.633265 14.174108,-41.081247 5.91001,-0.559832 19.26569,11.096477 21.73363,6.401933 0.87254,-1.659739 2.19845,-5.757556 1.46466,-7.110638"
       id="path1002"
       inkscape:connector-curvature="0"
       inkscape:label="corps"
       inkscape:export-filename="/home/sioban/donnees/Formations/house_of_code/projet_percu-corpo/images/jeanne-pat/position-neutre.png"
       inkscape:export-xdpi="381"
       inkscape:export-ydpi="381" />
    <path
       style="display:inline;fill:#ffffff;fill-opacity:1;stroke:#000000;stroke-width:1.36500001;stroke-linecap:square;stroke-linejoin:miter;stroke-miterlimit:4;stroke-dasharray:none;stroke-opacity:1"
       d="m 105.76475,30.649789 c 16.38593,1.217 16.37152,-32.8442101 0,-29.6003001 -8.634915,-0.78422003 -26.207375,28.2590401 0,29.6003001 z"
       id="path2115"
       inkscape:connector-curvature="0"
       inkscape:label="tête"
       inkscape:export-filename="/home/sioban/donnees/Formations/house_of_code/projet_percu-corpo/images/jeanne-pat/position-neutre.png"
       inkscape:export-xdpi="381"
       inkscape:export-ydpi="381" />
  </g>
  <g
     inkscape:label="tchi-fin"
     id="g936"
     inkscape:groupmode="layer"
     style="display:none">
    <circle
       style="display:inline;opacity:1;fill:#ffdf00;fill-opacity:1;fill-rule:nonzero;stroke:none;stroke-width:1.22606957;stroke-linecap:square;stroke-linejoin:miter;stroke-miterlimit:4;stroke-dasharray:none;stroke-opacity:1;paint-order:fill markers stroke"
       id="path954-3"
       cx="181.96237"
       cy="44.879097"
       r="15.8444"
       inkscape:label="rond" />
    <g
       transform="translate(0.13325866)"
       id="g932"
       inkscape:label="corps"
       style="display:inline;fill:#ffffff;fill-opacity:1;stroke:#060606;stroke-opacity:1">
      <path
         inkscape:connector-curvature="0"
         id="path920"
         d="m 188.2699,44.109359 c 0,0 1.60361,-3.374278 2.87314,-1.804068 1.26953,1.570207 1.23612,2.438832 1.23612,2.438832 l -1.46059,1.469993 -2.73951,1.804069 -2.47224,1.102487 -1.30294,-0.534539 0.36749,-2.104748 z"
         style="display:inline;fill:#ffffff;fill-opacity:1;stroke:#060606;stroke-width:1.36500001;stroke-linecap:butt;stroke-linejoin:miter;stroke-miterlimit:4;stroke-dasharray:none;stroke-opacity:1"
         sodipodi:nodetypes="csccccccc" />
      <path
         style="fill:#ffffff;fill-opacity:1;stroke:#060606;stroke-width:1.36500001;stroke-linecap:butt;stroke-linejoin:miter;stroke-miterlimit:4;stroke-dasharray:none;stroke-opacity:1"
         d="m 185.57485,41.557277 c 0,0 2.67073,-0.770196 3.16989,-0.116439 0.76643,1.154891 -1.2213,2.929315 -1.2213,2.929315"
         id="path922"
         inkscape:connector-curvature="0" />
      <path
         sodipodi:nodetypes="ccssccsccccsccccsccccssccsccscscccccsccsccccccsccccscccccscsssscscsssscsscc"
         style="fill:#ffffff;fill-opacity:1;stroke:#060606;stroke-width:1.36500001;stroke-linecap:butt;stroke-linejoin:miter;stroke-miterlimit:4;stroke-dasharray:none;stroke-opacity:1"
         d="m 109.50275,30.191851 c -0.73379,1.353082 0.59213,5.450898 1.46467,7.110637 2.46795,4.694545 15.8237,-6.961764 21.73374,-6.401932 4.72928,0.447982 7.47711,-0.186444 14.17419,41.081243 4.84441,29.851461 10.62209,13.98513 10.62209,13.98513 12.32758,-25.778485 14.75782,-26.189486 16.24205,-30.245417 1.48425,-4.055927 4.33849,-8.108484 2.29667,-9.916526 -2.52616,-2.236931 -0.91826,-6.209033 -1.36927,-6.52278 -6.14616,-4.275546 0.79975,-11.205526 2.65503,1.185258 0.37258,2.48837 0.0973,4.086172 1.6092,3.897182 0.83732,-0.104665 0.83354,-4.220095 0.82399,-7.951973 -0.0673,-3.243613 -1.49505,-1.308247 -3.67338,-0.83007 -2.23269,0.490111 0.88918,-9.270895 5.80445,-1.964568 0.6254,0.929632 -0.67686,7.29221 0.66088,6.755512 3.16663,-3.499407 -0.25409,3.03414 -4.04594,4.456717 -1.63322,0.467065 -2.79731,-1.654429 1.82977,-4.74797 3.34652,-2.2374 2.93112,-3.270502 5.06775,-3.035681 3.14765,0.345934 -0.81304,3.807698 0.10738,4.171648 0.0314,2.790372 1.69658,3.16e-4 0.0649,0.383708 -3.12088,-0.433844 -8.88151,6.958234 -3.1183,4.677455 7.60677,-5.338915 4.60588,-2.35957 5.73983,-2.265077 -0.0899,0.509915 -4.98107,3.338703 -2.28164,3.619941 2.69944,0.281237 5.24646,-2.552692 6.40973,-2.947831 1.16327,-0.395139 -8.52261,9.555527 -10.19868,10.758889 -5.22523,6.933086 -15.59161,27.308783 -20.03285,34.584823 -3.90797,6.40237 -4.38078,9.990991 -7.55958,11.528271 -3.1788,1.53728 -5.00821,2.45684 -7.37057,-0.66146 -8.24489,-11.737881 -8.95346,-39.06128 -17.72028,-44.681099 -1.32293,-1.039434 -2.77915,44.904209 -0.63575,55.628979 1.78482,8.9306 10.61191,27.17213 13.15882,37.43308 1.73964,7.00855 4.55212,26.50005 3.02383,47.625 -1.31323,18.1523 -15.61812,78.05056 -3.4018,86.17858 3.77979,1.88987 13.89071,6.52008 14.83564,7.37053 0.94495,0.85045 1.22845,3.49628 0.66148,4.34673 -5.13636,2.92529 -12.54916,2.47806 -14.36319,1.88987 -5.38619,-1.79539 -13.47196,-5.23074 -15.92882,-8.34904 -2.45684,-3.1183 5.099,-4.5879 3.04628,-9.82622 -3.10535,-7.92454 -5.54836,-34.21388 -6.77233,-39.27712 -5.49014,-22.71136 -5.63959,-89.37547 -18.20541,-89.52965 -11.358158,3.08604 -19.514788,79.0441 -18.026908,89.52965 0.73183,5.15741 -3.66696,31.35258 -6.77229,39.27712 -2.05271,5.23832 5.5031,6.70792 3.04625,9.82622 -2.45684,3.1183 -10.54256,6.55365 -15.92872,8.34904 -1.81402,0.58819 -9.22678,1.03542 -14.3631,-1.88987 -0.566965,-0.85045 -0.283479,-3.49628 0.661459,-4.34673 0.944941,-0.85045 11.055801,-5.48066 14.835571,-7.37053 12.21626,-8.12802 -1.98104,-66.53996 -3.40179,-86.17858 -1.42075,-19.63863 1.28418,-40.61645 3.02381,-47.625 2.54691,-10.26095 11.37394,-28.50248 13.15876,-37.43308 2.14338,-10.72477 0.68716,-56.668413 -0.63575,-55.628979 -8.76677,5.619819 -9.47534,32.943218 -17.72018,44.681099 -2.36235,3.1183 -4.19176,2.19874 -7.37054,0.66146 -3.17878,-1.53728 -3.65158,-5.125901 -7.559524,-11.528271 C 43.363139,82.754129 32.99681,62.378432 27.77162,55.445346 26.095564,54.241984 23.88747,55.739247 16.904805,43.350109 c -0.649829,-1.148236 -1.243603,-2.434645 0.329338,-2.464377 1.715932,-0.03243 2.405723,5.439728 4.867834,4.732232 1.133929,-0.09449 -3.023809,-7.654018 -3.874256,-9.165921 -0.850446,-1.511903 -0.377976,-3.874262 0.850447,-3.96875 2.573283,0.419812 2.141967,12.145283 6.331101,10.48884 1.321033,-0.522356 -2.456845,-7.748513 -2.929315,-9.638395 -0.472471,-1.889879 0.188989,-1.889879 1.228422,-2.267855 1.039436,-0.377978 3.118304,7.039806 3.779762,9.307664 0.661459,2.267857 2.456846,1.322916 2.834822,0.566965 0.377976,-0.755955 -0.707316,-4.119174 -1.179786,-6.387034 -0.47247,-2.267855 0.850447,-3.118303 1.795387,-2.645831 0.944941,0.472469 1.652256,13.80481 3.164161,13.993799 1.511904,0.18899 1.606864,-1.55934 3.212797,-3.496278 4.466786,-5.387456 5.058901,-0.85276 0.283482,4.535713 -1.808859,2.041075 -2.929315,4.724704 -1.445091,8.780631 1.484225,4.055931 3.914456,4.466932 16.241967,30.245417 0,0 5.777645,15.866331 10.622025,-13.98513 6.69704,-41.267687 9.44487,-40.633261 14.17411,-41.081243 5.91001,-0.559832 19.26569,11.096477 21.73363,6.401932 0.87254,-1.659739 2.198448,-5.757555 1.464658,-7.110637"
         id="path924"
         inkscape:connector-curvature="0" />
      <path
         style="display:inline;fill:#ffffff;fill-opacity:1;stroke:#060606;stroke-width:0.26458332px;stroke-linecap:butt;stroke-linejoin:miter;stroke-opacity:1"
         d="m 188.22456,41.874521 c 0.11469,0.151186 -2.44846,-0.506795 -4.7232,0.931125 -1.66375,1.051701 -2.89425,2.373918 -2.84386,3.244964 0.0114,0.329203 1.11591,-0.202826 1.45327,-0.367496 0,0 4.64831,-3.444543 6.01357,-3.157122 0.31738,0.06682 0.10022,-0.651471 0.10022,-0.651471 z"
         id="path926"
         inkscape:connector-curvature="0"
         sodipodi:nodetypes="csccsc" />
      <path
         sodipodi:nodetypes="csssssc"
         inkscape:connector-curvature="0"
         id="path928"
         d="m 184.29767,39.159351 c -0.0166,0.02232 -2.68481,2.950647 -4.19142,4.01811 -0.67508,0.478307 -1.72643,1.266276 -2.3052,0.634767 -0.61423,-0.670203 0.49417,-1.374247 0.71829,-1.536799 0.26956,-0.195514 1.90854,-1.564774 2.88985,-2.288496 0.94498,-0.696933 2.44797,-2.049359 2.53906,-2.138159 0.30793,-0.300166 0.81641,-0.329978 1.41595,-0.250608"
         style="fill:#ffffff;fill-opacity:1;stroke:#060606;stroke-width:0.26499999;stroke-linecap:round;stroke-linejoin:miter;stroke-miterlimit:4;stroke-dasharray:none;stroke-opacity:1" />
      <path
         sodipodi:nodetypes="ccc"
         inkscape:connector-curvature="0"
         id="path930"
         d="m 175.93315,34.253384 c -0.006,0.03364 -0.11442,0.546748 0.0118,0.608306 0.0773,0.0822 0.45136,0.07442 0.60535,0.01477"
         style="fill:#ffffff;fill-opacity:1;stroke:#060606;stroke-width:0.26499999;stroke-linecap:square;stroke-linejoin:miter;stroke-miterlimit:4;stroke-dasharray:none;stroke-opacity:1" />
    </g>
    <path
       inkscape:connector-curvature="0"
       id="path934"
       d="m 103.15418,30.649789 c -16.385929,1.217001 -16.371519,-32.8442096 0,-29.6002996 8.63491,-0.78421996 26.20737,28.2590396 0,29.6002996 z"
       style="display:inline;fill:#ffffff;fill-opacity:1;stroke:#000000;stroke-width:1.36500001;stroke-linecap:butt;stroke-linejoin:miter;stroke-miterlimit:4;stroke-dasharray:none;stroke-opacity:1"
       inkscape:label="tête" />
  </g>
  <g
     inkscape:groupmode="layer"
     id="g952"
     inkscape:label="tchi-début"
     style="display:none">
    <circle
       style="display:inline;opacity:1;fill:#ffdf00;fill-opacity:1;fill-rule:nonzero;stroke:none;stroke-width:1.22607732;stroke-linecap:square;stroke-linejoin:miter;stroke-miterlimit:4;stroke-dasharray:none;stroke-opacity:1;paint-order:fill markers stroke"
       id="path954"
       cx="181.96249"
       cy="44.878502"
       r="15.8445"
       inkscape:label="rond" />
    <g
       style="display:inline"
       transform="translate(-3.2120385e-6)"
       id="g948"
       inkscape:label="corps">
      <path
         sodipodi:nodetypes="csccccccc"
         style="fill:#ffffff;fill-opacity:1;stroke:#000000;stroke-width:1.36500001;stroke-linecap:butt;stroke-linejoin:miter;stroke-miterlimit:4;stroke-dasharray:none;stroke-opacity:1"
         d="m 188.22457,43.995974 c 0,0 2.3386,-4.510173 3.60813,-2.939963 1.26953,1.570207 1.23612,2.438832 1.23612,2.438832 l -1.46059,1.469993 -2.73951,1.804069 -2.47224,1.102487 -1.30294,-0.534539 0.43431,-1.102487 z"
         id="path938"
         inkscape:connector-curvature="0" />
      <path
         style="fill:none;fill-opacity:1;stroke:#000000;stroke-width:1.36500001;stroke-linecap:butt;stroke-linejoin:miter;stroke-miterlimit:4;stroke-dasharray:none;stroke-opacity:1"
         d="m 185.57485,41.557277 c 0,0 2.67073,-0.770196 3.16989,-0.116439 0.76643,1.154891 -1.2213,2.929315 -1.2213,2.929315"
         id="path940"
         inkscape:connector-curvature="0" />
      <path
         style="fill:#ffffff;fill-opacity:1;stroke:#000000;stroke-width:1.36500001;stroke-linecap:square;stroke-linejoin:miter;stroke-miterlimit:4;stroke-dasharray:none;stroke-opacity:1"
         d="m 109.50275,30.191851 c -0.73379,1.353082 0.59213,5.450898 1.46467,7.110637 2.46795,4.694545 15.8237,-6.961764 21.73374,-6.401932 4.72928,0.447982 7.47711,-0.186444 14.17419,41.081243 4.84441,29.851461 10.62209,13.98513 10.62209,13.98513 12.32758,-25.778485 14.75782,-26.189486 16.24205,-30.245417 1.48425,-4.055927 4.10555,-7.875451 2.29667,-9.916526 -1.0949,-1.235461 -1.29392,-3.166782 -2.43835,-3.515998 -7.36213,-2.246511 -0.61601,-5.565861 2.85548,-1.42062 1.60595,1.936938 0.96591,3.685268 2.47783,3.496278 0.83732,-0.104665 0.83354,-4.220095 0.82399,-7.951973 -0.008,-3.006576 -2.89229,-7.234184 -2.47067,-7.444991 0.20152,-2.284587 3.09172,-2.449783 4.60174,4.650353 0.29503,1.08088 -0.67686,7.29221 0.66088,6.755512 3.16663,-3.499407 -4.19632,-1.108538 -7.98817,0.314039 -1.63322,0.467065 -3.01974,-2.753364 2.43113,-3.879344 5.05198,-1.043582 7.01318,-3.266164 9.14361,-3.035681 3.14823,0.340594 -1.54803,7.08175 -0.62761,7.4457 0.0314,2.790372 1.69658,3.16e-4 0.0649,0.383708 -3.12088,-0.433844 -8.88151,6.958234 -3.1183,4.677455 7.60677,-5.338915 4.60588,-2.35957 5.73983,-2.265077 -0.0899,0.509915 -4.98107,3.338703 -2.28164,3.619941 2.69944,0.281237 5.91463,-3.88904 7.0779,-4.284179 1.16327,-0.395139 -9.19078,10.891875 -10.86685,12.095237 -5.22523,6.933086 -15.59161,27.308783 -20.03285,34.584823 -3.90797,6.40237 -4.38078,9.990991 -7.55958,11.528271 -3.1788,1.53728 -5.00821,2.45684 -7.37057,-0.66146 -8.24489,-11.737881 -8.95346,-39.06128 -17.72028,-44.681099 -1.32293,-1.039434 -2.77915,44.904209 -0.63575,55.628979 1.78482,8.9306 10.61191,27.17213 13.15882,37.43308 1.73964,7.00855 4.55212,26.50005 3.02383,47.625 -1.31323,18.1523 -15.61812,78.05056 -3.4018,86.17858 3.77979,1.88987 13.89071,6.52008 14.83564,7.37053 0.94495,0.85045 1.22845,3.49628 0.66148,4.34673 -5.13636,2.92529 -12.54916,2.47806 -14.36319,1.88987 -5.38619,-1.79539 -13.47196,-5.23074 -15.92882,-8.34904 -2.45684,-3.1183 5.099,-4.5879 3.04628,-9.82622 -3.10535,-7.92454 -5.54836,-34.21388 -6.77233,-39.27712 -5.49014,-22.71136 -5.63959,-89.37547 -18.20541,-89.52965 -11.358158,3.08604 -19.514788,79.0441 -18.026908,89.52965 0.73183,5.15741 -3.66696,31.35258 -6.77229,39.27712 -2.05271,5.23832 5.5031,6.70792 3.04625,9.82622 -2.45684,3.1183 -10.54256,6.55365 -15.92872,8.34904 -1.81402,0.58819 -9.22678,1.03542 -14.3631,-1.88987 -0.566965,-0.85045 -0.283479,-3.49628 0.661459,-4.34673 0.944941,-0.85045 11.055801,-5.48066 14.835571,-7.37053 12.21626,-8.12802 -1.98104,-66.53996 -3.40179,-86.17858 -1.42075,-19.63863 1.28418,-40.61645 3.02381,-47.625 2.54691,-10.26095 11.37394,-28.50248 13.15876,-37.43308 2.14338,-10.72477 0.68716,-56.668413 -0.63575,-55.628979 -8.76677,5.619819 -9.47534,32.943218 -17.72018,44.681099 -2.36235,3.1183 -4.19176,2.19874 -7.37054,0.66146 -3.17878,-1.53728 -3.65158,-5.125901 -7.559524,-11.528271 C 43.363139,82.754129 32.99681,62.378432 27.77162,55.445346 26.095564,54.241984 23.88747,55.739247 16.904805,43.350109 c -0.649829,-1.148236 -1.243603,-2.434645 0.329338,-2.464377 1.715932,-0.03243 2.405723,5.439728 4.867834,4.732232 1.133929,-0.09449 -3.023809,-7.654018 -3.874256,-9.165921 -0.850446,-1.511903 -0.377976,-3.874262 0.850447,-3.96875 2.573283,0.419812 2.141967,12.145283 6.331101,10.48884 1.321033,-0.522356 -2.456845,-7.748513 -2.929315,-9.638395 -0.472471,-1.889879 0.188989,-1.889879 1.228422,-2.267855 1.039436,-0.377978 3.118304,7.039806 3.779762,9.307664 0.661459,2.267857 2.456846,1.322916 2.834822,0.566965 0.377976,-0.755955 -0.707316,-4.119174 -1.179786,-6.387034 -0.47247,-2.267855 0.850447,-3.118303 1.795387,-2.645831 0.944941,0.472469 1.652256,13.80481 3.164161,13.993799 1.511904,0.18899 1.606864,-1.55934 3.212797,-3.496278 4.466786,-5.387456 5.058901,-0.85276 0.283482,4.535713 -1.808859,2.041075 -2.929315,4.724704 -1.445091,8.780631 1.484225,4.055931 3.914456,4.466932 16.241967,30.245417 0,0 5.777645,15.866331 10.622025,-13.98513 6.69704,-41.267687 9.44487,-40.633261 14.17411,-41.081243 5.91001,-0.559832 19.26569,11.096477 21.73363,6.401932 0.87254,-1.659739 2.198448,-5.757555 1.464658,-7.110637"
         id="path942"
         inkscape:connector-curvature="0" />
      <path
         sodipodi:nodetypes="cszczzzzc"
         inkscape:connector-curvature="0"
         id="path944"
         d="m 185.71349,38.337808 c 0.0213,-0.06133 0.79971,-2.176493 0.94769,-2.637484 0,0 0.51135,-1.587637 -1.13393,-1.42922 -1.64529,0.158416 -3.75512,2.142434 -8.87063,3.130113 -1.67934,0.468609 -2.85207,1.236213 -2.92932,1.618212 -0.0772,0.381999 -0.22694,0.985622 0.35436,1.15755 0.5813,0.171929 1.1985,-0.392207 2.24423,-0.708703 1.04573,-0.316496 2.35732,-0.767603 3.66165,-1.110304 1.30432,-0.342701 3.47263,-0.796418 3.82557,0.387636"
         style="fill:#ffffff;fill-opacity:1;stroke:#010000;stroke-width:0.26499999;stroke-linecap:square;stroke-linejoin:miter;stroke-miterlimit:4;stroke-dasharray:none;stroke-opacity:1" />
      <path
         sodipodi:nodetypes="csccsc"
         inkscape:connector-curvature="0"
         id="path946"
         d="m 188.22456,41.874521 c 0.11469,0.151186 -2.44846,-0.506795 -4.7232,0.931125 -1.66375,1.051701 -2.89425,2.373918 -2.84386,3.244964 0.0114,0.329203 1.11591,-0.202826 1.45327,-0.367496 0,0 4.64831,-3.444543 6.01357,-3.157122 0.31738,0.06682 0.10022,-0.651471 0.10022,-0.651471 z"
         style="fill:#ffffff;fill-opacity:1;stroke:#080808;stroke-width:0.26458332px;stroke-linecap:butt;stroke-linejoin:miter;stroke-opacity:1" />
    </g>
    <path
       inkscape:connector-curvature="0"
       id="path950"
       d="M 103.56922,30.539983 C 88.344057,30.160928 87.130877,-2.1037738 103.5024,1.1401362 c 8.6349,-0.78421992 26.2741,28.0585868 0.0668,29.3998468 z"
       style="display:inline;fill:#ffffff;fill-opacity:1;stroke:#000000;stroke-width:1.36500001;stroke-linecap:butt;stroke-linejoin:miter;stroke-miterlimit:4;stroke-dasharray:none;stroke-opacity:1"
       sodipodi:nodetypes="ccc"
       inkscape:label="tête" />
  </g>
  <g
     style="display:none"
     inkscape:groupmode="layer"
     id="g874"
     inkscape:label="tchou-fin">
    <circle
       inkscape:label="rond"
       r="15.8445"
       cy="44.878502"
       cx="27.5595"
       id="circle1053"
       style="display:inline;opacity:1;fill:#ffdf00;fill-opacity:1;fill-rule:nonzero;stroke:none;stroke-width:1.22607732;stroke-linecap:square;stroke-linejoin:miter;stroke-miterlimit:4;stroke-dasharray:none;stroke-opacity:1;paint-order:fill markers stroke" />
    <g
       id="g890"
       transform="matrix(-1,0,0,1,209.31484,0)"
       inkscape:label="corps"
       inkscape:export-xdpi="142.66547"
       inkscape:export-ydpi="142.66547">
      <path
         sodipodi:nodetypes="csccccccc"
         style="display:inline;fill:#ffffff;fill-opacity:1;stroke:#000000;stroke-width:1.36500001;stroke-linecap:butt;stroke-linejoin:miter;stroke-miterlimit:4;stroke-dasharray:none;stroke-opacity:1"
         d="m 188.2699,44.109359 c 0,0 1.60361,-3.374278 2.87314,-1.804068 1.26953,1.570207 1.23612,2.438832 1.23612,2.438832 l -1.46059,1.469993 -2.73951,1.804069 -2.47224,1.102487 -1.30294,-0.534539 0.36749,-2.104748 z"
         id="path902"
         inkscape:connector-curvature="0" />
      <path
         inkscape:connector-curvature="0"
         id="path880"
         d="m 185.57485,41.557277 c 0,0 2.67073,-0.770196 3.16989,-0.116439 0.76643,1.154891 -1.2213,2.929315 -1.2213,2.929315"
         style="fill:none;fill-opacity:1;stroke:#000000;stroke-width:1.36500001;stroke-linecap:butt;stroke-linejoin:miter;stroke-miterlimit:4;stroke-dasharray:none;stroke-opacity:1" />
      <path
         inkscape:connector-curvature="0"
         id="path878"
         d="m 108.97358,30.191851 c -0.73379,1.353082 0.59213,5.450898 1.46467,7.110637 2.46795,4.694545 15.8237,-6.961764 21.73374,-6.401932 4.72928,0.447982 7.47711,-0.186444 14.17419,41.081243 4.84441,29.851461 10.62209,13.98513 10.62209,13.98513 12.32758,-25.778485 14.75782,-26.189486 16.24205,-30.245417 1.48425,-4.055927 4.33849,-8.108484 2.29667,-9.916526 -2.52616,-2.236931 -0.91826,-6.209033 -1.36927,-6.52278 -6.14616,-4.275546 0.79975,-11.205526 2.65503,1.185258 0.37258,2.48837 0.0973,4.086172 1.6092,3.897182 0.83732,-0.104665 0.83354,-4.220095 0.82399,-7.951973 -0.0673,-3.243613 -1.49505,-1.308247 -3.67338,-0.83007 -2.23269,0.490111 0.88918,-9.270895 5.80445,-1.964568 0.6254,0.929632 -0.67686,7.29221 0.66088,6.755512 3.16663,-3.499407 -0.25409,3.03414 -4.04594,4.456717 -1.63322,0.467065 -2.79731,-1.654429 1.82977,-4.74797 3.34652,-2.2374 2.93112,-3.270502 5.06775,-3.035681 3.14765,0.345934 -0.81304,3.807698 0.10738,4.171648 0.0314,2.790372 1.69658,3.16e-4 0.0649,0.383708 -3.12088,-0.433844 -8.88151,6.958234 -3.1183,4.677455 7.60677,-5.338915 4.60588,-2.35957 5.73983,-2.265077 -0.0899,0.509915 -4.98107,3.338703 -2.28164,3.619941 2.69944,0.281237 5.24646,-2.552692 6.40973,-2.947831 1.16327,-0.395139 -8.52261,9.555527 -10.19868,10.758889 -5.22523,6.933086 -15.59161,27.308783 -20.03285,34.584823 -3.90797,6.40237 -4.38078,9.990991 -7.55958,11.528271 -3.1788,1.53728 -5.00821,2.45684 -7.37057,-0.66146 -8.24489,-11.737881 -8.95346,-39.06128 -17.72028,-44.681099 -1.32293,-1.039434 -2.77915,44.904209 -0.63575,55.628979 1.78482,8.9306 10.61191,27.17213 13.15882,37.43308 1.73964,7.00855 4.55212,26.50005 3.02383,47.625 -1.31323,18.1523 -15.61812,78.05056 -3.4018,86.17858 3.77979,1.88987 13.89071,6.52008 14.83564,7.37053 0.94495,0.85045 1.22845,3.49628 0.66148,4.34673 -5.13636,2.92529 -12.54916,2.47806 -14.36319,1.88987 -5.38619,-1.79539 -13.47196,-5.23074 -15.92882,-8.34904 -2.45684,-3.1183 5.099,-4.5879 3.04628,-9.82622 -3.10535,-7.92454 -5.54836,-34.21388 -6.77233,-39.27712 -5.49014,-22.71136 -5.63959,-89.37547 -18.20541,-89.52965 -11.358155,3.08604 -19.514785,79.0441 -18.026905,89.52965 0.73183,5.15741 -3.66696,31.35258 -6.77229,39.27712 -2.05271,5.23832 5.5031,6.70792 3.04625,9.82622 -2.45684,3.1183 -10.54256,6.55365 -15.92872,8.34904 -1.81402,0.58819 -9.22678,1.03542 -14.3631,-1.88987 -0.566965,-0.85045 -0.283479,-3.49628 0.661459,-4.34673 0.944941,-0.85045 11.055801,-5.48066 14.835571,-7.37053 12.21626,-8.12802 -1.98104,-66.53996 -3.40179,-86.17858 -1.42075,-19.63863 1.28418,-40.61645 3.02381,-47.625 2.54691,-10.26095 11.37394,-28.50248 13.15876,-37.43308 2.14338,-10.72477 0.68716,-56.668413 -0.63575,-55.628979 -8.76677,5.619819 -9.47534,32.943218 -17.72018,44.681099 -2.36235,3.1183 -4.19176,2.19874 -7.37054,0.66146 -3.17878,-1.53728 -3.65158,-5.125901 -7.559524,-11.528271 -4.441239,-7.27604 -14.807568,-27.651737 -20.032758,-34.584823 -1.676056,-1.203362 -3.88415,0.293901 -10.866815,-12.095237 -0.649829,-1.148236 -1.243603,-2.434645 0.329338,-2.464377 1.715932,-0.03243 2.405723,5.439728 4.867834,4.732232 1.133929,-0.09449 -3.023809,-7.654018 -3.874256,-9.165921 -0.850446,-1.511903 -0.377976,-3.874262 0.850447,-3.96875 2.573283,0.419812 2.141967,12.145283 6.331101,10.48884 1.321033,-0.522356 -2.456845,-7.748513 -2.929315,-9.638395 -0.472471,-1.889879 0.188989,-1.889879 1.228422,-2.267855 1.039436,-0.377978 3.118304,7.039806 3.779762,9.307664 0.661459,2.267857 2.456846,1.322916 2.834822,0.566965 0.377976,-0.755955 -0.707316,-4.119174 -1.179786,-6.387034 -0.47247,-2.267855 0.850447,-3.118303 1.795387,-2.645831 0.944941,0.472469 1.652256,13.80481 3.164161,13.993799 1.511904,0.18899 1.606864,-1.55934 3.212797,-3.496278 4.466786,-5.387456 5.058901,-0.85276 0.283482,4.535713 -1.808859,2.041075 -2.929315,4.724704 -1.445091,8.780631 1.484225,4.055931 3.914456,4.466932 16.241967,30.245417 0,0 5.777645,15.866331 10.622025,-13.98513 6.69704,-41.267687 9.44487,-40.633261 14.17411,-41.081243 5.91001,-0.559832 19.26569,11.096477 21.73363,6.401932 0.87254,-1.659739 2.198445,-5.757555 1.464658,-7.110637"
         style="fill:#ffffff;fill-opacity:1;stroke:#000000;stroke-width:1.36500001;stroke-linecap:butt;stroke-linejoin:miter;stroke-miterlimit:4;stroke-dasharray:none;stroke-opacity:1"
         sodipodi:nodetypes="ccssccsccccsccccsccccssccsccscscccccsccsccccccsccccscccccscsssscscsssscsscc" />
      <path
         sodipodi:nodetypes="csccsc"
         inkscape:connector-curvature="0"
         id="path868"
         d="m 188.41355,41.543792 c 0.11469,0.151186 -3.15717,-0.128819 -5.43191,1.309101 -1.66375,1.051701 -2.89425,2.373918 -2.84386,3.244964 0.0114,0.329203 1.35215,-0.108332 1.68951,-0.273002 0,0 4.93179,-3.397296 6.29705,-3.109875 0.31738,0.06682 0.28921,-1.171188 0.28921,-1.171188 z"
         style="display:inline;fill:#ffffff;fill-opacity:1;stroke:#080808;stroke-width:0.26458332px;stroke-linecap:butt;stroke-linejoin:miter;stroke-opacity:1" />
      <path
         style="fill:#ffffff;fill-opacity:1;stroke:#030303;stroke-width:0.26499999;stroke-linecap:round;stroke-linejoin:miter;stroke-miterlimit:4;stroke-dasharray:none;stroke-opacity:1"
         d="m 183.7685,39.159351 c -0.0166,0.02232 -2.68481,2.950647 -4.19142,4.01811 -0.67508,0.478307 -1.72643,1.266276 -2.3052,0.634767 -0.61423,-0.670203 0.49417,-1.374247 0.71829,-1.536799 0.26956,-0.195514 1.34158,-1.328539 2.32289,-2.052261 0.94498,-0.696933 3.01493,-2.285594 3.10602,-2.374394 0.30793,-0.300166 0.81641,-0.329978 1.41595,-0.250608"
         id="path870"
         inkscape:connector-curvature="0"
         sodipodi:nodetypes="csssssc" />
      <path
         style="fill:#ffffff;fill-opacity:1;stroke:#000000;stroke-width:0.26499999;stroke-linecap:square;stroke-linejoin:miter;stroke-miterlimit:4;stroke-dasharray:none;stroke-opacity:1"
         d="m 175.41343,34.241572 c -0.006,0.03364 -0.11442,0.546748 0.0118,0.608306 0.0773,0.0822 0.49861,0.07442 0.6526,0.01477"
         id="path872"
         inkscape:connector-curvature="0"
         sodipodi:nodetypes="ccc" />
    </g>
    <path
       style="fill:#ffffff;fill-opacity:1;stroke:#000000;stroke-width:1.36500001;stroke-linecap:butt;stroke-linejoin:miter;stroke-miterlimit:4;stroke-dasharray:none;stroke-opacity:1"
       d="m 105.76475,30.649789 c 16.38593,1.217001 16.37152,-32.8442096 0,-29.6002996 -8.634918,-0.78421996 -26.207378,28.2590396 0,29.6002996 z"
       id="path866"
       inkscape:connector-curvature="0"
       inkscape:label="tête"
       inkscape:export-xdpi="142.66547"
       inkscape:export-ydpi="142.66547" />
  </g>
  <g
     style="display:none"
     inkscape:label="tchou-début"
     id="g849"
     inkscape:groupmode="layer">
    <circle
       inkscape:label="rond"
       r="15.8445"
       cy="44.878502"
       cx="27.559418"
       id="circle1022"
       style="display:inline;opacity:1;fill:#ffdf00;fill-opacity:1;fill-rule:nonzero;stroke:none;stroke-width:1.22607732;stroke-linecap:square;stroke-linejoin:miter;stroke-miterlimit:4;stroke-dasharray:none;stroke-opacity:1;paint-order:fill markers stroke" />
    <g
       id="g864"
       transform="matrix(-1,0,0,1,209.84401,0)"
       style="display:inline"
       inkscape:label="corps">
      <path
         inkscape:connector-curvature="0"
         id="path857"
         d="m 188.22457,43.995974 c 0,0 2.3386,-4.510173 3.60813,-2.939963 1.26953,1.570207 1.23612,2.438832 1.23612,2.438832 l -1.46059,1.469993 -2.73951,1.804069 -2.47224,1.102487 -1.30294,-0.534539 0.43431,-1.102487 z"
         style="fill:#ffffff;fill-opacity:1;stroke:#000000;stroke-width:1.36500001;stroke-linecap:butt;stroke-linejoin:miter;stroke-miterlimit:4;stroke-dasharray:none;stroke-opacity:1"
         sodipodi:nodetypes="csccccccc" />
      <path
         inkscape:connector-curvature="0"
         id="path855"
         d="m 185.57485,41.557277 c 0,0 2.67073,-0.770196 3.16989,-0.116439 0.76643,1.154891 -1.2213,2.929315 -1.2213,2.929315"
         style="fill:none;fill-opacity:1;stroke:#000000;stroke-width:1.36500001;stroke-linecap:butt;stroke-linejoin:miter;stroke-miterlimit:4;stroke-dasharray:none;stroke-opacity:1" />
      <path
         inkscape:connector-curvature="0"
         id="path853"
         d="m 109.50275,30.191851 c -0.73379,1.353082 0.59213,5.450898 1.46467,7.110637 2.46795,4.694545 15.8237,-6.961764 21.73374,-6.401932 4.72928,0.447982 7.47711,-0.186444 14.17419,41.081243 4.84441,29.851461 10.62209,13.98513 10.62209,13.98513 12.32758,-25.778485 14.75782,-26.189486 16.24205,-30.245417 1.48425,-4.055927 4.10555,-7.875451 2.29667,-9.916526 -1.0949,-1.235461 -1.29392,-3.166782 -2.43835,-3.515998 -7.36213,-2.246511 -0.61601,-5.565861 2.85548,-1.42062 1.60595,1.936938 0.96591,3.685268 2.47783,3.496278 0.83732,-0.104665 0.83354,-4.220095 0.82399,-7.951973 -0.008,-3.006576 -2.89229,-7.234184 -2.47067,-7.444991 0.20152,-2.284587 3.09172,-2.449783 4.60174,4.650353 0.29503,1.08088 -0.67686,7.29221 0.66088,6.755512 3.16663,-3.499407 -4.19632,-1.108538 -7.98817,0.314039 -1.63322,0.467065 -3.01974,-2.753364 2.43113,-3.879344 5.05198,-1.043582 7.01318,-3.266164 9.14361,-3.035681 3.14823,0.340594 -1.54803,7.08175 -0.62761,7.4457 0.0314,2.790372 1.69658,3.16e-4 0.0649,0.383708 -3.12088,-0.433844 -8.88151,6.958234 -3.1183,4.677455 7.60677,-5.338915 4.60588,-2.35957 5.73983,-2.265077 -0.0899,0.509915 -4.98107,3.338703 -2.28164,3.619941 2.69944,0.281237 5.91463,-3.88904 7.0779,-4.284179 1.16327,-0.395139 -9.19078,10.891875 -10.86685,12.095237 -5.22523,6.933086 -15.59161,27.308783 -20.03285,34.584823 -3.90797,6.40237 -4.38078,9.990991 -7.55958,11.528271 -3.1788,1.53728 -5.00821,2.45684 -7.37057,-0.66146 -8.24489,-11.737881 -8.95346,-39.06128 -17.72028,-44.681099 -1.32293,-1.039434 -2.77915,44.904209 -0.63575,55.628979 1.78482,8.9306 10.61191,27.17213 13.15882,37.43308 1.73964,7.00855 4.55212,26.50005 3.02383,47.625 -1.31323,18.1523 -15.61812,78.05056 -3.4018,86.17858 3.77979,1.88987 13.89071,6.52008 14.83564,7.37053 0.94495,0.85045 1.22845,3.49628 0.66148,4.34673 -5.13636,2.92529 -12.54916,2.47806 -14.36319,1.88987 -5.38619,-1.79539 -13.47196,-5.23074 -15.92882,-8.34904 -2.45684,-3.1183 5.099,-4.5879 3.04628,-9.82622 -3.10535,-7.92454 -5.54836,-34.21388 -6.77233,-39.27712 -5.49014,-22.71136 -5.63959,-89.37547 -18.20541,-89.52965 -11.358158,3.08604 -19.514788,79.0441 -18.026908,89.52965 0.73183,5.15741 -3.66696,31.35258 -6.77229,39.27712 -2.05271,5.23832 5.5031,6.70792 3.04625,9.82622 -2.45684,3.1183 -10.54256,6.55365 -15.92872,8.34904 -1.81402,0.58819 -9.22678,1.03542 -14.3631,-1.88987 -0.566965,-0.85045 -0.283479,-3.49628 0.661459,-4.34673 0.944941,-0.85045 11.055801,-5.48066 14.835571,-7.37053 12.21626,-8.12802 -1.98104,-66.53996 -3.40179,-86.17858 -1.42075,-19.63863 1.28418,-40.61645 3.02381,-47.625 2.54691,-10.26095 11.37394,-28.50248 13.15876,-37.43308 2.14338,-10.72477 0.68716,-56.668413 -0.63575,-55.628979 -8.76677,5.619819 -9.47534,32.943218 -17.72018,44.681099 -2.36235,3.1183 -4.19176,2.19874 -7.37054,0.66146 -3.17878,-1.53728 -3.65158,-5.125901 -7.559524,-11.528271 C 43.363139,82.754129 32.99681,62.378432 27.77162,55.445346 26.095564,54.241984 23.88747,55.739247 16.904805,43.350109 c -0.649829,-1.148236 -1.243603,-2.434645 0.329338,-2.464377 1.715932,-0.03243 2.405723,5.439728 4.867834,4.732232 1.133929,-0.09449 -3.023809,-7.654018 -3.874256,-9.165921 -0.850446,-1.511903 -0.377976,-3.874262 0.850447,-3.96875 2.573283,0.419812 2.141967,12.145283 6.331101,10.48884 1.321033,-0.522356 -2.456845,-7.748513 -2.929315,-9.638395 -0.472471,-1.889879 0.188989,-1.889879 1.228422,-2.267855 1.039436,-0.377978 3.118304,7.039806 3.779762,9.307664 0.661459,2.267857 2.456846,1.322916 2.834822,0.566965 0.377976,-0.755955 -0.707316,-4.119174 -1.179786,-6.387034 -0.47247,-2.267855 0.850447,-3.118303 1.795387,-2.645831 0.944941,0.472469 1.652256,13.80481 3.164161,13.993799 1.511904,0.18899 1.606864,-1.55934 3.212797,-3.496278 4.466786,-5.387456 5.058901,-0.85276 0.283482,4.535713 -1.808859,2.041075 -2.929315,4.724704 -1.445091,8.780631 1.484225,4.055931 3.914456,4.466932 16.241967,30.245417 0,0 5.777645,15.866331 10.622025,-13.98513 6.69704,-41.267687 9.44487,-40.633261 14.17411,-41.081243 5.91001,-0.559832 19.26569,11.096477 21.73363,6.401932 0.87254,-1.659739 2.198448,-5.757555 1.464658,-7.110637"
         style="fill:#ffffff;fill-opacity:1;stroke:#000000;stroke-width:1.36500001;stroke-linecap:square;stroke-linejoin:miter;stroke-miterlimit:4;stroke-dasharray:none;stroke-opacity:1" />
      <path
         style="fill:#ffffff;fill-opacity:1;stroke:#010000;stroke-width:0.26499999;stroke-linecap:square;stroke-linejoin:miter;stroke-miterlimit:4;stroke-dasharray:none;stroke-opacity:1"
         d="m 185.71349,38.337808 c 0.0213,-0.06133 0.79971,-2.176493 0.94769,-2.637484 0,0 0.51135,-1.587637 -1.13393,-1.42922 -1.64529,0.158416 -3.75512,2.142434 -8.87063,3.130113 -1.67934,0.468609 -2.85207,1.236213 -2.92932,1.618212 -0.0772,0.381999 -0.22694,0.985622 0.35436,1.15755 0.5813,0.171929 1.1985,-0.392207 2.24423,-0.708703 1.04573,-0.316496 2.35732,-0.767603 3.66165,-1.110304 1.30432,-0.342701 3.47263,-0.796418 3.82557,0.387636"
         id="path845"
         inkscape:connector-curvature="0"
         sodipodi:nodetypes="cszczzzzc" />
      <path
         style="fill:#ffffff;fill-opacity:1;stroke:#080808;stroke-width:0.26458332px;stroke-linecap:butt;stroke-linejoin:miter;stroke-opacity:1"
         d="m 188.22456,41.874521 c 0.11469,0.151186 -2.44846,-0.506795 -4.7232,0.931125 -1.66375,1.051701 -2.89425,2.373918 -2.84386,3.244964 0.0114,0.329203 1.11591,-0.202826 1.45327,-0.367496 0,0 4.64831,-3.444543 6.01357,-3.157122 0.31738,0.06682 0.10022,-0.651471 0.10022,-0.651471 z"
         id="path847"
         inkscape:connector-curvature="0"
         sodipodi:nodetypes="csccsc" />
    </g>
    <path
       sodipodi:nodetypes="ccc"
       style="display:inline;fill:#ffffff;fill-opacity:1;stroke:#000000;stroke-width:1.36500001;stroke-linecap:butt;stroke-linejoin:miter;stroke-miterlimit:4;stroke-dasharray:none;stroke-opacity:1"
       d="M 105.74562,30.539983 C 120.97078,30.160928 122.18396,-2.1037738 105.81244,1.1401362 97.177538,0.35591628 79.538334,29.198723 105.74562,30.539983 Z"
       id="path1737-3"
       inkscape:connector-curvature="0"
       inkscape:label="tête" />
  </g>
  <g
     inkscape:groupmode="layer"
     id="g893"
     inkscape:label="bou"
     style="display:none">
    <g
       inkscape:label="corps"
       style="display:inline"
       transform="matrix(-1,0,0,1,209.84401,0)"
       id="g889">
      <path
         sodipodi:nodetypes="cssssccccscscccccsccsccccccsccccscccccscsssscscsssscsscc"
         inkscape:connector-curvature="0"
         id="path883"
         d="m 109.4555,29.711275 c -0.73379,1.353082 0.63691,5.495466 2.50411,5.323356 5.34368,-0.492557 15.09528,-5.44124 20.74155,-4.134075 2.5781,0.596853 5.96788,1.116752 8.41079,8.438516 1.94247,5.821854 2.48792,15.724628 7.65328,32.642727 7.22673,23.669693 6.27536,28.489971 6.27536,28.489971 l -7.88173,0.42521 c -8.24489,-11.737881 -9.53198,-38.2475 -17.72028,-44.681099 -0.32264,-0.253498 -0.6532,2.28745 -0.93755,6.430468 -0.88157,12.84488 -1.31887,41.089301 0.3018,49.198511 1.78482,8.9306 10.61191,27.17213 13.15882,37.43308 1.73964,7.00855 4.55212,26.50005 3.02383,47.625 -1.31323,18.1523 -15.61812,78.05056 -3.4018,86.17858 3.77979,1.88987 13.89071,6.52008 14.83564,7.37053 0.94495,0.85045 1.22845,3.49628 0.66148,4.34673 -5.13636,2.92529 -12.54916,2.47806 -14.36319,1.88987 -5.38619,-1.79539 -13.47196,-5.23074 -15.92882,-8.34904 -2.45684,-3.1183 5.099,-4.5879 3.04628,-9.82622 -3.10535,-7.92454 -5.54836,-34.21388 -6.77233,-39.27712 -5.49014,-22.71136 -5.63959,-89.37547 -18.20541,-89.52965 -11.358158,3.08604 -19.514788,79.0441 -18.026908,89.52965 0.73183,5.15741 -3.66696,31.35258 -6.77229,39.27712 -2.05271,5.23832 5.5031,6.70792 3.04625,9.82622 -2.45684,3.1183 -10.54256,6.55365 -15.92872,8.34904 -1.81402,0.58819 -9.22678,1.03542 -14.3631,-1.88987 -0.566965,-0.85045 -0.283479,-3.49628 0.661459,-4.34673 0.944941,-0.85045 11.055801,-5.48066 14.835571,-7.37053 12.21626,-8.12802 -1.98104,-66.53996 -3.40179,-86.17858 -1.42075,-19.63863 1.28418,-40.61645 3.02381,-47.625 2.54691,-10.26095 11.37394,-28.50248 13.15876,-37.43308 2.14338,-10.72477 0.68716,-56.668413 -0.63575,-55.628979 -8.76677,5.619819 -9.47534,32.943218 -17.72018,44.681099 -2.36235,3.1183 -4.19176,2.19874 -7.37054,0.66146 -3.17878,-1.53728 -3.65158,-5.125901 -7.559524,-11.528271 C 43.363139,82.754129 32.99681,62.378432 27.77162,55.445346 26.095564,54.241984 23.88747,55.739247 16.904805,43.350109 c -0.649829,-1.148236 -1.243603,-2.434647 0.329338,-2.464377 1.715932,-0.03243 2.405723,5.439728 4.867834,4.732232 1.133929,-0.09449 -3.023809,-7.654018 -3.874256,-9.165921 -0.850446,-1.511903 -0.377976,-3.87426 0.850447,-3.96875 2.573283,0.419812 2.141967,12.145283 6.331101,10.48884 1.321033,-0.522356 -2.456845,-7.748513 -2.929315,-9.638395 -0.472471,-1.889879 0.188989,-1.889879 1.228422,-2.267855 1.039436,-0.377978 3.118304,7.039806 3.779762,9.307664 0.661459,2.267857 2.456846,1.322916 2.834822,0.566965 0.377976,-0.755955 -0.707316,-4.119174 -1.179786,-6.387034 -0.47247,-2.267855 0.850447,-3.118303 1.795387,-2.645831 0.944941,0.472469 1.652256,13.80481 3.164161,13.993799 1.511904,0.18899 1.606864,-1.55934 3.212797,-3.496278 4.466786,-5.387456 5.058901,-0.85276 0.283482,4.535713 -1.808859,2.041075 -2.929315,4.724704 -1.445091,8.780631 1.484225,4.055931 3.914456,4.466932 16.241967,30.245417 0,0 5.777645,15.866331 10.622025,-13.98513 6.69704,-41.267687 9.44487,-40.633261 14.17411,-41.081243 5.91001,-0.559832 19.26569,11.096477 21.73363,6.401932 0.872541,-1.659739 2.265268,-6.241981 1.531478,-7.595063"
         style="display:inline;fill:#ffffff;fill-opacity:1;stroke:#000000;stroke-width:1.36500001;stroke-linecap:square;stroke-linejoin:miter;stroke-miterlimit:4;stroke-dasharray:none;stroke-opacity:1" />
      <circle
         inkscape:label="rond"
         r="15.8444"
         cy="46.466434"
         cx="116.01342"
         id="circle1050"
         style="display:inline;opacity:1;fill:#ffdf00;fill-opacity:1;fill-rule:nonzero;stroke:none;stroke-width:1.22606957;stroke-linecap:square;stroke-linejoin:miter;stroke-miterlimit:4;stroke-dasharray:none;stroke-opacity:1;paint-order:fill markers stroke" />
      <path
         inkscape:connector-curvature="0"
         id="path885"
         d="m 147.15886,100.89698 c 2.36236,3.1183 3.95553,2.22236 7.63438,0.44514 3.82918,-1.844035 -8.54276,-15.426156 -13.376,-21.328319 -5.67382,-6.928639 -15.2122,-15.254699 -16.51284,-19.926352 -1.43831,-3.932006 -0.31786,-6.615635 1.491,-8.65671 4.77542,-5.388473 4.18331,-9.923169 -0.28348,-4.535713 -1.60593,1.936938 -1.70089,3.685268 -3.2128,3.496278 -1.5119,-0.188989 -4.29056,-13.25406 -5.2355,-13.726529 -0.94494,-0.472472 -2.81909,0.645246 -2.34662,2.913101 0.47247,2.26786 2.02548,5.163357 1.98159,6.253399 0.15657,0.822768 -0.30247,1.433622 -0.96393,-0.834235 -0.66146,-2.267858 -3.34169,-9.552007 -4.38112,-9.174029 -1.03943,0.377976 -1.70089,0.377976 -1.22842,2.267855 0.47247,1.889882 3.22888,7.935144 3.59748,9.437943 0.72419,2.952539 -3.42373,-10.002211 -5.99701,-10.422023 -1.22842,0.09449 -1.70089,2.456847 -0.85045,3.96875 0.85045,1.511903 5.06026,9.614355 4.13412,8.953309 -1.47931,-1.055872 -2.34268,-4.952954 -4.05861,-4.920524 -1.57295,0.02973 -0.83743,1.457882 -0.1876,2.606118 4.72498,8.383391 5.87647,10.744398 9.06669,13.357525 1.54012,1.261519 4.00324,3.776305 5.98864,6.164785 6.14052,7.38719 13.79925,21.993756 25.74211,34.716561"
         style="display:inline;fill:#ffffff;fill-opacity:1;stroke:#000000;stroke-width:1.36500001;stroke-linecap:square;stroke-linejoin:miter;stroke-miterlimit:4;stroke-dasharray:none;stroke-opacity:1" />
      <path
         style="display:none;fill:#ffffff;fill-opacity:1;stroke:#080808;stroke-width:0.26499999;stroke-linecap:square;stroke-linejoin:miter;stroke-miterlimit:4;stroke-dasharray:none;stroke-opacity:1"
         d="m 125.71262,64.060883 c 0.70738,1.174804 4.23547,5.361107 6.41192,7.491785 1.36287,1.482613 1.85316,1.986553 5.60644,5.943731 1.37504,1.695666 3.63688,4.239422 4.75235,5.595635 3.33171,4.042672 3.21426,4.004076 8.28293,10.818908 2.76654,4.072581 2.1495,3.303965 3.19472,4.955948 0.001,-0.0347 0.81856,1.43741 0.41325,2.19113 -1.62713,0.52848 -2.66692,1.56028 -4.30972,1.28624 -1.2393,-0.20673 -1.38219,-0.76516 -2.33861,-1.65372 -4.82006,-5.209251 -10.89929,-13.481435 -15.95534,-21.119132 -5.55795,-8.703526 -6.65729,-10.90503 -12.52483,-16.63573"
         id="path887"
         inkscape:connector-curvature="0"
         sodipodi:nodetypes="cccccccsccc" />
    </g>
    <path
       inkscape:label="tête"
       inkscape:connector-curvature="0"
       id="path891"
       d="M 105.69797,30.449337 C 120.92314,30.070282 122.13632,-2.1944206 105.76477,1.0494894 97.129836,0.26526944 79.490566,29.108077 105.69797,30.449337 Z"
       style="display:inline;fill:#ffffff;fill-opacity:1;stroke:#000000;stroke-width:1.36500001;stroke-linecap:butt;stroke-linejoin:miter;stroke-miterlimit:4;stroke-dasharray:none;stroke-opacity:1"
       sodipodi:nodetypes="ccc" />
  </g>
  <g
     style="display:none"
     inkscape:label="bi"
     id="g1747"
     inkscape:groupmode="layer">
    <g
       id="g1743"
       transform="translate(-0.29213986)"
       style="display:inline"
       inkscape:label="corps">
      <path
         style="display:inline;fill:#ffffff;fill-opacity:1;stroke:#000000;stroke-width:1.36500001;stroke-linecap:square;stroke-linejoin:miter;stroke-miterlimit:4;stroke-dasharray:none;stroke-opacity:1"
         d="m 109.4555,29.711275 c -0.73379,1.353082 0.63691,5.495466 2.50411,5.323356 5.34368,-0.492557 15.09528,-5.44124 20.74155,-4.134075 2.5781,0.596853 5.96788,1.116752 8.41079,8.438516 1.94247,5.821854 2.48792,15.724628 7.65328,32.642727 7.22673,23.669693 6.27536,28.489971 6.27536,28.489971 l -7.88173,0.42521 c -8.24489,-11.737881 -9.53198,-38.2475 -17.72028,-44.681099 -0.32264,-0.253498 -0.6532,2.28745 -0.93755,6.430468 -0.88157,12.84488 -1.31887,41.089301 0.3018,49.198511 1.78482,8.9306 10.61191,27.17213 13.15882,37.43308 1.73964,7.00855 4.55212,26.50005 3.02383,47.625 -1.31323,18.1523 -15.61812,78.05056 -3.4018,86.17858 3.77979,1.88987 13.89071,6.52008 14.83564,7.37053 0.94495,0.85045 1.22845,3.49628 0.66148,4.34673 -5.13636,2.92529 -12.54916,2.47806 -14.36319,1.88987 -5.38619,-1.79539 -13.47196,-5.23074 -15.92882,-8.34904 -2.45684,-3.1183 5.099,-4.5879 3.04628,-9.82622 -3.10535,-7.92454 -5.54836,-34.21388 -6.77233,-39.27712 -5.49014,-22.71136 -5.63959,-89.37547 -18.20541,-89.52965 -11.358158,3.08604 -19.514788,79.0441 -18.026908,89.52965 0.73183,5.15741 -3.66696,31.35258 -6.77229,39.27712 -2.05271,5.23832 5.5031,6.70792 3.04625,9.82622 -2.45684,3.1183 -10.54256,6.55365 -15.92872,8.34904 -1.81402,0.58819 -9.22678,1.03542 -14.3631,-1.88987 -0.566965,-0.85045 -0.283479,-3.49628 0.661459,-4.34673 0.944941,-0.85045 11.055801,-5.48066 14.835571,-7.37053 12.21626,-8.12802 -1.98104,-66.53996 -3.40179,-86.17858 -1.42075,-19.63863 1.28418,-40.61645 3.02381,-47.625 2.54691,-10.26095 11.37394,-28.50248 13.15876,-37.43308 2.14338,-10.72477 0.68716,-56.668413 -0.63575,-55.628979 -8.76677,5.619819 -9.47534,32.943218 -17.72018,44.681099 -2.36235,3.1183 -4.19176,2.19874 -7.37054,0.66146 -3.17878,-1.53728 -3.65158,-5.125901 -7.559524,-11.528271 C 43.363139,82.754129 32.99681,62.378432 27.77162,55.445346 26.095564,54.241984 23.88747,55.739247 16.904805,43.350109 c -0.649829,-1.148236 -1.243603,-2.434647 0.329338,-2.464377 1.715932,-0.03243 2.405723,5.439728 4.867834,4.732232 1.133929,-0.09449 -3.023809,-7.654018 -3.874256,-9.165921 -0.850446,-1.511903 -0.377976,-3.87426 0.850447,-3.96875 2.573283,0.419812 2.141967,12.145283 6.331101,10.48884 1.321033,-0.522356 -2.456845,-7.748513 -2.929315,-9.638395 -0.472471,-1.889879 0.188989,-1.889879 1.228422,-2.267855 1.039436,-0.377978 3.118304,7.039806 3.779762,9.307664 0.661459,2.267857 2.456846,1.322916 2.834822,0.566965 0.377976,-0.755955 -0.707316,-4.119174 -1.179786,-6.387034 -0.47247,-2.267855 0.850447,-3.118303 1.795387,-2.645831 0.944941,0.472469 1.652256,13.80481 3.164161,13.993799 1.511904,0.18899 1.606864,-1.55934 3.212797,-3.496278 4.466786,-5.387456 5.058901,-0.85276 0.283482,4.535713 -1.808859,2.041075 -2.929315,4.724704 -1.445091,8.780631 1.484225,4.055931 3.914456,4.466932 16.241967,30.245417 0,0 5.777645,15.866331 10.622025,-13.98513 6.69704,-41.267687 9.44487,-40.633261 14.17411,-41.081243 5.91001,-0.559832 19.26569,11.096477 21.73363,6.401932 0.87254,-1.659739 2.265268,-6.241981 1.531478,-7.595063"
         id="path873"
         inkscape:connector-curvature="0"
         sodipodi:nodetypes="cssssccccscscccccsccsccccccsccccscccccscsssscscsssscsscc" />
      <circle
         style="display:inline;opacity:1;fill:#ffdf00;fill-opacity:1;fill-rule:nonzero;stroke:none;stroke-width:1.22606957;stroke-linecap:square;stroke-linejoin:miter;stroke-miterlimit:4;stroke-dasharray:none;stroke-opacity:1;paint-order:fill markers stroke"
         id="circle1043"
         cx="116.01342"
         cy="46.466434"
         r="15.8444"
         inkscape:label="rond" />
      <path
         style="display:inline;fill:#ffffff;fill-opacity:1;stroke:#000000;stroke-width:1.36500001;stroke-linecap:square;stroke-linejoin:miter;stroke-miterlimit:4;stroke-dasharray:none;stroke-opacity:1"
         d="m 147.15886,100.89698 c 2.36236,3.1183 3.95553,2.22236 7.63438,0.44514 3.82918,-1.844035 -8.54276,-15.426156 -13.376,-21.328319 -5.67382,-6.928639 -15.2122,-15.254699 -16.51284,-19.926352 -1.43831,-3.932006 -0.31786,-6.615635 1.491,-8.65671 4.77542,-5.388473 4.18331,-9.923169 -0.28348,-4.535713 -1.60593,1.936938 -1.70089,3.685268 -3.2128,3.496278 -1.5119,-0.188989 -4.29056,-13.25406 -5.2355,-13.726529 -0.94494,-0.472472 -2.81909,0.645246 -2.34662,2.913101 0.47247,2.26786 2.02548,5.163357 1.98159,6.253399 0.15657,0.822768 -0.30247,1.433622 -0.96393,-0.834235 -0.66146,-2.267858 -3.34169,-9.552007 -4.38112,-9.174029 -1.03943,0.377976 -1.70089,0.377976 -1.22842,2.267855 0.47247,1.889882 3.22888,7.935144 3.59748,9.437943 0.72419,2.952539 -3.42373,-10.002211 -5.99701,-10.422023 -1.22842,0.09449 -1.70089,2.456847 -0.85045,3.96875 0.85045,1.511903 5.06026,9.614355 4.13412,8.953309 -1.47931,-1.055872 -2.34268,-4.952954 -4.05861,-4.920524 -1.57295,0.02973 -0.83743,1.457882 -0.1876,2.606118 4.72498,8.383391 5.87647,10.744398 9.06669,13.357525 1.54012,1.261519 4.00324,3.776305 5.98864,6.164785 6.14052,7.38719 13.79925,21.993756 25.74211,34.716561"
         id="path1739"
         inkscape:connector-curvature="0" />
      <path
         sodipodi:nodetypes="cccccccsccc"
         inkscape:connector-curvature="0"
         id="path1741"
         d="m 125.71262,64.060883 c 0.70738,1.174804 4.23547,5.361107 6.41192,7.491785 1.36287,1.482613 1.85316,1.986553 5.60644,5.943731 1.37504,1.695666 3.63688,4.239422 4.75235,5.595635 3.33171,4.042672 3.21426,4.004076 8.28293,10.818908 2.76654,4.072581 2.1495,3.303965 3.19472,4.955948 0.001,-0.0347 0.81856,1.43741 0.41325,2.19113 -1.62713,0.52848 -2.66692,1.56028 -4.30972,1.28624 -1.2393,-0.20673 -1.38219,-0.76516 -2.33861,-1.65372 -4.82006,-5.209251 -10.89929,-13.481435 -15.95534,-21.119132 -5.55795,-8.703526 -6.65729,-10.90503 -12.52483,-16.63573"
         style="display:none;fill:#ffffff;fill-opacity:1;stroke:#080808;stroke-width:0.26499999;stroke-linecap:square;stroke-linejoin:miter;stroke-miterlimit:4;stroke-dasharray:none;stroke-opacity:1" />
    </g>
    <path
       sodipodi:nodetypes="ccc"
       style="display:inline;fill:#ffffff;fill-opacity:1;stroke:#000000;stroke-width:1.36500001;stroke-linecap:butt;stroke-linejoin:miter;stroke-miterlimit:4;stroke-dasharray:none;stroke-opacity:1"
       d="M 102.2662,30.449337 C 87.041105,30.070282 85.827931,-2.1944206 102.1994,1.0494894 c 8.63493,-0.78421996 26.2742,28.0585876 0.0668,29.3998476 z"
       id="path1737"
       inkscape:connector-curvature="0"
       inkscape:label="tête" />
  </g>
  <g
     style="display:none"
     id="g898"
     inkscape:groupmode="layer"
     inkscape:label="dou">
    <path
       style="display:inline;fill:#ffffff;fill-opacity:1;stroke:#000000;stroke-width:1.36500001;stroke-linecap:square;stroke-linejoin:miter;stroke-miterlimit:4;stroke-dasharray:none;stroke-opacity:1"
       d="m 100.3903,30.19185 c 0.73379,1.353082 -0.59212,5.450899 -1.46466,7.110638 -2.46794,4.694544 -7.625071,-2.111217 -13.561286,-2.165913 -6.416538,-0.05912 -9.044504,-0.92931 -18.383265,37.591682 -1.519672,8.1241 -3.72504,15.335533 -5.914115,24.151883 -0.675635,1.685771 -0.456651,3.29035 0.109305,5.4533 0.03625,0.13854 0.07393,0.27938 0.11288,0.42267 0.535298,1.96909 1.312227,4.40251 1.957346,7.73642 1.61945,8.36914 7.150373,35.75631 7.959409,44.40014 -0.427989,2.01843 -3.068503,2.39943 0.117284,16.25941 0.293288,1.28635 0.721087,2.63706 1.903569,1.59939 1.289975,-1.13201 -1.886678,-5.64079 0.409518,-6.77658 0.901665,-0.69407 2.921593,7.6936 3.311615,9.38387 0.390016,1.69026 2.330632,3.11783 3.302131,2.36011 1.61893,-2.04379 -6.598933,-10.41872 -2.387133,-12.01666 1.328181,-0.5039 3.404258,7.3815 4.328243,9.09647 0.923986,1.71497 1.412826,1.26937 2.435628,0.84846 1.022809,-0.4209 -2.437981,-7.30334 -3.476929,-9.42496 -1.038949,-2.12162 0.924477,-2.63278 1.713076,-2.32874 0.788599,0.30404 2.252234,3.52069 3.430854,5.515 1.178614,1.9943 2.729214,1.7316 3.109266,0.74585 0.380052,-0.98574 -8.078822,-11.31526 -7.088793,-12.47346 0.990029,-1.15819 2.238005,0.0699 4.729699,0.4195 6.930468,0.97236 4.313168,-2.77782 -2.846075,-3.54301 -2.711816,-0.28985 -5.347749,-1.51831 -6.983221,-5.51565 -5.035581,-17.03717 -2.972437,-33.44674 -6.183713,-46.77478 -0.02597,-0.10779 -0.05229,-0.21539 -0.07896,-0.32278 2.887128,-13.61634 6.965384,-22.112571 9.502627,-45.728229 1.32291,-1.039435 2.77913,44.904209 0.63575,55.628979 -1.78482,8.9306 -10.611846,27.17213 -13.158757,37.43308 -1.739625,7.00855 -4.444558,27.98637 -3.023809,47.625 1.420749,19.63862 15.618046,78.05054 3.401785,86.17857 -3.779761,1.88988 -13.890625,6.52009 -14.835566,7.37054 -0.944938,0.85045 -1.228424,3.49628 -0.661459,4.34673 5.136322,2.92529 12.549077,2.47806 14.363097,1.88987 5.386159,-1.79539 13.471879,-5.23074 15.928719,-8.34905 2.45685,-3.1183 -5.09896,-4.5879 -3.04625,-9.82622 3.10533,-7.92454 7.50412,-34.1197 6.77229,-39.27711 -1.48788,-10.48555 6.66875,-86.44361 18.02691,-89.52965 12.56582,0.15418 12.71527,66.81829 18.20541,89.52965 1.22397,5.06324 3.66698,31.35257 6.77233,39.27711 2.05272,5.23832 -5.50312,6.70792 -3.04628,9.82622 2.45686,3.11831 10.54263,6.55366 15.92882,8.34905 1.81403,0.58819 9.22683,1.03542 14.36319,-1.88987 0.56697,-0.85045 0.28347,-3.49628 -0.66148,-4.34673 -0.94493,-0.85045 -11.05585,-5.48066 -14.83564,-7.37054 -12.21632,-8.12803 2.08857,-68.02627 3.4018,-86.17857 1.52829,-21.12495 -1.28419,-40.61645 -3.02383,-47.625 -2.54691,-10.26095 -11.374,-28.50248 -13.15882,-37.43308 -2.1434,-10.72477 -0.68718,-56.668414 0.63575,-55.628979 8.76682,5.619817 9.47539,32.943221 17.72028,44.681099 2.36236,3.1183 4.19177,2.19874 7.37057,0.66146 3.1788,-1.53728 3.65161,-5.125899 7.55958,-11.528274 4.44124,-7.276041 14.80762,-27.651734 20.03285,-34.584822 1.67607,-1.203362 3.88416,0.293902 10.86685,-12.095236 0.64983,-1.148236 1.2436,-2.434646 -0.32934,-2.464376 -1.71592,-0.03243 -2.40571,5.439726 -4.86783,4.732232 -1.13395,-0.09449 3.0238,-7.654018 3.87425,-9.165922 0.85046,-1.511904 0.37799,-3.87426 -0.85045,-3.96875 -2.57329,0.419812 -2.14196,12.145283 -6.33113,10.48884 -1.32103,-0.522355 2.45686,-7.748512 2.92934,-9.638394 0.47248,-1.88988 -0.18898,-1.88988 -1.22842,-2.267856 -1.03945,-0.377978 -3.11833,7.039805 -3.77979,9.307663 -0.66147,2.267857 -2.45686,1.322917 -2.83483,0.566965 -0.37799,-0.755953 0.70731,-4.119174 1.17979,-6.387032 0.47246,-2.267856 -0.85045,-3.118302 -1.79541,-2.645832 -0.94493,0.47247 -1.65226,13.804811 -3.16417,13.9938 -1.51192,0.188988 -1.60687,-1.55934 -3.21282,-3.496279 -4.46681,-5.387455 -5.05892,-0.852759 -0.28349,4.535714 1.80888,2.041075 2.92935,4.724702 1.4451,8.780631 -1.48423,4.055929 -3.91447,4.46693 -16.24205,30.245411 0,0 -5.77768,15.866337 -10.62209,-13.985121 -6.69708,-41.267691 -9.44491,-40.633265 -14.17419,-41.081247 -5.91004,-0.559832 -19.26579,11.096477 -21.73374,6.401933 -0.87254,-1.659739 -2.19846,-5.757556 -1.46467,-7.110638"
       id="path894"
       inkscape:connector-curvature="0"
       sodipodi:nodetypes="cssccssscccccccscssscccccscccssccccccsccscccccscsccsccccccccsccccccccccsscc" />
    <circle
       inkscape:label="rond"
       r="15.8444"
       cy="163.82805"
       cx="80.03009"
       id="circle911"
       style="display:inline;opacity:1;fill:#ffdf00;fill-opacity:1;fill-rule:nonzero;stroke:none;stroke-width:1.22606957;stroke-linecap:square;stroke-linejoin:miter;stroke-miterlimit:4;stroke-dasharray:none;stroke-opacity:1;paint-order:fill markers stroke" />
    <path
       sodipodi:nodetypes="cscccccccscssscccccc"
       inkscape:connector-curvature="0"
       id="path909"
       d="m 61.289159,102.75611 c 0.535298,1.96909 1.312227,4.40251 1.957346,7.73642 1.61945,8.36914 7.150373,35.75631 7.959409,44.40014 -0.427989,2.01843 -3.068503,2.39943 0.117284,16.25941 0.293288,1.28635 0.721087,2.63706 1.903569,1.59939 1.289975,-1.13201 -1.886678,-5.64079 0.409518,-6.77658 0.901665,-0.69407 2.921593,7.6936 3.311615,9.38387 0.390016,1.69026 2.330632,3.11783 3.302131,2.36011 1.61893,-2.04379 -6.598933,-10.41872 -2.387133,-12.01666 1.328181,-0.5039 3.404258,7.3815 4.328243,9.09647 0.923986,1.71497 1.412826,1.26937 2.435628,0.84846 1.022809,-0.4209 -2.437981,-7.30334 -3.476929,-9.42496 -1.038949,-2.12162 0.924477,-2.63278 1.713076,-2.32874 0.788599,0.30404 2.252234,3.52069 3.430854,5.515 1.178614,1.9943 2.729214,1.7316 3.109266,0.74585 0.380052,-0.98574 -8.078822,-11.31526 -7.088793,-12.47346 0.990029,-1.15819 2.238005,0.0699 4.729699,0.4195 6.930468,0.97236 4.313168,-2.77782 -2.846075,-3.54301 -2.711816,-0.28985 -5.347749,-1.51831 -6.983221,-5.51565 -5.035581,-17.03717 -2.972437,-33.44674 -6.183713,-46.77478"
       style="display:inline;fill:#ffffff;fill-opacity:1;stroke:#000000;stroke-width:1.36500001;stroke-linecap:square;stroke-linejoin:miter;stroke-miterlimit:4;stroke-dasharray:none;stroke-opacity:1" />
    <path
       inkscape:export-ydpi="381"
       inkscape:export-xdpi="381"
       inkscape:export-filename="/home/sioban/donnees/Formations/house_of_code/projet_percu-corpo/images/jeanne-pat/position-neutre.png"
       inkscape:label="tête"
       inkscape:connector-curvature="0"
       id="path896"
       d="m 105.76475,30.649789 c 16.38593,1.217 16.37152,-32.8442101 0,-29.6003001 -8.634915,-0.78422003 -26.207375,28.2590401 0,29.6003001 z"
       style="display:inline;fill:#ffffff;fill-opacity:1;stroke:#000000;stroke-width:1.36500001;stroke-linecap:square;stroke-linejoin:miter;stroke-miterlimit:4;stroke-dasharray:none;stroke-opacity:1" />
  </g>
  <g
     inkscape:label="di"
     inkscape:groupmode="layer"
     id="g923"
     style="display:none">
    <path
       sodipodi:nodetypes="cssccssscccccccscssscccccscccssccccccsccscccccscsccsccccccccsccccccccccsscc"
       inkscape:connector-curvature="0"
       id="path914"
       d="m 109.25999,30.19185 c -0.73379,1.353082 0.59212,5.450899 1.46466,7.110638 2.46794,4.694544 7.62507,-2.111217 13.56128,-2.165913 6.41654,-0.05912 9.04451,-0.92931 18.38327,37.591682 1.51967,8.1241 3.72504,15.335533 5.91411,24.151883 0.67564,1.685771 0.45665,3.29035 -0.1093,5.4533 -0.0362,0.13854 -0.0739,0.27938 -0.11288,0.42267 -0.5353,1.96909 -1.31223,4.40251 -1.95735,7.73642 -1.61945,8.36914 -7.15037,35.75631 -7.95941,44.40014 0.42799,2.01843 3.0685,2.39943 -0.11728,16.25941 -0.29329,1.28635 -0.72109,2.63706 -1.90357,1.59939 -1.28998,-1.13201 1.88668,-5.64079 -0.40952,-6.77658 -0.90166,-0.69407 -2.92159,7.6936 -3.31161,9.38387 -0.39002,1.69026 -2.33064,3.11783 -3.30214,2.36011 -1.61893,-2.04379 6.59894,-10.41872 2.38714,-12.01666 -1.32818,-0.5039 -3.40426,7.3815 -4.32825,9.09647 -0.92398,1.71497 -1.41282,1.26937 -2.43562,0.84846 -1.02281,-0.4209 2.43798,-7.30334 3.47693,-9.42496 1.03894,-2.12162 -0.92448,-2.63278 -1.71308,-2.32874 -0.7886,0.30404 -2.25223,3.52069 -3.43085,5.515 -1.17862,1.9943 -2.72922,1.7316 -3.10927,0.74585 -0.38005,-0.98574 8.07882,-11.31526 7.08879,-12.47346 -0.99003,-1.15819 -2.238,0.0699 -4.7297,0.4195 -6.93046,0.97236 -4.31316,-2.77782 2.84608,-3.54301 2.71181,-0.28985 5.34775,-1.51831 6.98322,-5.51565 5.03558,-17.03717 2.97244,-33.44674 6.18371,-46.77478 0.026,-0.10779 0.0523,-0.21539 0.079,-0.32278 -2.88713,-13.61634 -6.96538,-22.112571 -9.50262,-45.728229 -1.32291,-1.039435 -2.77913,44.904209 -0.63575,55.628979 1.78482,8.9306 10.61184,27.17213 13.15875,37.43308 1.73963,7.00855 4.44456,27.98637 3.02381,47.625 -1.42075,19.63862 -15.61804,78.05054 -3.40178,86.17857 3.77976,1.88988 13.89062,6.52009 14.83556,7.37054 0.94494,0.85045 1.22843,3.49628 0.66146,4.34673 -5.13632,2.92529 -12.54908,2.47806 -14.3631,1.88987 -5.38615,-1.79539 -13.47187,-5.23074 -15.92871,-8.34905 -2.45685,-3.1183 5.09896,-4.5879 3.04625,-9.82622 -3.10533,-7.92454 -7.50412,-34.1197 -6.77229,-39.27711 1.48788,-10.48555 -6.66875,-86.44361 -18.02691,-89.52965 -12.565775,0.15418 -12.715225,66.81829 -18.205332,89.52965 -1.223964,5.06324 -3.666959,31.35257 -6.772291,39.27711 -2.052708,5.23832 5.503087,6.70792 3.046262,9.82622 -2.456845,3.11831 -10.54257,6.55366 -15.92873,8.34905 -1.814021,0.58819 -9.226817,1.03542 -14.363177,-1.88987 -0.56697,-0.85045 -0.28347,-3.49628 0.66148,-4.34673 0.94493,-0.85045 11.055852,-5.48066 14.835621,-7.37054 12.216251,-8.12803 -2.088558,-68.02627 -3.401782,-86.17857 -1.528289,-21.12495 1.284184,-40.61645 3.023815,-47.625 2.546895,-10.26095 11.373934,-28.50248 13.158745,-37.43308 2.143388,-10.72477 0.687174,-56.668414 -0.635747,-55.628979 -8.766772,5.619817 -9.475336,32.943221 -17.720192,44.681099 -2.36236,3.1183 -4.19177,2.19874 -7.37057,0.66146 -3.1788,-1.53728 -3.65161,-5.125899 -7.55958,-11.528274 -4.44124,-7.276041 -14.80762,-27.651734 -20.03285,-34.584822 -1.67607,-1.203362 -3.88416,0.293902 -10.86685,-12.095236 -0.64983,-1.148236 -1.2436,-2.434646 0.32934,-2.464376 1.71592,-0.03243 2.40571,5.439726 4.86783,4.732232 1.13395,-0.09449 -3.0238,-7.654018 -3.87425,-9.165922 -0.85046,-1.511904 -0.37799,-3.87426 0.85045,-3.96875 2.57329,0.419812 2.14196,12.145283 6.33113,10.48884 1.32103,-0.522355 -2.45686,-7.748512 -2.92934,-9.638394 -0.47248,-1.88988 0.18898,-1.88988 1.22842,-2.267856 1.03945,-0.377978 3.11833,7.039805 3.77979,9.307663 0.66147,2.267857 2.45686,1.322917 2.83483,0.566965 0.37799,-0.755953 -0.70731,-4.119174 -1.17979,-6.387032 -0.47246,-2.267856 0.85045,-3.118302 1.79541,-2.645832 0.94493,0.47247 1.65226,13.804811 3.16417,13.9938 1.51192,0.188988 1.60687,-1.55934 3.21282,-3.496279 4.46681,-5.387455 5.05892,-0.852759 0.28349,4.535714 -1.80888,2.041075 -2.92935,4.724702 -1.4451,8.780631 1.48423,4.055929 3.91447,4.46693 16.24205,30.245411 0,0 5.77768,15.866337 10.62209,-13.985121 6.697052,-41.267691 9.444867,-40.633265 14.17412,-41.081247 5.910007,-0.559832 19.265682,11.096477 21.733617,6.401933 0.872534,-1.659739 2.198451,-5.757556 1.464661,-7.110638"
       style="display:inline;fill:#ffffff;fill-opacity:1;stroke:#000000;stroke-width:1.36500001;stroke-linecap:square;stroke-linejoin:miter;stroke-miterlimit:4;stroke-dasharray:none;stroke-opacity:1" />
    <circle
       style="display:inline;opacity:1;fill:#ffdf00;fill-opacity:1;fill-rule:nonzero;stroke:none;stroke-width:1.22606957;stroke-linecap:square;stroke-linejoin:miter;stroke-miterlimit:4;stroke-dasharray:none;stroke-opacity:1;paint-order:fill markers stroke"
       id="circle916"
       cx="-129.62091"
       cy="163.82805"
       r="15.8444"
       inkscape:label="rond"
       transform="scale(-1,1)" />
    <path
       style="display:inline;fill:#ffffff;fill-opacity:1;stroke:#000000;stroke-width:1.36500001;stroke-linecap:square;stroke-linejoin:miter;stroke-miterlimit:4;stroke-dasharray:none;stroke-opacity:1"
       d="m 148.36113,102.75611 c -0.5353,1.96909 -1.31223,4.40251 -1.95735,7.73642 -1.61945,8.36914 -7.15037,35.75631 -7.95941,44.40014 0.42799,2.01843 3.0685,2.39943 -0.11728,16.25941 -0.29329,1.28635 -0.72109,2.63706 -1.90357,1.59939 -1.28998,-1.13201 1.88668,-5.64079 -0.40952,-6.77658 -0.90166,-0.69407 -2.92159,7.6936 -3.31161,9.38387 -0.39002,1.69026 -2.33064,3.11783 -3.30214,2.36011 -1.61893,-2.04379 6.59894,-10.41872 2.38714,-12.01666 -1.32818,-0.5039 -3.40426,7.3815 -4.32825,9.09647 -0.92398,1.71497 -1.41282,1.26937 -2.43562,0.84846 -1.02281,-0.4209 2.43798,-7.30334 3.47693,-9.42496 1.03894,-2.12162 -0.92448,-2.63278 -1.71308,-2.32874 -0.7886,0.30404 -2.25223,3.52069 -3.43085,5.515 -1.17862,1.9943 -2.72922,1.7316 -3.10927,0.74585 -0.38005,-0.98574 8.07882,-11.31526 7.08879,-12.47346 -0.99003,-1.15819 -2.238,0.0699 -4.7297,0.4195 -6.93046,0.97236 -4.31316,-2.77782 2.84608,-3.54301 2.71181,-0.28985 5.34775,-1.51831 6.98322,-5.51565 5.03558,-17.03717 2.97244,-33.44674 6.18371,-46.77478"
       id="path918"
       inkscape:connector-curvature="0"
       sodipodi:nodetypes="cscccccccscssscccccc" />
    <path
       style="display:inline;fill:#ffffff;fill-opacity:1;stroke:#000000;stroke-width:1.36500001;stroke-linecap:square;stroke-linejoin:miter;stroke-miterlimit:4;stroke-dasharray:none;stroke-opacity:1"
       d="m 103.88554,30.649789 c -16.385858,1.217 -16.371448,-32.8442101 0,-29.6003001 8.63491,-0.78422003 26.20737,28.2590401 0,29.6003001 z"
       id="path921"
       inkscape:connector-curvature="0"
       inkscape:label="tête"
       inkscape:export-filename="/home/sioban/donnees/Formations/house_of_code/projet_percu-corpo/images/jeanne-pat/position-neutre.png"
       inkscape:export-xdpi="381"
       inkscape:export-ydpi="381" />
  </g>
  <g
     style="display:none"
     id="g925"
     inkscape:groupmode="layer"
     inkscape:label="pou-fin">
    <circle
       style="display:inline;opacity:1;fill:#ffdf00;fill-opacity:1;fill-rule:nonzero;stroke:none;stroke-width:1.22606957;stroke-linecap:square;stroke-linejoin:miter;stroke-miterlimit:4;stroke-dasharray:none;stroke-opacity:1;paint-order:fill markers stroke"
       id="circle933"
       cx="-66.342545"
       cy="291.5976"
       r="15.8444"
       inkscape:label="rond"
       transform="scale(-1,1)" />
    <path
       inkscape:export-ydpi="381"
       inkscape:export-xdpi="381"
       inkscape:export-filename="/home/sioban/donnees/Formations/house_of_code/projet_percu-corpo/images/jeanne-pat/position-neutre.png"
       inkscape:label="corps"
       inkscape:connector-curvature="0"
       id="path919"
       d="m 109.50275,30.19185 c -0.73379,1.353082 0.59213,5.450899 1.46467,7.110638 2.46795,4.694544 15.8237,-6.961765 21.73374,-6.401933 4.72928,0.447982 7.47711,-0.186444 14.17419,41.081247 4.84441,29.851458 10.62209,13.985121 10.62209,13.985121 12.32758,-25.778481 14.75782,-26.189482 16.24205,-30.245411 1.48425,-4.055929 0.36378,-6.739556 -1.4451,-8.780631 -4.77543,-5.388473 -4.18332,-9.923169 0.28349,-4.535714 1.60595,1.936939 1.7009,3.685267 3.21282,3.496279 1.51191,-0.188989 2.21924,-13.52133 3.16417,-13.9938 0.94496,-0.47247 2.26787,0.377976 1.79541,2.645832 -0.47248,2.267858 -1.55778,5.631079 -1.17979,6.387032 0.37797,0.755952 2.17336,1.700892 2.83483,-0.566965 0.66146,-2.267858 2.74034,-9.685641 3.77979,-9.307663 1.03944,0.377976 1.7009,0.377976 1.22842,2.267856 -0.47248,1.889882 -4.25037,9.116039 -2.92934,9.638394 4.18917,1.656443 3.75784,-10.069028 6.33113,-10.48884 1.22844,0.09449 1.70091,2.456846 0.85045,3.96875 -0.85045,1.511904 -5.0082,9.071429 -3.87425,9.165922 2.46212,0.707494 3.15191,-4.76466 4.86783,-4.732232 1.57294,0.02973 0.97917,1.31614 0.32934,2.464376 -6.98269,12.389138 -9.19078,10.891874 -10.86685,12.095236 -5.22523,6.933088 -15.59161,27.308781 -20.03285,34.584822 -3.90797,6.402375 -4.38078,9.990994 -7.55958,11.528274 -3.1788,1.53728 -5.00821,2.45684 -7.37057,-0.66146 -8.24489,-11.737878 -8.95346,-39.061282 -17.72028,-44.681099 -1.32293,-1.039435 -2.77915,44.904209 -0.63575,55.628979 1.78482,8.9306 10.61191,27.17213 13.15882,37.43308 1.73964,7.00855 4.55212,26.50005 3.02383,47.625 -1.31323,18.1523 -15.61812,78.05054 -3.4018,86.17857 3.77979,1.88988 13.89071,6.52009 14.83564,7.37054 0.94495,0.85045 1.22845,3.49628 0.66148,4.34673 -5.13636,2.92529 -12.54916,2.47806 -14.36319,1.88987 -5.38619,-1.79539 -13.47196,-5.23074 -15.92882,-8.34905 -2.45684,-3.1183 5.099,-4.5879 3.04628,-9.82622 -3.10535,-7.92454 -5.54836,-34.21387 -6.77233,-39.27711 -5.49014,-22.71136 -5.63959,-89.37547 -18.20541,-89.52965 -11.35816,3.08604 -19.51479,79.0441 -18.02691,89.52965 0.73183,5.15741 -3.66696,31.35257 -6.77229,39.27711 -2.05271,5.23832 5.5031,6.70792 3.04625,9.82622 -2.45684,3.11831 -10.54256,6.55366 -15.928719,8.34905 -1.81402,0.58819 -9.226775,1.03542 -14.363097,-1.88987 -0.566965,-0.85045 -0.283479,-3.49628 0.661459,-4.34673 0.944941,-0.85045 11.055805,-5.48066 14.835566,-7.37054 12.216261,-8.12803 -1.981036,-66.53995 -3.401785,-86.17857 -1.420749,-19.63863 1.284184,-40.61645 3.023809,-47.625 2.546911,-10.26095 11.373937,-28.50248 13.158757,-37.43308 2.14338,-10.72477 0.68716,-56.668414 -0.63575,-55.628979 -8.76677,5.619817 -9.475341,32.943221 -17.720181,44.681099 -2.36235,3.1183 -4.191754,2.19874 -7.370535,0.66146 -3.17878,-1.53728 -3.65158,-5.125899 -7.559524,-11.528274 -4.441219,-7.276041 -14.807548,-27.651734 -20.032738,-34.584822 -1.676056,-1.203362 -3.88415,0.293902 -10.866815,-12.095236 -0.649829,-1.148236 -1.243603,-2.434646 0.329338,-2.464376 1.715932,-0.03243 2.405723,5.439726 4.867834,4.732232 1.133929,-0.09449 -3.023809,-7.654018 -3.874256,-9.165922 -0.850446,-1.511904 -0.377976,-3.874261 0.850447,-3.96875 2.573282,0.419812 2.141967,12.145283 6.331101,10.48884 1.321033,-0.522355 -2.456845,-7.748512 -2.929316,-9.638394 -0.47247,-1.88988 0.188989,-1.88988 1.228423,-2.267856 1.039435,-0.377978 3.118304,7.039805 3.779762,9.307663 0.661459,2.267857 2.456846,1.322917 2.834822,0.566965 0.377976,-0.755953 -0.707316,-4.119174 -1.179786,-6.387032 -0.47247,-2.267856 0.850447,-3.118302 1.795387,-2.645832 0.944941,0.47247 1.652256,13.804811 3.164161,13.9938 1.511904,0.188988 1.606864,-1.55934 3.212797,-3.496279 4.466786,-5.387455 5.058901,-0.852759 0.283482,4.535714 -1.808859,2.041075 -2.929315,4.724702 -1.445091,8.780631 1.484225,4.055929 3.914456,4.46693 16.241967,30.245411 0,0 5.77764,15.866337 10.622023,-13.985121 6.697043,-41.267691 9.444868,-40.633265 14.174108,-41.081247 5.91001,-0.559832 19.26569,11.096477 21.73363,6.401933 0.87254,-1.659739 2.19845,-5.757556 1.46466,-7.110638"
       style="display:inline;fill:#ffffff;fill-opacity:1;stroke:#000000;stroke-width:1.36500001;stroke-linecap:square;stroke-linejoin:miter;stroke-miterlimit:4;stroke-dasharray:none;stroke-opacity:1" />
    <path
       inkscape:export-ydpi="381"
       inkscape:export-xdpi="381"
       inkscape:export-filename="/home/sioban/donnees/Formations/house_of_code/projet_percu-corpo/images/jeanne-pat/position-neutre.png"
       inkscape:label="tête"
       inkscape:connector-curvature="0"
       id="path923"
       d="m 105.76475,30.649789 c 16.38593,1.217 16.37152,-32.8442101 0,-29.6003001 -8.634915,-0.78422003 -26.207375,28.2590401 0,29.6003001 z"
       style="display:inline;fill:#ffffff;fill-opacity:1;stroke:#000000;stroke-width:1.36500001;stroke-linecap:square;stroke-linejoin:miter;stroke-miterlimit:4;stroke-dasharray:none;stroke-opacity:1" />
  </g>
  <g
     style="display:none"
     id="g929"
     inkscape:groupmode="layer"
     inkscape:label="pou-début">
    <circle
       transform="scale(-1,1)"
       inkscape:label="rond"
       r="15.8444"
       cy="276.78079"
       cx="-59.992538"
       id="circle943"
       style="display:inline;opacity:1;fill:#ffdf00;fill-opacity:1;fill-rule:nonzero;stroke:none;stroke-width:1.22606957;stroke-linecap:square;stroke-linejoin:miter;stroke-miterlimit:4;stroke-dasharray:none;stroke-opacity:1;paint-order:fill markers stroke" />
    <path
       style="display:inline;fill:#ffffff;fill-opacity:1;stroke:#000000;stroke-width:1.36500001;stroke-linecap:square;stroke-linejoin:miter;stroke-miterlimit:4;stroke-dasharray:none;stroke-opacity:1"
       d="m 109.50275,30.19185 c -0.73379,1.353082 0.59213,5.450899 1.46467,7.110638 2.46795,4.694544 15.8237,-6.961765 21.73374,-6.401933 4.72928,0.447982 7.47711,-0.186444 14.17419,41.081247 4.84441,29.851458 10.62209,13.985121 10.62209,13.985121 12.32758,-25.778481 14.75782,-26.189482 16.24205,-30.245411 1.48425,-4.055929 0.36378,-6.739556 -1.4451,-8.780631 -4.77543,-5.388473 -4.18332,-9.923169 0.28349,-4.535714 1.60595,1.936939 1.7009,3.685267 3.21282,3.496279 1.51191,-0.188989 2.21924,-13.52133 3.16417,-13.9938 0.94496,-0.47247 2.26787,0.377976 1.79541,2.645832 -0.47248,2.267858 -1.55778,5.631079 -1.17979,6.387032 0.37797,0.755952 2.17336,1.700892 2.83483,-0.566965 0.66146,-2.267858 2.74034,-9.685641 3.77979,-9.307663 1.03944,0.377976 1.7009,0.377976 1.22842,2.267856 -0.47248,1.889882 -4.25037,9.116039 -2.92934,9.638394 4.18917,1.656443 3.75784,-10.069028 6.33113,-10.48884 1.22844,0.09449 1.70091,2.456846 0.85045,3.96875 -0.85045,1.511904 -5.0082,9.071429 -3.87425,9.165922 2.46212,0.707494 3.15191,-4.76466 4.86783,-4.732232 1.57294,0.02973 0.97917,1.31614 0.32934,2.464376 -6.98269,12.389138 -9.19078,10.891874 -10.86685,12.095236 -5.22523,6.933088 -15.59161,27.308781 -20.03285,34.584822 -3.90797,6.402375 -4.38078,9.990994 -7.55958,11.528274 -3.1788,1.53728 -5.00821,2.45684 -7.37057,-0.66146 -8.24489,-11.737878 -8.95346,-39.061282 -17.72028,-44.681099 -1.32293,-1.039435 -2.77914,44.904209 -0.63575,55.628979 2.60662,12.94531 8.01559,10.01737 12.55403,37.0551 1.73964,7.00855 0.39438,26.87803 -1.13391,48.00298 -1.31323,18.1523 -15.61812,78.05054 -3.4018,86.17857 3.77979,1.88988 13.89071,6.52009 14.83564,7.37054 0.94495,0.85045 1.22845,3.49628 0.66148,4.34673 -5.13636,2.92529 -12.54916,2.47806 -14.36319,1.88987 -5.38619,-1.79539 -13.47196,-5.23074 -15.92882,-8.34905 -2.45684,-3.1183 5.099,-4.5879 3.04628,-9.82622 -3.10535,-7.92454 -5.54836,-34.21387 -6.77233,-39.27711 -5.19111,-21.47433 -0.19986,-88.1871 -12.71844,-89.39808 -11.543289,2.08736 -21.527929,23.91559 -24.991891,44.88399 -7.364291,42.14617 4.463888,64.07855 -8.341453,87.29462 -2.302932,3.23364 -12.064363,-1.09978 -17.696759,-1.8141 -1.889805,-0.2555 -8.765039,-3.06262 -12.127831,-7.92376 -0.142729,-1.0121 1.258637,-3.27416 2.478674,-3.6315 1.220039,-0.35733 12.371209,0.30819 16.564151,-0.21856 3.076605,-0.38651 3.971846,-2.34998 4.697411,-5.09795 4.059715,-15.37557 -6.246828,-57.92363 -7.403467,-73.91154 -1.42075,-19.63863 5.961401,-33.5338 9.171008,-40.14145 4.619295,-9.50978 11.373937,-28.50248 13.158757,-37.43308 2.14338,-10.72477 0.68716,-56.668414 -0.63575,-55.628979 -8.76677,5.619817 -9.475341,32.943221 -17.720181,44.681099 -2.36235,3.1183 -4.191754,2.19874 -7.370535,0.66146 -3.17878,-1.53728 -3.65158,-5.125899 -7.559524,-11.528274 -4.441219,-7.276041 -14.807548,-27.651734 -20.032738,-34.584822 -1.676056,-1.203362 -3.88415,0.293902 -10.866815,-12.095236 -0.649829,-1.148236 -1.243603,-2.434646 0.329338,-2.464376 1.715932,-0.03243 2.405723,5.439726 4.867834,4.732232 1.133929,-0.09449 -3.023809,-7.654018 -3.874256,-9.165922 -0.850446,-1.511904 -0.377976,-3.874261 0.850447,-3.96875 2.573282,0.419812 2.141967,12.145283 6.331101,10.48884 1.321033,-0.522355 -2.456845,-7.748512 -2.929316,-9.638394 -0.47247,-1.88988 0.188989,-1.88988 1.228423,-2.267856 1.039435,-0.377978 3.118304,7.039805 3.779762,9.307663 0.661459,2.267857 2.456846,1.322917 2.834822,0.566965 0.377976,-0.755953 -0.707316,-4.119174 -1.179786,-6.387032 -0.47247,-2.267856 0.850447,-3.118302 1.795387,-2.645832 0.944941,0.47247 1.652256,13.804811 3.164161,13.9938 1.511904,0.188988 1.606864,-1.55934 3.212797,-3.496279 4.466786,-5.387455 5.058901,-0.852759 0.283482,4.535714 -1.808859,2.041075 -2.929315,4.724702 -1.445091,8.780631 1.484225,4.055929 3.914456,4.46693 16.241967,30.245411 0,0 5.77764,15.866337 10.622023,-13.985121 6.697043,-41.267691 9.444868,-40.633265 14.174108,-41.081247 5.91001,-0.559832 19.265691,11.096477 21.733629,6.401933 0.872544,-1.659739 2.198451,-5.757556 1.464661,-7.110638"
       id="path941"
       inkscape:connector-curvature="0"
       sodipodi:nodetypes="ccssccccccccccsccccccccsccccscccccsscccccccssscccssccccscsscsssssssscsscc" />
    <path
       inkscape:export-ydpi="381"
       inkscape:export-xdpi="381"
       inkscape:export-filename="/home/sioban/donnees/Formations/house_of_code/projet_percu-corpo/images/jeanne-pat/position-neutre.png"
       inkscape:label="tête"
       inkscape:connector-curvature="0"
       id="path927"
       d="m 104.70641,30.649789 c 16.38593,1.217 16.37152,-32.8442101 0,-29.6003001 -8.634906,-0.78422003 -26.207369,28.2590401 0,29.6003001 z"
       style="display:inline;fill:#ffffff;fill-opacity:1;stroke:#000000;stroke-width:1.36500001;stroke-linecap:square;stroke-linejoin:miter;stroke-miterlimit:4;stroke-dasharray:none;stroke-opacity:1" />
  </g>
  <g
     style="display:none"
     id="g917"
     inkscape:groupmode="layer"
     inkscape:label="pi-fin">
    <circle
       inkscape:label="rond"
       r="15.8444"
       cy="291.59769"
       cx="142.49281"
       id="circle930"
       style="display:inline;opacity:1;fill:#ffdf00;fill-opacity:1;fill-rule:nonzero;stroke:none;stroke-width:1.22606957;stroke-linecap:square;stroke-linejoin:miter;stroke-miterlimit:4;stroke-dasharray:none;stroke-opacity:1;paint-order:fill markers stroke" />
    <path
       inkscape:export-ydpi="381"
       inkscape:export-xdpi="381"
       inkscape:export-filename="/home/sioban/donnees/Formations/house_of_code/projet_percu-corpo/images/jeanne-pat/position-neutre.png"
       inkscape:label="corps"
       inkscape:connector-curvature="0"
       id="path913"
       d="m 109.50275,30.19185 c -0.73379,1.353082 0.59213,5.450899 1.46467,7.110638 2.46795,4.694544 15.8237,-6.961765 21.73374,-6.401933 4.72928,0.447982 7.47711,-0.186444 14.17419,41.081247 4.84441,29.851458 10.62209,13.985121 10.62209,13.985121 12.32758,-25.778481 14.75782,-26.189482 16.24205,-30.245411 1.48425,-4.055929 0.36378,-6.739556 -1.4451,-8.780631 -4.77543,-5.388473 -4.18332,-9.923169 0.28349,-4.535714 1.60595,1.936939 1.7009,3.685267 3.21282,3.496279 1.51191,-0.188989 2.21924,-13.52133 3.16417,-13.9938 0.94496,-0.47247 2.26787,0.377976 1.79541,2.645832 -0.47248,2.267858 -1.55778,5.631079 -1.17979,6.387032 0.37797,0.755952 2.17336,1.700892 2.83483,-0.566965 0.66146,-2.267858 2.74034,-9.685641 3.77979,-9.307663 1.03944,0.377976 1.7009,0.377976 1.22842,2.267856 -0.47248,1.889882 -4.25037,9.116039 -2.92934,9.638394 4.18917,1.656443 3.75784,-10.069028 6.33113,-10.48884 1.22844,0.09449 1.70091,2.456846 0.85045,3.96875 -0.85045,1.511904 -5.0082,9.071429 -3.87425,9.165922 2.46212,0.707494 3.15191,-4.76466 4.86783,-4.732232 1.57294,0.02973 0.97917,1.31614 0.32934,2.464376 -6.98269,12.389138 -9.19078,10.891874 -10.86685,12.095236 -5.22523,6.933088 -15.59161,27.308781 -20.03285,34.584822 -3.90797,6.402375 -4.38078,9.990994 -7.55958,11.528274 -3.1788,1.53728 -5.00821,2.45684 -7.37057,-0.66146 -8.24489,-11.737878 -8.95346,-39.061282 -17.72028,-44.681099 -1.32293,-1.039435 -2.77915,44.904209 -0.63575,55.628979 1.78482,8.9306 10.61191,27.17213 13.15882,37.43308 1.73964,7.00855 4.55212,26.50005 3.02383,47.625 -1.31323,18.1523 -15.61812,78.05054 -3.4018,86.17857 3.77979,1.88988 13.89071,6.52009 14.83564,7.37054 0.94495,0.85045 1.22845,3.49628 0.66148,4.34673 -5.13636,2.92529 -12.54916,2.47806 -14.36319,1.88987 -5.38619,-1.79539 -13.47196,-5.23074 -15.92882,-8.34905 -2.45684,-3.1183 5.099,-4.5879 3.04628,-9.82622 -3.10535,-7.92454 -5.54836,-34.21387 -6.77233,-39.27711 -5.49014,-22.71136 -5.63959,-89.37547 -18.20541,-89.52965 -11.35816,3.08604 -19.51479,79.0441 -18.02691,89.52965 0.73183,5.15741 -3.66696,31.35257 -6.77229,39.27711 -2.05271,5.23832 5.5031,6.70792 3.04625,9.82622 -2.45684,3.11831 -10.54256,6.55366 -15.928719,8.34905 -1.81402,0.58819 -9.226775,1.03542 -14.363097,-1.88987 -0.566965,-0.85045 -0.283479,-3.49628 0.661459,-4.34673 0.944941,-0.85045 11.055805,-5.48066 14.835566,-7.37054 12.216261,-8.12803 -1.981036,-66.53995 -3.401785,-86.17857 -1.420749,-19.63863 1.284184,-40.61645 3.023809,-47.625 2.546911,-10.26095 11.373937,-28.50248 13.158757,-37.43308 2.14338,-10.72477 0.68716,-56.668414 -0.63575,-55.628979 -8.76677,5.619817 -9.475341,32.943221 -17.720181,44.681099 -2.36235,3.1183 -4.191754,2.19874 -7.370535,0.66146 -3.17878,-1.53728 -3.65158,-5.125899 -7.559524,-11.528274 -4.441219,-7.276041 -14.807548,-27.651734 -20.032738,-34.584822 -1.676056,-1.203362 -3.88415,0.293902 -10.866815,-12.095236 -0.649829,-1.148236 -1.243603,-2.434646 0.329338,-2.464376 1.715932,-0.03243 2.405723,5.439726 4.867834,4.732232 1.133929,-0.09449 -3.023809,-7.654018 -3.874256,-9.165922 -0.850446,-1.511904 -0.377976,-3.874261 0.850447,-3.96875 2.573282,0.419812 2.141967,12.145283 6.331101,10.48884 1.321033,-0.522355 -2.456845,-7.748512 -2.929316,-9.638394 -0.47247,-1.88988 0.188989,-1.88988 1.228423,-2.267856 1.039435,-0.377978 3.118304,7.039805 3.779762,9.307663 0.661459,2.267857 2.456846,1.322917 2.834822,0.566965 0.377976,-0.755953 -0.707316,-4.119174 -1.179786,-6.387032 -0.47247,-2.267856 0.850447,-3.118302 1.795387,-2.645832 0.944941,0.47247 1.652256,13.804811 3.164161,13.9938 1.511904,0.188988 1.606864,-1.55934 3.212797,-3.496279 4.466786,-5.387455 5.058901,-0.852759 0.283482,4.535714 -1.808859,2.041075 -2.929315,4.724702 -1.445091,8.780631 1.484225,4.055929 3.914456,4.46693 16.241967,30.245411 0,0 5.77764,15.866337 10.622023,-13.985121 6.697043,-41.267691 9.444868,-40.633265 14.174108,-41.081247 5.91001,-0.559832 19.26569,11.096477 21.73363,6.401933 0.87254,-1.659739 2.19845,-5.757556 1.46466,-7.110638"
       style="display:inline;fill:#ffffff;fill-opacity:1;stroke:#000000;stroke-width:1.36500001;stroke-linecap:square;stroke-linejoin:miter;stroke-miterlimit:4;stroke-dasharray:none;stroke-opacity:1" />
    <path
       inkscape:export-ydpi="381"
       inkscape:export-xdpi="381"
       inkscape:export-filename="/home/sioban/donnees/Formations/house_of_code/projet_percu-corpo/images/jeanne-pat/position-neutre.png"
       inkscape:label="tête"
       inkscape:connector-curvature="0"
       id="path915"
       d="m 105.76475,30.649789 c 16.38593,1.217 16.37152,-32.8442101 0,-29.6003001 -8.634915,-0.78422003 -26.207375,28.2590401 0,29.6003001 z"
       style="display:inline;fill:#ffffff;fill-opacity:1;stroke:#000000;stroke-width:1.36500001;stroke-linecap:square;stroke-linejoin:miter;stroke-miterlimit:4;stroke-dasharray:none;stroke-opacity:1" />
  </g>
  <g
     inkscape:label="pi-début"
     inkscape:groupmode="layer"
     id="g982"
     style="display:inline">
    <circle
       style="display:inline;opacity:1;fill:#ffdf00;fill-opacity:1;fill-rule:nonzero;stroke:none;stroke-width:1.22606957;stroke-linecap:square;stroke-linejoin:miter;stroke-miterlimit:4;stroke-dasharray:none;stroke-opacity:1;paint-order:fill markers stroke"
       id="circle976"
       cx="149.90105"
       cy="276.78079"
       r="15.8444"
       inkscape:label="rond" />
    <path
       sodipodi:nodetypes="ccssccccccccccsccccccccsccccscccccsscccccccssscccssccccscsscsssssssscsscc"
       inkscape:connector-curvature="0"
       id="path978"
       d="m 100.39072,30.19185 c 0.73379,1.353082 -0.592127,5.450899 -1.464661,7.110638 -2.467938,4.694544 -15.823683,-6.961765 -21.733723,-6.401933 -4.72928,0.447982 -7.47711,-0.186444 -14.17419,41.081247 -4.84441,29.851458 -10.62209,13.985121 -10.62209,13.985121 -12.32758,-25.778481 -14.75782,-26.189482 -16.24205,-30.245411 -1.48425,-4.055929 -0.36378,-6.739556 1.4451,-8.780631 4.77543,-5.388473 4.18332,-9.923169 -0.28349,-4.535714 -1.60595,1.936939 -1.7009,3.685267 -3.21282,3.496279 -1.51191,-0.188989 -2.21924,-13.52133 -3.16417,-13.9938 -0.94496,-0.47247 -2.26787,0.377976 -1.79541,2.645832 0.47248,2.267858 1.55778,5.631079 1.17979,6.387032 -0.37797,0.755952 -2.17336,1.700892 -2.83483,-0.566965 -0.66146,-2.267858 -2.74034,-9.685641 -3.77979,-9.307663 -1.03944,0.377976 -1.7009,0.377976 -1.22842,2.267856 0.47248,1.889882 4.25037,9.116039 2.92934,9.638394 -4.18917,1.656443 -3.75784,-10.069028 -6.33113,-10.48884 -1.22844,0.09449 -1.70091,2.456846 -0.85045,3.96875 0.85045,1.511904 5.0082,9.071429 3.87425,9.165922 -2.46212,0.707494 -3.15191,-4.76466 -4.86783,-4.732232 -1.57294,0.02973 -0.97917,1.31614 -0.32934,2.464376 6.98269,12.389138 9.19078,10.891874 10.86685,12.095236 5.22523,6.933088 15.59161,27.308781 20.03285,34.584822 3.90797,6.402375 4.38078,9.990994 7.55958,11.528274 3.1788,1.53728 5.00821,2.45684 7.37057,-0.66146 8.24489,-11.737878 8.95346,-39.061282 17.72028,-44.681099 1.32293,-1.039435 2.77914,44.904209 0.63575,55.628979 -2.60662,12.94531 -8.01559,10.01737 -12.55403,37.0551 -1.73964,7.00855 -0.39438,26.87803 1.13391,48.00298 1.31323,18.1523 15.61812,78.05054 3.4018,86.17857 -3.77979,1.88988 -13.89071,6.52009 -14.83564,7.37054 -0.94495,0.85045 -1.22845,3.49628 -0.66148,4.34673 5.13636,2.92529 12.54916,2.47806 14.36319,1.88987 5.38619,-1.79539 13.47196,-5.23074 15.92882,-8.34905 2.45684,-3.1183 -5.099,-4.5879 -3.04628,-9.82622 3.10535,-7.92454 5.54836,-34.21387 6.77233,-39.27711 5.191105,-21.47433 0.19986,-88.1871 12.718414,-89.39808 11.54331,2.08736 21.52795,23.91559 24.99192,44.88399 7.36429,42.14617 -4.46389,64.07855 8.34145,87.29462 2.30293,3.23364 12.06436,-1.09978 17.69676,-1.8141 1.8898,-0.2555 8.76504,-3.06262 12.12783,-7.92376 0.14273,-1.0121 -1.25864,-3.27416 -2.47867,-3.6315 -1.22004,-0.35733 -12.37121,0.30819 -16.56416,-0.21856 -3.0766,-0.38651 -3.97184,-2.34998 -4.69741,-5.09795 -4.05971,-15.37557 6.24683,-57.92363 7.40347,-73.91154 1.42075,-19.63863 -5.9614,-33.5338 -9.17101,-40.14145 -4.61929,-9.50978 -11.37393,-28.50248 -13.15875,-37.43308 -2.14338,-10.72477 -0.68716,-56.668414 0.63575,-55.628979 8.76677,5.619817 9.47534,32.943221 17.72018,44.681099 2.36235,3.1183 4.19175,2.19874 7.37053,0.66146 3.17878,-1.53728 3.65158,-5.125899 7.55953,-11.528274 4.44121,-7.276041 14.80754,-27.651734 20.03273,-34.584822 1.67606,-1.203362 3.88415,0.293902 10.86682,-12.095236 0.64983,-1.148236 1.2436,-2.434646 -0.32934,-2.464376 -1.71593,-0.03243 -2.40572,5.439726 -4.86783,4.732232 -1.13393,-0.09449 3.02381,-7.654018 3.87425,-9.165922 0.85045,-1.511904 0.37798,-3.874261 -0.85044,-3.96875 -2.57329,0.419812 -2.14197,12.145283 -6.33111,10.48884 -1.32103,-0.522355 2.45685,-7.748512 2.92932,-9.638394 0.47247,-1.88988 -0.18899,-1.88988 -1.22842,-2.267856 -1.03944,-0.377978 -3.11831,7.039805 -3.77976,9.307663 -0.66146,2.267857 -2.45685,1.322917 -2.83483,0.566965 -0.37797,-0.755953 0.70732,-4.119174 1.17979,-6.387032 0.47247,-2.267856 -0.85045,-3.118302 -1.79539,-2.645832 -0.94494,0.47247 -1.65225,13.804811 -3.16416,13.9938 -1.5119,0.188988 -1.60686,-1.55934 -3.2128,-3.496279 -4.46678,-5.387455 -5.0589,-0.852759 -0.28348,4.535714 1.80886,2.041075 2.92932,4.724702 1.44509,8.780631 -1.48422,4.055929 -3.91445,4.46693 -16.24196,30.245411 0,0 -5.77764,15.866337 -10.62203,-13.985121 -6.69704,-41.267691 -9.44486,-40.633265 -14.1741,-41.081247 -5.91001,-0.559832 -19.2657,11.096477 -21.73365,6.401933 -0.87255,-1.659739 -2.19846,-5.757556 -1.46467,-7.110638"
       style="display:inline;fill:#ffffff;fill-opacity:1;stroke:#000000;stroke-width:1.36500001;stroke-linecap:square;stroke-linejoin:miter;stroke-miterlimit:4;stroke-dasharray:none;stroke-opacity:1" />
    <path
       style="display:inline;fill:#ffffff;fill-opacity:1;stroke:#000000;stroke-width:1.36500001;stroke-linecap:square;stroke-linejoin:miter;stroke-miterlimit:4;stroke-dasharray:none;stroke-opacity:1"
       d="m 105.18706,30.649789 c -16.385904,1.217 -16.371494,-32.8442101 0,-29.6003001 8.63493,-0.78422003 26.20739,28.2590401 0,29.6003001 z"
       id="path980"
       inkscape:connector-curvature="0"
       inkscape:label="tête"
       inkscape:export-filename="/home/sioban/donnees/Formations/house_of_code/projet_percu-corpo/images/jeanne-pat/position-neutre.png"
       inkscape:export-xdpi="381"
       inkscape:export-ydpi="381" />
  </g>
</svg>
